SplineFontDB: 3.2
FontName: Giphurs-Thin
FullName: Giphurs Thin
FamilyName: Giphurs
Weight: Thin
Copyright: Copyright 2023 The Giphurs Project Authors (https://github.com/Corne2Plum3/Giphurs)
UComments: "2023-01-20: Finally found a name for the font lol+AAoA-2022-06-21: Created with FontForge (http://fontforge.org)"
Version: 000.900
ItalicAngle: 0
UnderlinePosition: -204
UnderlineWidth: 102
Ascent: 1668
Descent: 380
InvalidEm: 0
LayerCount: 4
Layer: 0 0 "Back" 1
Layer: 1 0 "Fore" 0
Layer: 2 0 "Back 3" 1
Layer: 3 0 "Back 8" 1
XUID: [1021 347 -1220005877 17853]
StyleMap: 0x0040
FSType: 0
OS2Version: 0
OS2_WeightWidthSlopeOnly: 0
OS2_UseTypoMetrics: 1
CreationTime: 1655845567
ModificationTime: 1699727358
PfmFamily: 33
TTFWeight: 100
TTFWidth: 5
LineGap: 0
VLineGap: 0
OS2TypoAscent: 2218
OS2TypoAOffset: 0
OS2TypoDescent: -578
OS2TypoDOffset: 0
OS2TypoLinegap: 0
OS2WinAscent: 2218
OS2WinAOffset: 0
OS2WinDescent: 578
OS2WinDOffset: 0
HheadAscent: 2218
HheadAOffset: 0
HheadDescent: -578
HheadDOffset: 0
OS2CapHeight: 1480
OS2XHeight: 1040
OS2Vendor: 'PfEd'
Lookup: 1 0 0 "'c2sc' Capitales vers petites capitales dans Latin lookup 0" { "sous-table 'c2sc' Capitales vers petites capitales dans Latin lookup 0"  } ['c2sc' ('grek' <'dflt' > 'latn' <'dflt' > ) ]
Lookup: 1 0 0 "'c2pc' Capitales vers tr+AOgA-s petites capitales dans Latin lookup 0" { "sous-table 'c2pc' Capitales vers tr+AOgA-s petites capitales dans Latin lookup 0"  } ['c2pc' ('latn' <'dflt' > ) ]
Lookup: 1 0 0 "'smcp' Bas-de-casse vers petites capitales dans Latin lookup 0" { "sous-table 'smcp' Bas-de-casse vers petites capitales dans Latin lookup 0"  } ['smcp' ('grek' <'dflt' > 'latn' <'dflt' > ) ]
Lookup: 1 0 0 "'pcap' Bas-de-casse vers tr+AOgA-s petites capitales dans Latin lookup 0" { "sous-table 'pcap' Bas-de-casse vers tr+AOgA-s petites capitales dans Latin lookup 0"  } ['pcap' ('latn' <'dflt' > ) ]
Lookup: 1 0 0 "Soft dotted i substitutions" { "Soft dotted i substitutions lookups0-1"  } []

StartChar: o
Encoding: 111 111 0
Width: 1076
VWidth: 1000
Flags: HMW
AnchorPoint: "top_center" 538 1040 basechar 0
AnchorPoint: "bottom_center" 538 0 basechar 0
AnchorPoint: "top_right" 934 1040 basechar 0
AnchorPoint: "bottom_right" 627 0 basechar 0
LayerCount: 3
Fore
SplineSet
145 520 m 0
 145 184 370 30 538 30 c 0
 706 30 931 184 931 520 c 0
 931 856 706 1010 538 1010 c 0
 370 1010 145 856 145 520 c 0
100 520 m 0
 100 832 291 1050 538 1050 c 0
 785 1050 976 832 976 520 c 0
 976 208 785 -10 538 -10 c 0
 291 -10 100 208 100 520 c 0
EndSplineSet
Substitution2: "sous-table 'smcp' Bas-de-casse vers petites capitales dans Latin lookup 0" o.sc
Colour: ff00
EndChar

StartChar: n
Encoding: 110 110 1
Width: 1050
VWidth: 1000
Flags: HMW
AnchorPoint: "top_center" 525 1040 basechar 0
AnchorPoint: "bottom_center" 525 0 basechar 0
LayerCount: 3
Fore
SplineSet
865 0 m 1
 865 572 l 2
 865 791 795 1010 525 1010 c 0
 255 1010 185 791 185 572 c 2
 185 0 l 1
 140 0 l 1
 140 1040 l 1
 185 1040 l 1
 185 820 l 1
 222 927 305 1050 535 1050 c 0
 773 1050 910 892 910 572 c 1
 910 0 l 1
 865 0 l 1
EndSplineSet
Substitution2: "sous-table 'smcp' Bas-de-casse vers petites capitales dans Latin lookup 0" n.sc
Colour: ff00
EndChar

StartChar: u
Encoding: 117 117 2
Width: 1050
VWidth: 1000
Flags: HMW
AnchorPoint: "bottom_right" 922 0 basechar 0
AnchorPoint: "top_right" 909 1040 basechar 0
AnchorPoint: "top_center" 525 1040 basechar 0
AnchorPoint: "bottom_center" 525 0 basechar 0
LayerCount: 3
Fore
SplineSet
185 1040 m 1
 185 468 l 2
 185 249 255 30 525 30 c 0
 795 30 865 249 865 468 c 2
 865 1040 l 1
 910 1040 l 1
 910 208 l 1
 910 110 922 0 922 0 c 5
 877 0 l 1
 877 0 865 110 865 220 c 1
 828 113 745 -10 515 -10 c 0
 277 -10 140 148 140 468 c 1
 140 1040 l 1
 185 1040 l 1
EndSplineSet
Substitution2: "sous-table 'smcp' Bas-de-casse vers petites capitales dans Latin lookup 0" u.sc
Substitution2: "'ss05' Simplified u lookups0-1" u.ss05
Colour: ff00
EndChar

StartChar: d
Encoding: 100 100 3
Width: 1072
VWidth: 1000
Flags: HMW
AnchorPoint: "top_right" 932 1480 basechar 0
AnchorPoint: "bottom_cedilla" 520 -20 basechar 0
AnchorPoint: "top_center" 909 1380 basechar 0
AnchorPoint: "bottom_center" 520 0 basechar 0
LayerCount: 3
Fore
SplineSet
895 520 m 1
 895 856 695 1010 520 1010 c 0
 345 1010 145 856 145 520 c 0
 145 184 345 30 520 30 c 0
 695 30 895 184 895 520 c 1
932 208 m 1
 932 110 944 0 944 0 c 1
 899 0 l 1
 899 0 887 110 887 260 c 1
 856 144 730 -10 520 -10 c 0
 273 -10 100 208 100 520 c 0
 100 832 273 1050 520 1050 c 0
 720 1050 856 896 887 780 c 1
 887 1480 l 1
 932 1480 l 1
 932 208 l 1
EndSplineSet
Substitution2: "sous-table 'smcp' Bas-de-casse vers petites capitales dans Latin lookup 0" d.sc
Colour: ff00
EndChar

StartChar: b
Encoding: 98 98 4
Width: 1072
VWidth: 1000
Flags: HMW
AnchorPoint: "top_center" 163 1380 basechar 0
AnchorPoint: "bottom_center" 552 0 basechar 0
LayerCount: 3
Fore
SplineSet
177 520 m 1
 177 184 377 30 552 30 c 0
 727 30 927 184 927 520 c 0
 927 856 727 1010 552 1010 c 0
 377 1010 177 856 177 520 c 1
140 208 m 1
 140 1480 l 1
 185 1480 l 1
 185 780 l 1
 216 896 352 1050 552 1050 c 0
 799 1050 972 832 972 520 c 0
 972 208 799 -10 552 -10 c 0
 342 -10 216 144 185 260 c 1
 185 0 l 1
 140 0 l 1
 140 0 140 110 140 208 c 1
EndSplineSet
Substitution2: "sous-table 'smcp' Bas-de-casse vers petites capitales dans Latin lookup 0" b.sc
Colour: ff00
EndChar

StartChar: p
Encoding: 112 112 5
Width: 1072
VWidth: 1000
Flags: HMW
AnchorPoint: "top_center" 552 1040 basechar 0
AnchorPoint: "bottom_center" 552 0 basechar 0
LayerCount: 3
Fore
SplineSet
177 520 m 1
 177 184 377 30 552 30 c 0
 727 30 927 184 927 520 c 0
 927 856 727 1010 552 1010 c 0
 377 1010 177 856 177 520 c 1
140 832 m 1
 140 930 140 1040 140 1040 c 1
 185 1040 l 1
 185 780 l 1
 216 896 342 1050 552 1050 c 0
 799 1050 972 832 972 520 c 0
 972 208 799 -10 552 -10 c 0
 352 -10 216 144 185 260 c 1
 185 -440 l 1
 140 -440 l 1
 140 832 l 1
EndSplineSet
Substitution2: "sous-table 'smcp' Bas-de-casse vers petites capitales dans Latin lookup 0" p.sc
Colour: ff00
EndChar

StartChar: q
Encoding: 113 113 6
Width: 1072
VWidth: 1000
Flags: HMW
AnchorPoint: "bottom_center" 520 0 basechar 0
AnchorPoint: "top_center" 520 1040 basechar 0
LayerCount: 3
Fore
SplineSet
895 520 m 1
 895 856 695 1010 520 1010 c 0
 345 1010 145 856 145 520 c 0
 145 184 345 30 520 30 c 0
 695 30 895 184 895 520 c 1
932 832 m 1
 932 -440 l 1
 887 -440 l 1
 887 260 l 1
 856 144 720 -10 520 -10 c 0
 273 -10 100 208 100 520 c 0
 100 832 273 1050 520 1050 c 0
 730 1050 856 896 887 780 c 1
 887 1040 l 1
 932 1040 l 1
 932 1040 932 930 932 832 c 1
EndSplineSet
Substitution2: "sous-table 'smcp' Bas-de-casse vers petites capitales dans Latin lookup 0" q.sc
Colour: ff00
EndChar

StartChar: h
Encoding: 104 104 7
Width: 1050
VWidth: 1000
Flags: HMW
AnchorPoint: "bottom_cedilla" 163 -20 basechar 0
AnchorPoint: "top_center" 163 1380 basechar 0
AnchorPoint: "bottom_center" 525 0 basechar 0
LayerCount: 3
Fore
SplineSet
865 0 m 1
 865 572 l 2
 865 791 795 1010 525 1010 c 0
 255 1010 185 791 185 572 c 2
 185 0 l 1
 140 0 l 1
 140 1480 l 1
 185 1480 l 1
 185 820 l 1
 222 927 305 1050 535 1050 c 0
 773 1050 910 892 910 572 c 1
 910 0 l 1
 865 0 l 1
EndSplineSet
Substitution2: "sous-table 'smcp' Bas-de-casse vers petites capitales dans Latin lookup 0" h.sc
Colour: ff00
EndChar

StartChar: m
Encoding: 109 109 8
Width: 1614
VWidth: 1000
Flags: HMW
AnchorPoint: "top_center" 807 1040 basechar 0
AnchorPoint: "bottom_center" 807 0 basechar 0
LayerCount: 3
Fore
SplineSet
784 0 m 1
 784 572 l 2
 784 791 724 1010 484 1010 c 0
 244 1010 184 791 184 572 c 2
 184 0 l 1
 140 0 l 1
 140 1040 l 1
 184 1040 l 1
 184 820 l 1
 211 927 284 1050 494 1050 c 0
 660 1050 774 951 814 751 c 1
 848 950 941 1050 1140 1050 c 0
 1350 1050 1474 892 1474 572 c 2
 1474 0 l 1
 1430 0 l 1
 1430 572 l 2
 1430 791 1360 1010 1120 1010 c 0
 900 1010 830 791 830 572 c 2
 830 0 l 1
 784 0 l 1
EndSplineSet
Substitution2: "sous-table 'smcp' Bas-de-casse vers petites capitales dans Latin lookup 0" m.sc
Colour: ff00
EndChar

StartChar: e
Encoding: 101 101 9
Width: 1076
VWidth: 1000
Flags: HMW
AnchorPoint: "bottom_cedilla" 538 -20 basechar 0
AnchorPoint: "top_center" 538 1040 basechar 0
AnchorPoint: "bottom_center" 538 0 basechar 0
AnchorPoint: "bottom_right" 641 0 basechar 0
LayerCount: 4
Fore
SplineSet
125 540 m 5
 959 540 l 5
 931 500 l 5
 125 500 l 5
 125 540 l 5
912 274 m 5
 951 252 l 5
 877 90 735 -10 538 -10 c 4
 291 -10 100 208 100 520 c 4
 100 832 291 1050 538 1050 c 4
 785 1050 976 832 976 520 c 4
 976 513 976 507 976 500 c 5
 931 500 l 5
 931 507 931 513 931 520 c 4
 931 856 706 1010 538 1010 c 4
 370 1010 145 856 145 520 c 4
 145 184 370 30 538 30 c 4
 684 30 836 108 912 274 c 5
EndSplineSet
Substitution2: "sous-table 'smcp' Bas-de-casse vers petites capitales dans Latin lookup 0" e.sc
Colour: ff00
EndChar

StartChar: c
Encoding: 99 99 10
Width: 1021
VWidth: 1000
Flags: HMW
AnchorPoint: "bottom_cedilla" 538 -20 basechar 0
AnchorPoint: "top_center" 538 1040 basechar 0
AnchorPoint: "bottom_center" 538 0 basechar 0
LayerCount: 4
Fore
SplineSet
145 520 m 0
 145 184 370 30 538 30 c 0
 658 30 806 108 882 274 c 1
 921 252 l 1
 847 90 705 -10 538 -10 c 0
 291 -10 100 208 100 520 c 0
 100 832 291 1050 538 1050 c 0
 705 1050 847 950 921 788 c 1
 882 766 l 1
 806 932 658 1010 538 1010 c 0
 370 1010 145 856 145 520 c 0
EndSplineSet
Substitution2: "sous-table 'smcp' Bas-de-casse vers petites capitales dans Latin lookup 0" c.sc
Colour: ff00
EndChar

StartChar: f
Encoding: 102 102 11
Width: 732
VWidth: 1000
Flags: HMW
AnchorPoint: "bottom_center" 316 0 basechar 0
AnchorPoint: "top_center" 458 1380 basechar 0
LayerCount: 3
Fore
SplineSet
668 1415 m 5
 629 1443 575 1450 537 1450 c 4
 447 1450 339 1420 339 1180 c 6
 339 1040 l 1
 645 1040 l 1
 645 1000 l 1
 339 1000 l 1
 339 0 l 1
 294 0 l 1
 294 1000 l 1
 50 1000 l 1
 50 1040 l 1
 294 1040 l 1
 294 1180 l 6
 294 1380 361 1490 537 1490 c 4
 586 1490 642 1476 682 1458 c 5
 668 1415 l 5
EndSplineSet
Substitution2: "sous-table 'smcp' Bas-de-casse vers petites capitales dans Latin lookup 0" f.sc
Substitution2: "'ss06' f ligatures lookups0-1" f.ss06
Colour: ff00
EndChar

StartChar: r
Encoding: 114 114 12
Width: 717
VWidth: 1000
Flags: HMW
AnchorPoint: "top_center" 435 1040 basechar 0
AnchorPoint: "bottom_center" 166 0 basechar 0
LayerCount: 3
Fore
SplineSet
646 972 m 1
 611 994 571 1010 525 1010 c 0
 255 1010 185 791 185 572 c 2
 185 0 l 1
 140 0 l 1
 140 1040 l 1
 185 1040 l 1
 185 820 l 1
 222 927 305 1050 535 1050 c 0
 579 1050 630 1035 667 1014 c 1
 646 972 l 1
EndSplineSet
Substitution2: "sous-table 'smcp' Bas-de-casse vers petites capitales dans Latin lookup 0" r.sc
Colour: ff00
EndChar

StartChar: t
Encoding: 116 116 13
Width: 732
VWidth: 1000
Flags: HMW
AnchorPoint: "bottom_cedilla" 513 -20 basechar 0
AnchorPoint: "bottom_center" 486 0 basechar 0
AnchorPoint: "top_center" 458 1380 basechar 0
LayerCount: 3
Fore
SplineSet
128 1040 m 1
 278 1040 294 1056 294 1206 c 1
 294 1320 l 1
 339 1320 l 1
 339 1040 l 1
 645 1040 l 1
 645 1000 l 1
 339 1000 l 1
 339 300 l 2
 339 60 447 30 537 30 c 0
 575 30 629 37 668 65 c 1
 682 22 l 1
 642 4 586 -10 537 -10 c 0
 361 -10 294 100 294 300 c 2
 294 1000 l 1
 50 1000 l 1
 50 1040 l 1
 128 1040 l 1
EndSplineSet
Substitution2: "sous-table 'smcp' Bas-de-casse vers petites capitales dans Latin lookup 0" t.sc
Substitution2: "'ss06' f ligatures lookups0-1" t.ss06
Colour: ff00
EndChar

StartChar: v
Encoding: 118 118 14
Width: 1010
VWidth: 1000
Flags: HMW
AnchorPoint: "top_center" 505 1040 basechar 0
AnchorPoint: "bottom_center" 505 0 basechar 0
LayerCount: 3
Fore
SplineSet
505 56 m 5
 862 1040 l 1
 910 1040 l 1
 530 0 l 1
 480 0 l 1
 100 1040 l 1
 148 1040 l 1
 505 56 l 5
EndSplineSet
Substitution2: "sous-table 'smcp' Bas-de-casse vers petites capitales dans Latin lookup 0" v.sc
Colour: ff00
EndChar

StartChar: w
Encoding: 119 119 15
Width: 1476
VWidth: 1000
Flags: HMW
AnchorPoint: "top_center" 738 1040 basechar 0
AnchorPoint: "bottom_center" 738 0 basechar 0
LayerCount: 3
Fore
SplineSet
408 0 m 25
 100 1040 l 25
 148 1040 l 25
 431 89 l 29
 714 1040 l 25
 762 1040 l 25
 1045 89 l 29
 1328 1040 l 25
 1376 1040 l 25
 1068 0 l 25
 1022 0 l 25
 737 960 l 25
 454 0 l 25
 408 0 l 25
EndSplineSet
Substitution2: "sous-table 'smcp' Bas-de-casse vers petites capitales dans Latin lookup 0" w.sc
Colour: ff00
EndChar

StartChar: x
Encoding: 120 120 16
Width: 958
Flags: HMW
AnchorPoint: "top_center" 479 1040 basechar 0
AnchorPoint: "bottom_center" 479 0 basechar 0
LayerCount: 3
Fore
SplineSet
440 520 m 1
 100 1040 l 1
 152 1040 l 1
 479 550 l 1
 806 1040 l 1
 858 1040 l 1
 518 520 l 5
 858 0 l 1
 806 0 l 1
 479 490 l 1
 152 0 l 1
 100 0 l 1
 440 520 l 1
EndSplineSet
Substitution2: "sous-table 'smcp' Bas-de-casse vers petites capitales dans Latin lookup 0" x.sc
Colour: ff00
EndChar

StartChar: y
Encoding: 121 121 17
Width: 1058
VWidth: 1000
Flags: HMW
AnchorPoint: "top_center" 553 1040 basechar 0
AnchorPoint: "bottom_center" 310 -360 basechar 0
LayerCount: 3
Fore
SplineSet
463 -312 m 1
 430 -401 361 -450 245 -450 c 0
 196 -450 140 -436 100 -418 c 1
 114 -375 l 1
 153 -403 207 -410 245 -410 c 0
 310 -410 385 -395 421 -296 c 1
 528 0 l 1
 148 1040 l 1
 196 1040 l 1
 553 56 l 1
 910 1040 l 1
 958 1040 l 1
 578 0 l 1
 463 -312 l 1
EndSplineSet
Layer: 2
SplineSet
381 -409 m 1
 910 1040 l 1
 958 1040 l 1
 406 -465 l 1
 381 -409 l 1
EndSplineSet
Substitution2: "sous-table 'smcp' Bas-de-casse vers petites capitales dans Latin lookup 0" y.sc
Colour: ff00
EndChar

StartChar: l
Encoding: 108 108 20
Width: 465
Flags: HMW
AnchorPoint: "top_center" 166 1380 basechar 0
AnchorPoint: "bottom_center" 272 0 basechar 0
LayerCount: 3
Fore
SplineSet
449 56 m 1
 460 14 l 1
 435 -3 405 -10 377 -10 c 0
 227 -10 140 60 140 230 c 2
 140 440 l 1
 140 578 l 1
 140 1480 l 1
 185 1480 l 1
 185 578 l 1
 185 440 l 1
 185 230 l 2
 185 40 324 30 377 30 c 0
 391 30 418 36 449 56 c 1
EndSplineSet
Substitution2: "sous-table 'smcp' Bas-de-casse vers petites capitales dans Latin lookup 0" l.sc
Substitution2: "'ss06' f ligatures lookups0-1" l.ss06
Colour: ff00
EndChar

StartChar: k
Encoding: 107 107 21
Width: 989
Flags: HMW
AnchorPoint: "top_center" 166 1380 basechar 0
AnchorPoint: "bottom_center" 517 0 basechar 0
LayerCount: 3
Fore
SplineSet
411 601 m 1
 442 630 l 1
 889 0 l 1
 837 0 l 1
 411 601 l 1
185 340 m 1
 185 0 l 1
 140 0 l 1
 140 1480 l 1
 185 1480 l 1
 185 398 l 1
 827 1040 l 1
 880 1040 832 1040 885 1040 c 1
 185 340 l 1
EndSplineSet
Substitution2: "sous-table 'smcp' Bas-de-casse vers petites capitales dans Latin lookup 0" k.sc
Colour: ff00
EndChar

StartChar: s
Encoding: 115 115 22
Width: 922
VWidth: 1000
Flags: HMW
AnchorPoint: "bottom_right" 573 0 basechar 0
AnchorPoint: "bottom_center" 465 0 basechar 0
AnchorPoint: "top_center" 465 1040 basechar 0
LayerCount: 3
Fore
SplineSet
465 1050 m 0
 658 1050 770 953 804 808 c 1
 766 786 l 1
 723 964 581 1010 465 1010 c 0
 349 1010 180 950 180 780 c 0
 180 600 337 580 465 546 c 0
 671 492 822 457 822 261 c 0
 822 85 667 -10 465 -10 c 0
 263 -10 134 108 100 253 c 1
 138 275 l 1
 178 105 333 30 465 30 c 0
 597 30 777 91 777 261 c 0
 777 441 593 466 465 500 c 0
 259 554 135 595 135 780 c 0
 135 935 272 1050 465 1050 c 0
EndSplineSet
Substitution2: "sous-table 'smcp' Bas-de-casse vers petites capitales dans Latin lookup 0" s.sc
Colour: ff00
EndChar

StartChar: a
Encoding: 97 97 23
Width: 1162
Flags: HMW
AnchorPoint: "top_right" 980 1040 basechar 0
AnchorPoint: "bottom_right" 1082 0 basechar 0
AnchorPoint: "top_center" 596 1040 basechar 0
AnchorPoint: "bottom_center" 596 0 basechar 0
LayerCount: 3
Fore
SplineSet
586 -10 m 0
 388 -10 211 100 211 340 c 1
 211 580 398 690 596 690 c 0
 766 690 971 580 971 340 c 1
 971 100 776 -10 586 -10 c 0
936 340 m 0
 936 509 806 650 596 650 c 0
 386 650 256 539 256 340 c 0
 256 141 386 30 596 30 c 0
 806 30 936 171 936 340 c 0
981 230 m 6
 981 109 1037 49 1092 30 c 5
 1079 -10 l 5
 987 16 936 99 936 230 c 13
 953 265 l 25
 953 416 l 25
 936 448 l 1
 936 630 l 18
 936 944 742 1010 594 1010 c 0
 396 1010 267 885 267 885 c 1
 242 926 l 1
 242 926 370 1050 594 1050 c 0
 810 1050 981 948 981 598 c 13
 981 230 l 6
EndSplineSet
Layer: 2
SplineSet
145 468 m 6
 145 249 215 30 485 30 c 4
 755 30 825 249 825 468 c 1030
825 220 m 5
 788 113 705 -10 475 -10 c 4
 237 -10 100 148 100 468 c 1029
EndSplineSet
Substitution2: "sous-table 'smcp' Bas-de-casse vers petites capitales dans Latin lookup 0" a.sc
Substitution2: "'ss04' Simplified a and g lookups0-1" a.ss04
Colour: ff00
EndChar

StartChar: g
Encoding: 103 103 24
Width: 1085
VWidth: 997
Flags: HMW
AnchorPoint: "top_center" 523 1030 basechar 0
AnchorPoint: "bottom_center" 523 -361 basechar 0
LayerCount: 4
Fore
SplineSet
645 1007 m 1
 695 1033 759 1050 844 1050 c 0
 888 1050 939 1035 976 1014 c 1
 955 972 l 1
 920 994 880 1010 834 1010 c 0
 776 1010 728 1000 687 982 c 1
 645 1007 l 1
523 340 m 0
 523 310 l 0
 384 310 213 290 213 175 c 0
 213 60 328 40 523 40 c 0
 523 0 l 0
 292 0 173 45 173 175 c 0
 173 305 312 340 523 340 c 0
976 -166 m 0
 976 -346 841 -450 523 -450 c 0
 205 -450 109 -345 109 -204 c 0
 109 -33 254 40 523 40 c 0
 523 14 l 0
 305 14 154 -49 154 -204 c 0
 154 -359 305 -410 523 -410 c 4
 869 -410 931 -270 931 -170 c 0
 931 -90 877 0 523 0 c 0
 523 40 l 0
 805 40 976 -6 976 -166 c 0
218 680 m 0
 218 460 383 350 523 350 c 0
 663 350 828 460 828 680 c 0
 828 900 663 1010 523 1010 c 0
 383 1010 218 900 218 680 c 0
173 680 m 0
 173 899 330 1050 523 1050 c 0
 716 1050 873 899 873 680 c 0
 873 461 716 310 523 310 c 0
 330 310 173 461 173 680 c 0
EndSplineSet
Layer: 2
SplineSet
520 -460 m 4
 880 -460 1035 -330 1035 -150 c 4
 1035 30 880 160 520 160 c 4
 200 160 50 10 50 -150 c 4
 50 -310 160 -460 520 -460 c 4
520 0 m 4
 768 0 855 -50 855 -150 c 4
 855 -250 768 -300 520 -300 c 4
 272 -300 230 -225 230 -150 c 4
 230 -75 272 0 520 0 c 4
320 680 m 4
 320 560 400 460 520 460 c 4
 640 460 720 560 720 680 c 4
 720 800 640 900 520 900 c 4
 400 900 320 800 320 680 c 4
140 680 m 4
 140 899 301 1060 520 1060 c 4
 739 1060 900 899 900 680 c 4
 900 461 739 300 520 300 c 4
 301 300 140 461 140 680 c 4
EndSplineSet
Layer: 3
SplineSet
604.309570312 967.537109375 m 5
 677.329101562 1023.9375 761.196289062 1060 861 1060 c 4
 929 1060 984 1049 1035 1028 c 5
 987 849 l 5
 944 883 892 900 821 900 c 4
 773.765625 900 733.5546875 892.494140625 699.93359375 877.462890625 c 5
 604.309570312 967.537109375 l 5
520 160 m 4
 520 0 l 4
 280 0 140 70 140 230 c 4
 140 390 280 460 520 460 c 4
 520 300 l 4
 362 300 320 270 320 230 c 4
 320 190 362 160 520 160 c 4
EndSplineSet
Substitution2: "sous-table 'smcp' Bas-de-casse vers petites capitales dans Latin lookup 0" g.sc
Substitution2: "'ss04' Simplified a and g lookups0-1" g.ss04
Colour: ff00
EndChar

StartChar: z
Encoding: 122 122 25
Width: 932
Flags: HMW
AnchorPoint: "top_center" 466 1040 basechar 0
AnchorPoint: "bottom_center" 466 0 basechar 0
LayerCount: 3
Fore
SplineSet
140 1040 m 1
 792 1040 l 1
 792 1008 l 1
 763 1000 l 1
 140 1000 l 1
 140 1040 l 1
792 40 m 1
 792 0 l 1
 140 0 l 1
 140 32 l 1
 169 40 l 1
 792 40 l 1
192 40 m 1
 140 32 l 1
 740 1000 l 1
 792 1008 l 1
 192 40 l 1
EndSplineSet
Substitution2: "sous-table 'smcp' Bas-de-casse vers petites capitales dans Latin lookup 0" z.sc
Colour: ff00
EndChar

StartChar: A
Encoding: 65 65 27
Width: 1210
VWidth: 1000
Flags: MW
AnchorPoint: "top_left" 490 1480 basechar 0
AnchorPoint: "bottom_right" 1140 0 basechar 0
AnchorPoint: "bottom_ypogegrammeni" 605 -90 basechar 0
AnchorPoint: "top_center" 605 1380 basechar 0
AnchorPoint: "bottom_center" 605 0 basechar 0
LayerCount: 4
Fore
SplineSet
281 541 m 1
 937 541 l 1
 937 499 l 1
 281 499 l 1
 281 541 l 1
606 1408 m 1
 119 0 l 1
 70 0 l 1
 580 1480 l 1
 630 1480 l 1
 1140 0 l 1
 1091 0 l 1
 606 1408 l 1
EndSplineSet
Substitution2: "sous-table 'c2sc' Capitales vers petites capitales dans Latin lookup 0" a.sc
Colour: ffff
EndChar

StartChar: V
Encoding: 86 86 28
Width: 1270
VWidth: 1000
Flags: MW
AnchorPoint: "top_center" 635 1380 basechar 0
AnchorPoint: "bottom_center" 635 0 basechar 0
LayerCount: 4
Fore
SplineSet
635 72 m 5
 1121 1480 l 1
 1170 1480 l 1
 660 0 l 1
 610 0 l 1
 100 1480 l 1
 149 1480 l 1
 635 72 l 5
EndSplineSet
Layer: 2
SplineSet
902.604492188 1103 m 1
 902.604492188 1166 1086.85253906 1166 1086.85253906 1103 c 1
 1037.79394531 927.541992188 786.15234375 28.5068359375 746.061523438 -54.853515625 c 0
 745.038085938 -63.95703125 741.846679688 -92.33203125 726.390625 -116.556640625 c 0
 717.017578125 -139.883789062 697.344726562 -173.25 667.233398438 -173.25 c 0
 658.235351562 -173.25 647.296875 -169.645507812 636.423828125 -159.977539062 c 1
 625.537109375 -169.655273438 614.59375 -173.25 605.619140625 -173.25 c 0
 575.474609375 -173.25 535.098632812 -144.637695312 526.791015625 -54.853515625 c 1
 504.58203125 -11.2978515625 418.00390625 269.228515625 387.6796875 367.672851562 c 0
 329.349609375 575.646484375 266.88671875 803.340820312 186 1103 c 1
 370.249023438 1103 l 1
 372.640625 1093.91699219 552.1484375 412.703125 636.346679688 123.086914062 c 1
 719.52734375 408.810546875 889.500976562 1054.4609375 889.500976562 1054.4609375 c 1
 889.500976562 1118.3984375 902.604492188 1170.08105469 902.604492188 1103 c 1
712.873046875 -63 m 1
 559.98046875 -63 l 1
 712.873046875 -63 l 1
 712.873046875 -153.131835938 670.379882812 -69.3232421875 670.379882812 -4.419921875 c 1
 672.21484375 -3.6396484375 673.78125 -3.0234375 675.05859375 -2.5830078125 c 1
 671.836914062 -2.9345703125 662.099609375 -3.998046875 638.122070312 -4.400390625 c 1
 638.122070312 -66.3759765625 615.430664062 -70.5185546875 615.430664062 -8.5439453125 c 1
 615.430664062 -71.70703125 559.98046875 -127.208007812 559.98046875 -63 c 1
 712.873046875 -63 l 1
EndSplineSet
Substitution2: "sous-table 'c2sc' Capitales vers petites capitales dans Latin lookup 0" v.sc
Colour: ffff
EndChar

StartChar: H
Encoding: 72 72 29
Width: 1264
Flags: MW
AnchorPoint: "bottom_ypogegrammeni" 648 -108 basechar 0
AnchorPoint: "bottom_cedilla" 163 -38 basechar 0
AnchorPoint: "top_left" 140 1480 basechar 0
AnchorPoint: "bottom_center" 648 -18 basechar 0
AnchorPoint: "top_center" 648 1362 basechar 0
LayerCount: 4
Fore
SplineSet
140 1480 m 25
 186 1480 l 25
 186 761 l 25
 1078 761 l 25
 1078 1480 l 25
 1124 1480 l 25
 1124 0 l 25
 1078 0 l 25
 1078 719 l 25
 186 719 l 25
 186 0 l 25
 140 0 l 25
 140 1480 l 25
EndSplineSet
Substitution2: "sous-table 'c2sc' Capitales vers petites capitales dans Latin lookup 0" h.sc
Colour: ffff
EndChar

StartChar: O
Encoding: 79 79 30
Width: 1434
Flags: MW
AnchorPoint: "top_left_O2" 237 1224 basechar 0
AnchorPoint: "top_left_O1" 611 1480 basechar 0
AnchorPoint: "bottom_right" 823 0 basechar 0
AnchorPoint: "bottom_center" 717 0 basechar 0
AnchorPoint: "top_right" 1227 1480 basechar 0
AnchorPoint: "top_center" 717 1380 basechar 0
LayerCount: 4
Fore
SplineSet
146 740 m 0
 146 265 457 32 717 32 c 0
 977 32 1288 265 1288 740 c 0
 1288 1215 977 1448 717 1448 c 0
 457 1448 146 1215 146 740 c 0
100 740 m 0
 100 1179 369 1490 717 1490 c 0
 1065 1490 1334 1179 1334 740 c 0
 1334 301 1065 -10 717 -10 c 0
 369 -10 100 301 100 740 c 0
EndSplineSet
Substitution2: "sous-table 'c2sc' Capitales vers petites capitales dans Latin lookup 0" o.sc
Colour: ffff
EndChar

StartChar: E
Encoding: 69 69 31
Width: 1096
Flags: MW
AnchorPoint: "top_center" 548 1380 basechar 0
AnchorPoint: "bottom_center" 548 0 basechar 0
AnchorPoint: "bottom_right" 956 0 basechar 0
AnchorPoint: "top_left" 140 1480 basechar 0
AnchorPoint: "bottom_cedilla" 548 -20 basechar 0
LayerCount: 4
Fore
SplineSet
873 761 m 21
 873 719 l 13
 186 719 l 21
 186 42 l 5
 956 42 l 5
 956 0 l 5
 140 0 l 29
 140 1480 l 5
 956 1480 l 21
 956 1438 l 5
 186 1438 l 5
 186 761 l 13
 873 761 l 21
EndSplineSet
Substitution2: "sous-table 'c2sc' Capitales vers petites capitales dans Latin lookup 0" e.sc
Colour: ffff
EndChar

StartChar: F
Encoding: 70 70 32
Width: 1096
Flags: MW
AnchorPoint: "top_center" 548 1380 basechar 0
AnchorPoint: "bottom_center" 163 0 basechar 0
LayerCount: 4
Fore
SplineSet
186 168 m 1
 186 0 l 1
 140 0 l 1
 140 1480 l 1
 956 1480 l 17
 956 1438 l 1
 186 1438 l 1
 186 761 l 9
 873 761 l 17
 873 719 l 9
 186 719 l 17
 186 168 l 1
EndSplineSet
Substitution2: "sous-table 'c2sc' Capitales vers petites capitales dans Latin lookup 0" f.sc
Colour: ffff
EndChar

StartChar: P
Encoding: 80 80 33
Width: 1074
Flags: MW
AnchorPoint: "top_left" 140 1480 basechar 0
AnchorPoint: "bottom_center" 163 0 basechar 0
AnchorPoint: "top_center" 543 1380 basechar 0
LayerCount: 4
Fore
SplineSet
186 1438 m 25
 186 676 l 25
 555 676 l 17
 780 676 928 857 928 1057 c 0
 928 1257 780 1438 555 1438 c 9
 186 1438 l 25
140 0 m 1
 140 1480 l 1
 555 1480 l 1
 779 1480 974 1312 974 1057 c 0
 974 802 779 634 555 634 c 1
 186 634 l 1
 186 0 l 25
 140 0 l 1
EndSplineSet
Substitution2: "sous-table 'c2sc' Capitales vers petites capitales dans Latin lookup 0" p.sc
Colour: ffff
EndChar

StartChar: N
Encoding: 78 78 34
Width: 1264
Flags: MW
AnchorPoint: "top_center" 632 1380 basechar 0
AnchorPoint: "bottom_center" 632 0 basechar 0
LayerCount: 4
Fore
SplineSet
186 1480 m 5
 1078 90 l 9
 1078 1480 l 1
 1124 1480 l 25
 1124 0 l 25
 1078 0 l 1
 186 1390 l 1
 186 0 l 1
 140 0 l 25
 140 1480 l 1
 186 1480 l 5
EndSplineSet
Substitution2: "sous-table 'c2sc' Capitales vers petites capitales dans Latin lookup 0" n.sc
Colour: ffff
EndChar

StartChar: L
Encoding: 76 76 35
Width: 1096
Flags: MW
AnchorPoint: "top_center" 163 1380 basechar 0
AnchorPoint: "bottom_center" 548 0 basechar 0
LayerCount: 4
Fore
SplineSet
186 1480 m 17
 186 42 l 1
 956 42 l 1
 956 0 l 1
 140 0 l 25
 140 1480 l 1
 186 1480 l 17
EndSplineSet
Substitution2: "sous-table 'c2sc' Capitales vers petites capitales dans Latin lookup 0" l.sc
Colour: ffff
EndChar

StartChar: I
Encoding: 73 73 36
Width: 742
Flags: MW
AnchorPoint: "top_left" 140 1480 basechar 0
AnchorPoint: "bottom_right" 395 0 basechar 0
AnchorPoint: "bottom_center" 371 0 basechar 0
AnchorPoint: "top_center" 371 1380 basechar 0
LayerCount: 4
Fore
SplineSet
140 1480 m 25
 602 1480 l 29
 602 1438 l 29
 395 1438 l 25
 395 42 l 25
 602 42 l 29
 602 0 l 29
 140 0 l 25
 140 42 l 25
 347 42 l 25
 347 1438 l 25
 140 1438 l 25
 140 1480 l 25
EndSplineSet
Substitution2: "sous-table 'c2sc' Capitales vers petites capitales dans Latin lookup 0" i.sc
Substitution2: "'ss03' Simplified G and I lookups0-1" I.ss03
Colour: ffff
EndChar

StartChar: D
Encoding: 68 68 37
Width: 1242
Flags: MW
AnchorPoint: "top_center" 600 1380 basechar 0
AnchorPoint: "bottom_center" 600 0 basechar 0
AnchorPoint: "bottom_cedilla" 516 -20 basechar 0
LayerCount: 4
Fore
SplineSet
186 1438 m 25
 186 42 l 25
 556 42 l 17
 794 42 1096 240 1096 740 c 0
 1096 1240 794 1438 556 1438 c 9
 186 1438 l 25
556 0 m 1
 307 0 l 25
 140 0 l 1
 140 1480 l 1
 556 1480 l 1
 890 1480 1142 1190 1142 740 c 0
 1142 290 890 0 556 0 c 1
EndSplineSet
Substitution2: "sous-table 'c2sc' Capitales vers petites capitales dans Latin lookup 0" d.sc
Colour: ffff
EndChar

StartChar: B
Encoding: 66 66 38
Width: 1074
Flags: MW
AnchorPoint: "bottom_center" 513 0 basechar 0
AnchorPoint: "top_center" 513 1380 basechar 0
LayerCount: 4
Fore
SplineSet
555 1480 m 1
 749 1480 917 1362 917 1142 c 0
 917 922 749 804 555 804 c 1
 555 846 l 1
 745 846 871 962 871 1142 c 0
 871 1322 745 1438 555 1438 c 9
 186 1438 l 1
 186 1480 l 25
 555 1480 l 1
186 42 m 25
 555 42 l 17
 780 42 928 223 928 423 c 0
 928 623 780 804 555 804 c 9
 186 804 l 25
 186 42 l 25
140 1480 m 1
 186 1480 l 25
 186 846 l 1
 555 846 l 1
 779 846 974 678 974 423 c 0
 974 168 779 0 555 0 c 1
 140 0 l 1
 140 1480 l 1
EndSplineSet
Layer: 2
SplineSet
554 1606 m 2
 771.716796875 1606 966 1407.70410156 966 1110 c 0
 966 1035.16308594 943.744140625 968.088867188 906.140625 913.037109375 c 0
 876.09375 869.049804688 836.709960938 833.073242188 792.2578125 805.6796875 c 0
 742.221679688 774.846679688 685.641601562 754.653320312 626.668945312 745.553710938 c 2
 554 734.33984375 l 1
 554 903.033203125 l 1
 605.330078125 912.663085938 l 2
 640.407226562 919.244140625 671.764648438 932.581054688 698.016601562 951.91796875 c 0
 745.7265625 987.061523438 776 1042.94335938 776 1112 c 0
 776 1226.90136719 689.776367188 1312 554 1312 c 2
 272 1312 l 1
 272 1201.75 272 1716.25 272 1606 c 1
 554 1606 l 2
EndSplineSet
Substitution2: "sous-table 'c2sc' Capitales vers petites capitales dans Latin lookup 0" b.sc
Colour: ffff
EndChar

StartChar: T
Encoding: 84 84 39
Width: 1124
Flags: MW
AnchorPoint: "top_center" 562 1380 basechar 0
AnchorPoint: "bottom_center" 562 0 basechar 0
AnchorPoint: "bottom_cedilla" 562 -20 basechar 0
LayerCount: 4
Fore
SplineSet
585 0 m 29
 539 0 l 25
 539 1438 l 25
 70 1438 l 25
 70 1480 l 25
 1054 1480 l 25
 1054 1438 l 25
 585 1438 l 29
 585 0 l 29
EndSplineSet
Substitution2: "sous-table 'c2sc' Capitales vers petites capitales dans Latin lookup 0" t.sc
Colour: ffff
EndChar

StartChar: R
Encoding: 82 82 40
Width: 1090
Flags: MW
AnchorPoint: "bottom_center" 543 0 basechar 0
AnchorPoint: "top_center" 543 1380 basechar 0
LayerCount: 4
Fore
SplineSet
505 643 m 1
 551 652 l 1
 990 0 l 1
 936 0 l 1
 505 643 l 1
186 1438 m 25
 186 676 l 25
 555 676 l 17
 780 676 928 857 928 1057 c 0
 928 1257 780 1438 555 1438 c 9
 186 1438 l 25
140 0 m 1
 140 1480 l 1
 555 1480 l 1
 779 1480 974 1312 974 1057 c 0
 974 802 779 634 555 634 c 1
 186 634 l 1
 186 0 l 25
 140 0 l 1
EndSplineSet
Substitution2: "sous-table 'c2sc' Capitales vers petites capitales dans Latin lookup 0" r.sc
Colour: ffff
EndChar

StartChar: C
Encoding: 67 67 41
Width: 1356
Flags: MW
AnchorPoint: "bottom_cedilla" 717 -20 basechar 0
AnchorPoint: "bottom_center" 717 0 basechar 0
AnchorPoint: "top_center" 717 1380 basechar 0
LayerCount: 4
Fore
SplineSet
1216 1097 m 1
 1109 1332 900 1448 717 1448 c 0
 457 1448 146 1215 146 740 c 0
 146 265 457 32 717 32 c 0
 900 32 1109 148 1216 383 c 1
 1256 360 l 1
 1152 132 952 -10 717 -10 c 0
 369 -10 100 301 100 740 c 0
 100 1179 369 1490 717 1490 c 0
 952 1490 1152 1348 1256 1120 c 1
 1216 1097 l 1
EndSplineSet
Substitution2: "sous-table 'c2sc' Capitales vers petites capitales dans Latin lookup 0" c.sc
Colour: ffff
EndChar

StartChar: G
Encoding: 71 71 42
Width: 1402
Flags: HMW
AnchorPoint: "top_center" 717 1380 basechar 0
AnchorPoint: "bottom_center" 717 0 basechar 0
LayerCount: 4
Fore
SplineSet
1216 1097 m 5
 1109 1332 900 1448 717 1448 c 0
 457 1448 146 1215 146 740 c 0
 146 265 457 32 717 32 c 0
 900 32 1109 148 1216 383 c 1
 1256 360 l 1
 1152 132 952 -10 717 -10 c 0
 369 -10 100 301 100 740 c 0
 100 1179 369 1490 717 1490 c 0
 952 1490 1152 1348 1256 1120 c 1
 1216 1097 l 5
641 740 m 25
 1262 740 l 25
 1262 0 l 25
 1216 0 l 17
 1216 327 l 1
 1216 353 l 1
 1216 698 l 9
 641 698 l 25
 641 740 l 25
EndSplineSet
Substitution2: "sous-table 'c2sc' Capitales vers petites capitales dans Latin lookup 0" g.sc
Substitution2: "'ss03' Simplified G and I lookups0-1" G.ss03
Colour: ffff
EndChar

StartChar: Q
Encoding: 81 81 43
Width: 1434
Flags: HMW
AnchorPoint: "bottom_center" 717 0 basechar 0
AnchorPoint: "top_center" 717 1380 basechar 0
LayerCount: 4
Fore
SplineSet
146 740 m 0
 146 265 457 32 717 32 c 0
 977 32 1288 265 1288 740 c 0
 1288 1215 977 1448 717 1448 c 0
 457 1448 146 1215 146 740 c 0
100 740 m 0
 100 1179 369 1490 717 1490 c 0
 1065 1490 1334 1179 1334 740 c 0
 1334 301 1065 -10 717 -10 c 0
 369 -10 100 301 100 740 c 0
1334 16 m 1
 1302 -16 l 1
 786 501 l 1
 818 533 l 1
 1334 16 l 1
EndSplineSet
Substitution2: "sous-table 'c2sc' Capitales vers petites capitales dans Latin lookup 0" q.sc
Colour: ffff
EndChar

StartChar: U
Encoding: 85 85 44
Width: 1264
Flags: MW
AnchorPoint: "bottom_right" 747 0 basechar 0
AnchorPoint: "bottom_center" 632 0 basechar 0
AnchorPoint: "top_right" 1124 1480 basechar 0
AnchorPoint: "top_center" 632 1380 basechar 0
LayerCount: 4
Fore
SplineSet
186 1480 m 25
 186 528 l 17
 186 178 392 32 632 32 c 0
 872 32 1078 178 1078 528 c 9
 1078 1480 l 25
 1124 1480 l 25
 1124 528 l 17
 1124 168 929 -10 632 -10 c 0
 335 -10 140 168 140 528 c 9
 140 1480 l 25
 186 1480 l 25
EndSplineSet
Substitution2: "sous-table 'c2sc' Capitales vers petites capitales dans Latin lookup 0" u.sc
Colour: ffff
EndChar

StartChar: M
Encoding: 77 77 45
Width: 1432
VWidth: 1000
Flags: MW
AnchorPoint: "top_center" 716 1380 basechar 0
AnchorPoint: "bottom_center" 716 0 basechar 0
LayerCount: 4
Fore
SplineSet
712 230 m 1
 1246 1480 l 1
 1266 1422 l 1
 730 160 l 1
 693 160 l 1
 166 1422 l 1
 186 1480 l 1
 712 230 l 1
1292 1480 m 1
 1292 0 l 1
 1246 0 l 1
 1246 1426 l 25
 1246 1480 l 1
 1292 1480 l 1
140 1480 m 1
 186 1480 l 1
 186 1414 l 1
 186 0 l 1
 140 0 l 1
 140 1480 l 1
EndSplineSet
Substitution2: "sous-table 'c2sc' Capitales vers petites capitales dans Latin lookup 0" m.sc
Colour: ffff
EndChar

StartChar: Z
Encoding: 90 90 46
Width: 1239
VWidth: 1000
Flags: MW
AnchorPoint: "top_center" 659 1380 basechar 0
AnchorPoint: "bottom_center" 659 0 basechar 0
LayerCount: 4
Fore
SplineSet
231 0 m 1
 201 38 l 1
 1051 1480 l 1
 1081 1442 l 1
 231 0 l 1
225 42 m 1
 1099 42 l 1
 1099 0 l 1
 773 0 527 0 201 0 c 1
 201 38 l 1
 225 42 l 1
219 1480 m 1
 545 1480 755 1480 1081 1480 c 1
 1081 1442 l 1
 1056 1438 l 1
 219 1438 l 1
 219 1480 l 1
EndSplineSet
Layer: 2
SplineSet
140 900 m 1
 140 900 140 1194.34960938 140 1103 c 1
 859 1103 l 1
 859 1194.34960938 859 900 859 900 c 1
 140 900 l 1
EndSplineSet
Substitution2: "sous-table 'c2sc' Capitales vers petites capitales dans Latin lookup 0" z.sc
Colour: ffff
EndChar

StartChar: X
Encoding: 88 88 47
Width: 1302
VWidth: 1000
Flags: MW
AnchorPoint: "bottom_center" 651 0 basechar 0
AnchorPoint: "top_center" 651 1380 basechar 0
LayerCount: 4
Fore
SplineSet
649 697 m 1
 154 0 l 1
 100 0 l 1
 622 740 l 1
 100 1480 l 1
 154 1480 l 1
 651 778 l 1
 1148 1480 l 1
 1202 1480 l 1
 680 740 l 5
 1202 0 l 1
 1148 0 l 1
 649 697 l 1
EndSplineSet
Substitution2: "sous-table 'c2sc' Capitales vers petites capitales dans Latin lookup 0" x.sc
Colour: ffff
EndChar

StartChar: Y
Encoding: 89 89 48
Width: 1302
VWidth: 1000
Flags: HMW
AnchorPoint: "top_left" 100 1480 basechar 0
AnchorPoint: "bottom_center" 651 0 basechar 0
AnchorPoint: "top_center" 651 1380 basechar 0
LayerCount: 4
Back
SplineSet
649 617.358398438 m 1
 1059 0 l 1
 1275 0 l 1
 785 740 l 1
 1275 1480 l 1
 1059 1480 l 1
 651 858 l 1
 235 1480 l 1
 19 1480 l 1
 526 740 l 1
 18 0 l 1
 235 0 l 1
 649 617.358398438 l 1
EndSplineSet
Fore
SplineSet
628 0 m 1
 628 740 l 1
 674 740 l 1
 674 0 l 1
 628 0 l 1
665 719 m 1
 639 716 l 1
 100 1480 l 1
 154 1480 l 1
 651 778 l 1
 1148 1480 l 1
 1202 1480 l 1
 665 719 l 1
EndSplineSet
Substitution2: "sous-table 'c2sc' Capitales vers petites capitales dans Latin lookup 0" y.sc
Colour: ffff
EndChar

StartChar: W
Encoding: 87 87 49
Width: 1792
VWidth: 1000
Flags: MW
AnchorPoint: "top_center" 911 1380 basechar 0
AnchorPoint: "bottom_center" 911 0 basechar 0
LayerCount: 4
Fore
SplineSet
1303 72 m 1
 1673 1480 l 1
 1722 1480 l 1
 1329 0 l 1
 1276 0 l 1
 911 1418 l 1
 546 0 l 1
 493 0 l 1
 100 1480 l 1
 149 1480 l 1
 520 72 l 5
 885 1480 l 1
 937 1480 l 1
 1303 72 l 1
EndSplineSet
Substitution2: "sous-table 'c2sc' Capitales vers petites capitales dans Latin lookup 0" w.sc
Colour: ffff
EndChar

StartChar: J
Encoding: 74 74 50
Width: 1016
VWidth: 1000
Flags: MW
AnchorPoint: "top_center" 893 1380 basechar 0
AnchorPoint: "bottom_center" 508 0 basechar 0
LayerCount: 4
Fore
SplineSet
147 446.999023438 m 1
 146 440.999023438 146 437.999023438 146 433.999023438 c 0
 146 145.999023438 340 32 508 32 c 0
 676 32 870 146 870 434 c 9
 870 1480 l 1
 916 1480 l 1
 916 434 l 17
 916 154 746 -10 508 -10 c 0
 270 -10 100 154 100 433.999023438 c 0
 147 446.999023438 l 1
EndSplineSet
Substitution2: "sous-table 'c2sc' Capitales vers petites capitales dans Latin lookup 0" j.sc
Colour: ffff
EndChar

StartChar: K
Encoding: 75 75 51
Width: 1258
Flags: MW
AnchorPoint: "top_center" 632 1380 basechar 0
AnchorPoint: "bottom_center" 632 0 basechar 0
LayerCount: 4
Back
SplineSet
1170 0 m 1
 978 0 l 1
 -35 1480 l 1
 157 1480 l 1
 1170 0 l 1
EndSplineSet
Fore
SplineSet
464 807 m 5
 494 841 l 5
 1158 0 l 1
 1104 0 l 1
 464 807 l 5
186 508 m 1
 186 0 l 1
 140 0 l 1
 140 1480 l 1
 186 1480 l 1
 186 568 l 1
 1098 1480 l 1
 1151 1480 1105 1480 1158 1480 c 1
 186 508 l 1
EndSplineSet
Substitution2: "sous-table 'c2sc' Capitales vers petites capitales dans Latin lookup 0" k.sc
Colour: ffff
EndChar

StartChar: S
Encoding: 83 83 52
Width: 1095
VWidth: 1000
Flags: HMW
AnchorPoint: "top_center" 546 1380 basechar 0
AnchorPoint: "bottom_center" 546 0 basechar 0
LayerCount: 4
Fore
SplineSet
546 1448 m 4
 361 1448 183 1364 183 1124 c 4
 183 884 393 816 546 769 c 4
 814 688 995 616 995 356 c 4
 995 96 815 -10 546 -10 c 4
 285 -10 105 143 100 381 c 5
 146 394 l 4
 146 161 321 32 546 32 c 4
 740 32 949 106 949 356 c 4
 949 606 747 660 546 721 c 4
 278 803 137 894 137 1124 c 4
 137 1354 290 1490 546 1490 c 4
 807 1490 967 1347 972 1109 c 5
 926 1096 l 4
 926 1329 771 1448 546 1448 c 4
EndSplineSet
Substitution2: "sous-table 'c2sc' Capitales vers petites capitales dans Latin lookup 0" s.sc
Colour: ffff
EndChar

StartChar: eight
Encoding: 56 56 53
Width: 1158
VWidth: 1000
Flags: MW
LayerCount: 4
Back
SplineSet
302 1094 m 0
 302 1231 404 1332 579 1332 c 0
 754 1332 856 1231 856 1094 c 0
 856 957 754 856 579 856 c 4
 404 856 302 957 302 1094 c 0
112 1098 m 0
 112 875 304 696 579 696 c 4
 854 696 1046 875 1046 1098 c 0
 1046 1321 854 1500 579 1500 c 0
 304 1500 112 1321 112 1098 c 0
259 422 m 4
 259 578 379 696 579 696 c 4
 779 696 901 578 901 422 c 4
 901 266 779 148 579 148 c 4
 379 148 259 266 259 422 c 4
69 418 m 4
 69 175 279 -20 579 -20 c 4
 879 -20 1091 175 1091 418 c 4
 1091 661 879 856 579 856 c 4
 279 856 69 661 69 418 c 4
EndSplineSet
Fore
SplineSet
128 390 m 4
 128 633 327 752 441 776 c 1
 332 790 168 903 168 1126 c 0
 168 1349 337 1490 579 1490 c 0
 821 1490 990 1349 990 1126 c 0
 990 903 826 790 717 776 c 1
 831 752 1030 633 1030 390 c 0
 1030 147 843 -10 579 -10 c 0
 315 -10 128 147 128 390 c 4
214 1122 m 0
 214 927 379 796 579 796 c 0
 779 796 944 927 944 1122 c 0
 944 1327 779 1448 579 1448 c 0
 379 1448 214 1327 214 1122 c 0
579 756 m 0
 393 756 174 627 174 394 c 0
 174 161 354 32 579 32 c 0
 804 32 984 161 984 394 c 0
 984 627 765 756 579 756 c 0
EndSplineSet
Substitution2: "'ss02' Alternative numbers set 2 lookups0-1" eight.cv18
Substitution2: "'ss01' Alternative numbers set 1 lookups0-1" eight.cv08
Substitution2: "sous-table 'sups' Exposant lookups0" eight.superior
Substitution2: "'cv18' Alternative digit 8 2-1" eight.cv18
Substitution2: "'cv08' Alternative digit 8 1-1" eight.cv08
Substitution2: "'dnom' D+AOkA-nominateurs lookups0-1" eight.dnom
Substitution2: "sous-table 'subs' Indice lookups0" eight.subscript
Substitution2: "'numr' Numerators lookups0-1" eight.numr
Substitution2: "'tnum' Tabular Numbers lookups0-1" eight.tnum
Substitution2: "'onum' Oldstyle Figures lookups0-1" eight.onum
Substitution2: "'pnum' Proportional Numbers lookups0-1" eight.pnum
Colour: ffff
EndChar

StartChar: six
Encoding: 54 54 54
Width: 1158
VWidth: 1000
Flags: HMW
LayerCount: 4
Fore
SplineSet
676 1490 m 0
 911 1490 1007 1360 1007 1360 c 1
 985 1322 l 1
 985 1322 892 1448 660 1448 c 0
 404 1448 157 1206 157 706 c 0
 157 316 259 222 259 222 c 1
 205 227 l 1
 205 227 111 366 111 706 c 0
 111 1226 359 1490 676 1490 c 0
189 483 m 0
 189 251 338 32 595 32 c 0
 852 32 1001 251 1001 483 c 0
 1001 715 842 934 595 934 c 0
 348 934 189 715 189 483 c 0
143 483 m 13
 153 483 l 21
 153 774 348 976 595 976 c 0
 842 976 1047 774 1047 483 c 0
 1047 192 842 -10 595 -10 c 0
 348 -10 143 192 143 483 c 13
EndSplineSet
Substitution2: "'ss02' Alternative numbers set 2 lookups0-1" six.cv16
Substitution2: "'ss01' Alternative numbers set 1 lookups0-1" six.cv06
Substitution2: "'pnum' Proportional Numbers lookups0-1" six.pnum
Substitution2: "sous-table 'sups' Exposant lookups0" six.superior
Substitution2: "'cv16' Alternative digit 6 2-1" six.cv16
Substitution2: "'cv06' Alternative digit 6 1-1" six.cv06
Substitution2: "'dnom' D+AOkA-nominateurs lookups0-1" six.dnom
Substitution2: "sous-table 'subs' Indice lookups0" six.subscript
Substitution2: "'numr' Numerators lookups0-1" six.numr
Substitution2: "'tnum' Tabular Numbers lookups0-1" six.tnum
Substitution2: "'onum' Oldstyle Figures lookups0-1" six.onum
Colour: ffff
EndChar

StartChar: nine
Encoding: 57 57 55
Width: 1158
VWidth: 1000
Flags: HMW
LayerCount: 4
Fore
SplineSet
482 -10 m 0
 247 -10 151 120 151 120 c 1
 173 158 l 1
 173 158 266 32 498 32 c 0
 754 32 1001 274 1001 774 c 0
 1001 1164 899 1258 899 1258 c 1
 953 1253 l 1
 953 1253 1047 1114 1047 774 c 0
 1047 254 799 -10 482 -10 c 0
969 997 m 0
 969 1229 820 1448 563 1448 c 0
 306 1448 157 1229 157 997 c 0
 157 765 316 546 563 546 c 0
 810 546 969 765 969 997 c 0
1015 997 m 9
 1005 997 l 17
 1005 706 810 504 563 504 c 0
 316 504 111 706 111 997 c 0
 111 1288 316 1490 563 1490 c 0
 810 1490 1015 1288 1015 997 c 9
EndSplineSet
Substitution2: "'ss02' Alternative numbers set 2 lookups0-1" nine.cv19
Substitution2: "'ss01' Alternative numbers set 1 lookups0-1" nine.cv09
Substitution2: "sous-table 'sups' Exposant lookups0" nine.superior
Substitution2: "'cv19' Alternative digit 9 2-1" nine.cv19
Substitution2: "'cv09' Alternative digit 9 1-1" nine.cv09
Substitution2: "'dnom' D+AOkA-nominateurs lookups0-1" nine.dnom
Substitution2: "sous-table 'subs' Indice lookups0" nine.subscript
Substitution2: "'numr' Numerators lookups0-1" nine.numr
Substitution2: "'tnum' Tabular Numbers lookups0-1" nine.tnum
Substitution2: "'onum' Oldstyle Figures lookups0-1" nine.onum
Substitution2: "'pnum' Proportional Numbers lookups0-1" nine.pnum
Colour: ffff
EndChar

StartChar: three
Encoding: 51 51 56
Width: 1158
VWidth: 1000
Flags: MW
LayerCount: 4
Fore
SplineSet
576 796 m 6
 776 796 929 927 929 1122 c 0
 929 1327 776 1448 576 1448 c 0
 351 1448 196 1319 196 1086 c 0
 150 1099 l 1
 155 1337 315 1490 576 1490 c 0
 818 1490 975 1349 975 1126 c 0
 975 903 823 790 714 776 c 1
 828 752 1027 633 1027 390 c 0
 1027 147 840 -10 576 -10 c 0
 315 -10 136 143 131 381 c 1
 177 394 l 0
 177 161 351 32 576 32 c 0
 801 32 981 161 981 394 c 0
 981 627 762 756 576 756 c 2
 492 756 l 25
 492 796 l 25
 576 796 l 6
EndSplineSet
Substitution2: "'ss02' Alternative numbers set 2 lookups0-1" three.cv13
Substitution2: "'ss01' Alternative numbers set 1 lookups0-1" three.cv03
Substitution2: "'pnum' Proportional Numbers lookups0-1" three.pnum
Substitution2: "sous-table 'sups' Exposant lookups0" three.superior
Substitution2: "'cv13' Alternative digit 3 2-1" three.cv13
Substitution2: "'cv03' Alternative digit 3 1-1" three.cv03
Substitution2: "'onum' Oldstyle Figures lookups0-1" three.onum
Substitution2: "'tnum' Tabular Numbers lookups0-1" three.tnum
Substitution2: "'numr' Numerators lookups0-1" three.numr
Substitution2: "sous-table 'subs' Indice lookups0" three.subscript
Substitution2: "'dnom' D+AOkA-nominateurs lookups0-1" three.dnom
Colour: ffff
EndChar

StartChar: zero
Encoding: 48 48 57
Width: 1158
Flags: MW
LayerCount: 4
Fore
SplineSet
165 740 m 0
 165 274 339 32 579 32 c 0
 819 32 993 274 993 740 c 4
 993 1206 819 1448 579 1448 c 0
 339 1448 165 1206 165 740 c 0
119 740 m 0
 119 1240 315 1490 579 1490 c 0
 843 1490 1039 1240 1039 740 c 4
 1039 240 843 -10 579 -10 c 0
 315 -10 119 240 119 740 c 0
EndSplineSet
Substitution2: "'ss02' Alternative numbers set 2 lookups0-1" zero.cv20
Substitution2: "'ss01' Alternative numbers set 1 lookups0-1" zero.cv10
Substitution2: "'pnum' Proportional Numbers lookups0-1" zero.pnum
Substitution2: "sous-table 'subs' Indice lookups0" zero.subscript
Substitution2: "'cv20' Alternative digit 0 2-1" zero.cv20
Substitution2: "'cv10' Alternative digit 0 1-1" zero.cv10
Substitution2: "'zero' Slashed Zero lookups0-1" zero.zero
Substitution2: "'onum' Oldstyle Figures lookups0-1" zero.onum
Substitution2: "'tnum' Tabular Numbers lookups0-1" zero.tnum
Substitution2: "'numr' Numerators lookups0-1" zero.numr
Substitution2: "'dnom' D+AOkA-nominateurs lookups0-1" zero.dnom
Substitution2: "sous-table 'sups' Exposant lookups0" zero.superior
Colour: ffff
EndChar

StartChar: two
Encoding: 50 50 58
Width: 1158
VWidth: 1000
Flags: HMW
LayerCount: 4
Fore
SplineSet
197 987 m 1
 150 1000 l 0
 150 1300 333 1490 579 1490 c 0
 825 1490 1008 1320 1008 1040 c 0
 962 1040 l 0
 962 1280 809 1448 579 1448 c 0
 345 1448 196 1258 196 1000 c 0
 196 996 196 993 197 987 c 1
143 0 m 1
 143 116 146 303 579 553 c 0
 856 713 962 824 962 1040 c 1
 1008 1040 l 1
 1008 760 799.741215171 627.445 579 500 c 4
 359.029547439 373 189 230 189 0 c 5
 140 0 192 0 143 0 c 1
163 42 m 1
 1015 42 l 1
 1015 0 l 1
 189 0 l 1
 163 42 l 1
EndSplineSet
Substitution2: "'ss02' Alternative numbers set 2 lookups0-1" two.cv12
Substitution2: "'ss01' Alternative numbers set 1 lookups0-1" two.cv02
Substitution2: "'pnum' Proportional Numbers lookups0-1" two.pnum
Substitution2: "sous-table 'sups' Exposant lookups0" two.superior
Substitution2: "'cv12' Alternative digit 2 2-1" two.cv12
Substitution2: "'cv02' Alternative digit 2 1-1" two.cv02
Substitution2: "'dnom' D+AOkA-nominateurs lookups0-1" two.dnom
Substitution2: "sous-table 'subs' Indice lookups0" two.subscript
Substitution2: "'onum' Oldstyle Figures lookups0-1" two.onum
Substitution2: "'tnum' Tabular Numbers lookups0-1" two.tnum
Substitution2: "'numr' Numerators lookups0-1" two.numr
Colour: ffff
EndChar

StartChar: seven
Encoding: 55 55 59
Width: 1158
Flags: MW
LayerCount: 4
Fore
SplineSet
951 1438 m 5
 1011 1442 l 1
 1011 1442 524 837 460 0 c 1
 408 0 466 0 414 0 c 1
 476 840 951 1438 951 1438 c 5
147 1438 m 1
 147 1480 l 1
 1011 1480 l 1
 1011 1442 l 1
 981 1438 l 1
 147 1438 l 1
EndSplineSet
Substitution2: "'ss02' Alternative numbers set 2 lookups0-1" seven.cv17
Substitution2: "'ss01' Alternative numbers set 1 lookups0-1" seven.cv07
Substitution2: "'pnum' Proportional Numbers lookups0-1" seven.pnum
Substitution2: "sous-table 'sups' Exposant lookups0" seven.superior
Substitution2: "'cv17' Alternative digit 7 2-1" seven.cv17
Substitution2: "'cv07' Alternative digit 7 1-1" seven.cv07
Substitution2: "'dnom' D+AOkA-nominateurs lookups0-1" seven.dnom
Substitution2: "sous-table 'subs' Indice lookups0" seven.subscript
Substitution2: "'numr' Numerators lookups0-1" seven.numr
Substitution2: "'tnum' Tabular Numbers lookups0-1" seven.tnum
Substitution2: "'onum' Oldstyle Figures lookups0-1" seven.onum
Colour: ffff
EndChar

StartChar: four
Encoding: 52 52 60
Width: 1158
Flags: MW
LayerCount: 4
Fore
SplineSet
147 425 m 5
 625 1480 l 1
 677 1480 l 1
 195 425 l 1
 719 425 l 1
 719 808 l 1
 765 808 l 1
 765 425 l 1
 1011 425 l 1
 1011 383 l 1
 765 383 l 1
 765 0 l 1
 719 0 l 1
 719 383 l 1
 147 383 l 1
 147 425 l 5
EndSplineSet
Substitution2: "'ss02' Alternative numbers set 2 lookups0-1" four.cv14
Substitution2: "'ss01' Alternative numbers set 1 lookups0-1" four.cv04
Substitution2: "'pnum' Proportional Numbers lookups0-1" four.pnum
Substitution2: "sous-table 'sups' Exposant lookups0" four.superior
Substitution2: "'cv14' Alternative digit 4 2-1" four.cv14
Substitution2: "'cv04' Alternative digit 4 1-1" four.cv04
Substitution2: "'dnom' D+AOkA-nominateurs lookups0-1" four.dnom
Substitution2: "sous-table 'subs' Indice lookups0" four.subscript
Substitution2: "'numr' Numerators lookups0-1" four.numr
Substitution2: "'tnum' Tabular Numbers lookups0-1" four.tnum
Substitution2: "'onum' Oldstyle Figures lookups0-1" four.onum
Colour: ffff
EndChar

StartChar: five
Encoding: 53 53 61
Width: 1158
VWidth: 1000
Flags: MW
LayerCount: 4
Fore
SplineSet
202 706 m 5
 164 718 l 1
 236 877 351 976 576 976 c 0
 823 976 1028 774 1028 483 c 0
 1028 192 837 -10 576 -10 c 0
 315 -10 135 143 130 381 c 1
 176 394 l 0
 176 161 351 32 576 32 c 0
 833 32 980 251 980 483 c 0
 980 715 823 934 576 934 c 0
 329 934 256 797 202 706 c 5
202 751 m 1
 164 718 l 1
 158 720 l 1
 266 1480 l 1
 316 1480 261 1480 311 1480 c 1
 202 751 l 1
283 1438 m 1
 311 1480 l 1
 968 1480 l 1
 968 1438 l 1
 283 1438 l 1
EndSplineSet
Substitution2: "'ss02' Alternative numbers set 2 lookups0-1" five.cv15
Substitution2: "'ss01' Alternative numbers set 1 lookups0-1" five.cv05
Substitution2: "'pnum' Proportional Numbers lookups0-1" five.pnum
Substitution2: "sous-table 'sups' Exposant lookups0" five.superior
Substitution2: "'cv15' Alternative digit 5 2-1" five.cv15
Substitution2: "'cv05' Alternative digit 5 1-1" five.cv05
Substitution2: "'dnom' D+AOkA-nominateurs lookups0-1" five.dnom
Substitution2: "sous-table 'subs' Indice lookups0" five.subscript
Substitution2: "'numr' Numerators lookups0-1" five.numr
Substitution2: "'tnum' Tabular Numbers lookups0-1" five.tnum
Substitution2: "'onum' Oldstyle Figures lookups0-1" five.onum
Colour: ffff
EndChar

StartChar: one
Encoding: 49 49 62
Width: 1158
Flags: MW
LayerCount: 4
Fore
SplineSet
620 1084 m 1
 285 1084 l 1
 285 1126 l 1
 429 1126 l 2
 596 1126 620 1154 620 1336 c 2
 620 1480 l 1
 666 1480 l 1
 666 1040 l 1
 666 0 l 1
 620 0 l 1
 620 1084 l 1
EndSplineSet
Substitution2: "'ss09' Bar below digit 1-1" one.ss09
Substitution2: "'ss02' Alternative numbers set 2 lookups0-1" one.cv11
Substitution2: "'ss01' Alternative numbers set 1 lookups0-1" one.cv01
Substitution2: "sous-table 'sups' Exposant lookups0" one.superior
Substitution2: "'cv11' Alternative digit 1 2-1" one.cv11
Substitution2: "'cv01' Alternative digit 1 1-1" one.cv01
Substitution2: "'dnom' D+AOkA-nominateurs lookups0-1" one.dnom
Substitution2: "'pnum' Proportional Numbers lookups0-1" one.pnum
Substitution2: "'onum' Oldstyle Figures lookups0-1" one.onum
Substitution2: "'tnum' Tabular Numbers lookups0-1" one.tnum
Substitution2: "'numr' Numerators lookups0-1" one.numr
Substitution2: "sous-table 'subs' Indice lookups0" one.subscript
Colour: ffff
EndChar

StartChar: period
Encoding: 46 46 63
Width: 408
VWidth: 1000
Flags: HMW
LayerCount: 4
Fore
SplineSet
140 54 m 4
 140 90 168 118 204 118 c 0
 240 118 268 90 268 54 c 0
 268 18 240 -10 204 -10 c 0
 168 -10 140 18 140 54 c 4
EndSplineSet
Colour: ff00
EndChar

StartChar: comma
Encoding: 44 44 64
Width: 443
VWidth: 1000
Flags: HMW
LayerCount: 4
Back
SplineSet
179 -150 m 4xf0
 179 -80 235 -20 305 -20 c 4
 375 -20 433 -80 433 -150 c 4
 433 -220 375 -278 305 -278 c 4
 235 -278 179 -220 179 -150 c 4xf0
EndSplineSet
Fore
SplineSet
140 54 m 0
 140 90 168 118 204 118 c 0
 240 118 278 90 278 54 c 0
 278 18 240 -10 204 -10 c 0
 168 -10 140 18 140 54 c 0
140 -204 m 1
 190 -191 257 -130 257 -40 c 0
 257 40 204 73 204 73 c 1
 204 118 l 1
 266 118 303 40 303 -40 c 0
 303 -150 220 -226 152 -246 c 1
 140 -204 l 1
EndSplineSet
Colour: ff00
EndChar

StartChar: colon
Encoding: 58 58 65
Width: 408
VWidth: 1000
Flags: HMW
LayerCount: 4
Fore
SplineSet
140 931 m 4
 140 967 168 995 204 995 c 4
 240 995 268 967 268 931 c 4
 268 895 240 867 204 867 c 4
 168 867 140 895 140 931 c 4
140 54 m 4
 140 90 168 118 204 118 c 4
 240 118 268 90 268 54 c 4
 268 18 240 -10 204 -10 c 4
 168 -10 140 18 140 54 c 4
EndSplineSet
Colour: ff00
EndChar

StartChar: semicolon
Encoding: 59 59 66
Width: 443
VWidth: 1000
Flags: HMW
LayerCount: 4
Fore
SplineSet
140 54 m 4
 140 90 168 118 204 118 c 0
 240 118 268 90 268 54 c 0
 268 18 240 -10 204 -10 c 0
 168 -10 140 18 140 54 c 4
140 -204 m 1
 190 -191 257 -130 257 -40 c 0
 257 40 204 73 204 73 c 1
 204 118 l 1
 266 118 303 40 303 -40 c 0
 303 -150 220 -226 152 -246 c 1
 140 -204 l 1
140 931 m 0
 140 967 168 995 204 995 c 0
 240 995 268 967 268 931 c 0
 268 895 240 867 204 867 c 0
 168 867 140 895 140 931 c 0
EndSplineSet
Colour: ff00
EndChar

StartChar: slash
Encoding: 47 47 67
Width: 822
VWidth: 1000
Flags: HMW
LayerCount: 4
Fore
SplineSet
752 1640 m 5
 118 -200 l 5
 70 -200 l 1
 704 1640 l 1
 752 1640 l 5
EndSplineSet
Colour: ff00
EndChar

StartChar: parenleft
Encoding: 40 40 68
Width: 681
Flags: HMW
LayerCount: 4
Fore
SplineSet
100 659.999023438 m 4
 100 1300.99902344 476 1605 608 1660 c 1
 630 1625 l 17
 491 1568 145 1260.99902344 145 659.999023438 c 0
 145 59.9990234375 492 -249.000976562 631 -306.000976562 c 9
 609 -341.000976562 l 1
 477 -286.000976562 100 19.9990234375 100 659.999023438 c 4
EndSplineSet
Colour: ff00
EndChar

StartChar: exclam
Encoding: 33 33 69
Width: 408
VWidth: 1000
Flags: HMW
LayerCount: 4
Fore
SplineSet
140 54 m 4
 140 90 168 118 204 118 c 0
 240 118 268 90 268 54 c 0
 268 18 240 -10 204 -10 c 0
 168 -10 140 18 140 54 c 4
  Spiro
    140 54 o
    148.576 86.5641 o
    171.436 109.424 o
    204 118 o
    236.564 109.424 o
    259.424 86.5641 o
    268 54 o
    259.424 21.4359 o
    236.564 -1.42384 o
    204 -10 o
    171.436 -1.42384 o
    148.576 21.4359 o
    0 0 z
  EndSpiro
177 1480 m 1
 231 1480 l 1
 227 452 l 1
 181 452 l 1
 177 1480 l 1
  Spiro
    177 1480 v
    231 1480 v
    227 452 v
    181 452 v
    0 0 z
  EndSpiro
EndSplineSet
Colour: ff00
EndChar

StartChar: question
Encoding: 63 63 70
Width: 1023
VWidth: 1000
Flags: HMW
LayerCount: 4
Fore
SplineSet
508 1450 m 4
 356 1450 146 1334 146 1046 c 0
 146 1042 146 1039 147 1033 c 1
 100 1046 l 0
 100 1326 290 1490 508 1490 c 0
 726 1490 923 1350 923 1080 c 0
 923 810 712 670 508 670 c 0
 508 710 l 0
 655 710 878 812 878 1080 c 0
 878 1348 660 1450 508 1450 c 4
448 54 m 0
 448 90 476 118 512 118 c 0
 548 118 576 90 576 54 c 0
 576 18 548 -10 512 -10 c 0
 476 -10 448 18 448 54 c 0
485 452 m 1
 485 710 l 1
 531 710 l 1
 531 452 l 1
 485 452 l 1
EndSplineSet
Colour: ff00
EndChar

StartChar: quotesingle
Encoding: 39 39 71
Width: 326
Flags: HMW
LayerCount: 4
Fore
SplineSet
143 968 m 25
 140 1480 l 25
 186 1480 l 25
 183 968 l 25
 143 968 l 25
EndSplineSet
Colour: ff00
EndChar

StartChar: quotedbl
Encoding: 34 34 72
Width: 532
Flags: HMW
LayerCount: 4
Fore
SplineSet
349 968 m 25
 346 1480 l 25
 392 1480 l 25
 389 968 l 25
 349 968 l 25
143 968 m 25
 140 1480 l 25
 186 1480 l 25
 183 968 l 25
 143 968 l 25
EndSplineSet
Colour: ff00
EndChar

StartChar: bracketleft
Encoding: 91 91 73
Width: 780
Flags: HMW
LayerCount: 4
Fore
SplineSet
710 1600 m 25
 185 1600 l 25
 185 -280 l 29
 710 -280 l 29
 710 -320 l 25
 140 -320 l 25
 140 1640 l 25
 710 1640 l 25
 710 1600 l 25
EndSplineSet
Colour: ff00
EndChar

StartChar: bracketright
Encoding: 93 93 74
Width: 780
Flags: HMW
LayerCount: 4
Fore
SplineSet
70 1600 m 29
 70 1640 l 29
 640 1640 l 25
 640 -320 l 25
 70 -320 l 25
 70 -280 l 25
 595 -280 l 25
 595 1600 l 25
 70 1600 l 29
EndSplineSet
Colour: ff00
EndChar

StartChar: parenright
Encoding: 41 41 75
Width: 681
Flags: HMW
LayerCount: 4
Fore
SplineSet
581 660 m 4
 581 20 204 -286 72 -341 c 1
 50 -306 l 17
 189 -249 536 60 536 660 c 0
 536 1261 190 1568 51 1625 c 9
 73 1660 l 1
 205 1605 581 1301 581 660 c 4
EndSplineSet
Colour: ff00
EndChar

StartChar: braceleft
Encoding: 123 123 76
Width: 679
VWidth: 1000
Flags: HMW
LayerCount: 4
Fore
SplineSet
377 20 m 2
 377 -160 442 -270 609 -270 c 1
 609 -310 l 1
 415 -310 332 -200 332 20 c 10
 332 350 l 2
 332 530 267 640 100 640 c 1
 100 680 l 1
 294 680 377 570 377 350 c 2
 377 20 l 2
377 1300 m 6
 377 970 l 2
 377 750 294 640 100 640 c 1
 100 680 l 1
 267 680 332 790 332 970 c 2
 332 1300 l 18
 332 1520 415 1630 609 1630 c 1
 609 1590 l 1
 442 1590 377 1480 377 1300 c 6
EndSplineSet
Colour: ff00
EndChar

StartChar: braceright
Encoding: 125 125 77
Width: 679
VWidth: 1000
Flags: HMW
LayerCount: 4
Fore
SplineSet
302 20 m 6
 302 350 l 6
 302 570 385 680 579 680 c 5
 579 640 l 5
 412 640 347 530 347 350 c 6
 347 20 l 22
 347 -200 264 -310 70 -310 c 5
 70 -270 l 5
 237 -270 302 -160 302 20 c 6
302 1300 m 6
 302 1480 237 1590 70 1590 c 5
 70 1630 l 5
 264 1630 347 1520 347 1300 c 14
 347 970 l 6
 347 790 412 680 579 680 c 5
 579 640 l 5
 385 640 302 750 302 970 c 6
 302 1300 l 6
EndSplineSet
Colour: ff00
EndChar

StartChar: backslash
Encoding: 92 92 78
Width: 822
VWidth: 1000
Flags: HMW
LayerCount: 4
Fore
SplineSet
70 1640 m 5
 118 1640 l 1
 752 -200 l 1
 704 -200 l 5
 70 1640 l 5
EndSplineSet
Colour: ff00
EndChar

StartChar: bar
Encoding: 124 124 79
Width: 324
Flags: HMW
LayerCount: 4
Fore
SplineSet
184 1640 m 25
 184 -440 l 25
 140 -440 l 1
 140 1640 l 1
 184 1640 l 25
EndSplineSet
Colour: ff00
EndChar

StartChar: numbersign
Encoding: 35 35 80
Width: 1352
VWidth: 1000
Flags: HMW
LayerCount: 4
Fore
SplineSet
140 500 m 1
 140 540 l 1
 1178 540 l 1
 1178 500 l 1
 140 500 l 1
174 940 m 1
 174 980 l 1
 1212 980 l 1
 1212 940 l 1
 174 940 l 1
945 1480 m 1
 986 1480 l 5
 816 0 l 5
 766 0 824 0 774 0 c 1
 945 1480 l 1
536 1480 m 1
 578 1480 l 5
 407 0 l 5
 357 0 416 0 366 0 c 1
 536 1480 l 1
EndSplineSet
Colour: ff00
EndChar

StartChar: gravecomb
Encoding: 768 768 83
Width: 0
VWidth: 1000
Flags: HMW
AnchorPoint: "circumflex_left" 697 1092 mark 0
AnchorPoint: "top_center" 642 1040 mark 0
LayerCount: 4
Fore
SplineSet
620 1224 m 5
 422 1480 l 1
 478 1480 l 1
 664 1224 l 1
 620 1224 l 5
EndSplineSet
Colour: ffff00
EndChar

StartChar: acutecomb
Encoding: 769 769 84
Width: 0
VWidth: 1000
Flags: HMW
AnchorPoint: "circumflex_right" 587 1092 mark 0
AnchorPoint: "top_center" 642 1040 mark 0
LayerCount: 4
Fore
SplineSet
664 1224 m 5
 620 1224 l 5
 806 1480 l 5
 862 1480 l 5
 664 1224 l 5
EndSplineSet
Colour: ffff00
EndChar

StartChar: uni0302
Encoding: 770 770 85
Width: 0
VWidth: 1000
Flags: HMW
AnchorPoint: "top_center" 642 1040 mark 0
LayerCount: 4
Fore
SplineSet
812 1224 m 5
 614 1480 l 5
 670 1480 l 5
 856 1224 l 5
 812 1224 l 5
472 1224 m 5
 428 1224 l 5
 614 1480 l 5
 670 1480 l 5
 472 1224 l 5
EndSplineSet
Colour: ffff00
EndChar

StartChar: tildecomb
Encoding: 771 771 86
Width: 0
VWidth: 1000
Flags: HMW
AnchorPoint: "top_center" 642 1040 mark 0
LayerCount: 4
Fore
SplineSet
381 1241 m 1
 341 1252 l 1
 355.05379563 1387.99576916 415 1490 510 1490 c 0
 650 1490 658 1274 766 1274 c 0
 818 1274 885.05859375 1330.33007812 895 1480 c 1
 935 1469 l 1
 921 1333 861 1234 766 1234 c 0
 626 1234 618 1450 510 1450 c 0
 458 1450 390.94140625 1390.66992188 381 1241 c 1
EndSplineSet
Colour: ffff00
EndChar

StartChar: uni0308
Encoding: 776 776 87
Width: 0
VWidth: 1000
Flags: HMW
AnchorPoint: "top_center" 642 1040 mark 0
AnchorPoint: "dieresis_center" 641 1350 basechar 0
LayerCount: 4
Fore
SplineSet
737 1352 m 0
 737 1388 765 1416 801 1416 c 0
 837 1416 865 1388 865 1352 c 0
 865 1316 837 1288 801 1288 c 0
 765 1288 737 1316 737 1352 c 0
417 1352 m 0
 417 1388 445 1416 481 1416 c 0
 517 1416 545 1388 545 1352 c 0
 545 1316 517 1288 481 1288 c 0
 445 1288 417 1316 417 1352 c 0
EndSplineSet
Colour: ff00
EndChar

StartChar: uni030A
Encoding: 778 778 88
Width: 0
VWidth: 997
Flags: HMW
AnchorPoint: "top_center" 642 1040 mark 0
LayerCount: 4
Fore
SplineSet
455 1347 m 0
 455 1451 538 1534 642 1534 c 0
 746 1534 829 1451 829 1347 c 0
 829 1243 746 1160 642 1160 c 0
 538 1160 455 1243 455 1347 c 0
500 1347 m 0
 500 1265 560 1200 642 1200 c 0
 724 1200 784 1265 784 1347 c 0
 784 1429 724 1494 642 1494 c 0
 560 1494 500 1429 500 1347 c 0
EndSplineSet
Colour: ffc71c
EndChar

StartChar: ccedilla
Encoding: 231 231 89
Width: 1021
Flags: HMW
LayerCount: 4
Back
SplineSet
483 -220 m 4
 483 -244 504 -263 536 -263 c 4
 568 -263 589 -244 589 -220 c 4
 589 -196 568 -177 536 -177 c 4
 504 -177 483 -196 483 -220 c 4
356 -220 m 4
 356 -130 436 -60 536 -60 c 4
 636 -60 716 -130 716 -220 c 4
 716 -310 636 -380 536 -380 c 4
 436 -380 356 -310 356 -220 c 4
EndSplineSet
Fore
Refer: 90 807 N 1 0 0 1 -104 0 2
Refer: 10 99 N 1 0 0 1 0 0 3
Substitution2: "sous-table 'smcp' Bas-de-casse vers petites capitales dans Latin lookup 0" ccedilla.sc
Colour: ff
EndChar

StartChar: uni0327
Encoding: 807 807 90
Width: 0
VWidth: 1000
Flags: HMW
AnchorPoint: "bottom_cedilla" 642 -20 mark 0
LayerCount: 4
Fore
SplineSet
523 -291 m 1
 560 -269 l 1
 579 -309 619 -330 657 -330 c 0
 709 -330 766 -290 766 -216 c 0
 766 -142 709 -102 657 -102 c 0
 619 -102 598 -123 579 -163 c 1
 543 -141 l 1
 569 -95 597 -62 657 -62 c 0
 747 -62 811 -136 811 -216 c 0
 811 -296 747 -370 657 -370 c 0
 597 -370 549 -337 523 -291 c 1
621 0 m 1
 663 0 l 1
 580 -136 l 1
 579 -163 l 1
 543 -141 l 1
 621 0 l 1
EndSplineSet
Colour: ffc71c
EndChar

StartChar: dotlessi
Encoding: 305 305 141
Width: 325
Flags: HMW
AnchorPoint: "top_center" 163 1040 basechar 0
AnchorPoint: "bottom_center" 163 0 basechar 0
AnchorPoint: "bottom_right" 185 0 basechar 0
LayerCount: 4
Fore
SplineSet
140 0 m 1
 140 1040 l 1
 185 1040 l 5
 185 0 l 5
 140 0 l 1
EndSplineSet
LCarets2: 1 0
Ligature2: "'liga' Soft Dotted i j" i uni030A
Colour: ff00
EndChar

StartChar: dollar
Encoding: 36 36 142
Width: 1220
VWidth: 1000
Flags: HMW
LayerCount: 4
Fore
SplineSet
606 1448 m 0
 421 1448 243 1364 243 1124 c 0
 243 884 453 816 606 769 c 0
 874 688 1055 616 1055 356 c 0
 1055 96 875 -10 606 -10 c 0
 345 -10 165 143 160 381 c 1
 206 394 l 0
 206 161 381 32 606 32 c 0
 800 32 1009 106 1009 356 c 0
 1009 606 807 660 606 721 c 0
 338 803 197 894 197 1124 c 0
 197 1354 350 1490 606 1490 c 0
 867 1490 1027 1347 1032 1109 c 1
 986 1096 l 0
 986 1329 831 1448 606 1448 c 0
629 1660 m 29
 629 -180 l 29
 583 -180 l 5
 583 1660 l 5
 629 1660 l 29
EndSplineSet
Substitution2: "'ss08' Alternative ampersand, dollar and cent lookups0-1" dollar.ss08
Colour: ffff
EndChar

StartChar: plus
Encoding: 43 43 143
Width: 1158
Flags: HMW
LayerCount: 4
Fore
SplineSet
557 1099 m 5
 601 1099 l 5
 601 221 l 17
 557 221 l 1
 557 1099 l 5
140 640 m 1
 140 680 l 1
 1018 680 l 17
 1018 640 l 1
 140 640 l 1
EndSplineSet
Substitution2: "'ss07' Bigger basic math operators lookups0-1" plus.ss07
Colour: ff00
EndChar

StartChar: hyphen
Encoding: 45 45 144
Width: 938
Flags: HMW
LayerCount: 4
Fore
SplineSet
140 640 m 1
 140 680 l 5
 798 680 l 21
 798 640 l 1
 140 640 l 1
EndSplineSet
Substitution2: "'ss07' Bigger basic math operators lookups0-1" hyphen.ss07
Colour: ff00
EndChar

StartChar: equal
Encoding: 61 61 145
Width: 1158
Flags: HMW
LayerCount: 4
Fore
SplineSet
1018 820 m 5
 1018 780 l 5
 140 780 l 17
 140 820 l 1
 1018 820 l 5
140 500 m 1
 140 540 l 1
 1018 540 l 21
 1018 500 l 5
 140 500 l 1
EndSplineSet
Colour: ff00
EndChar

StartChar: percent
Encoding: 37 37 146
Width: 1526
VWidth: 1000
Flags: HMW
LayerCount: 4
Fore
SplineSet
145 1180 m 0
 145 1025 255 910 410 910 c 0
 565 910 675 1025 675 1180 c 0
 675 1335 565 1450 410 1450 c 0
 255 1450 145 1335 145 1180 c 0
100 1180 m 0
 100 1358 232 1490 410 1490 c 0
 588 1490 720 1358 720 1180 c 0
 720 1002 588 870 410 870 c 0
 232 870 100 1002 100 1180 c 0
851 300 m 0
 851 145 961 30 1116 30 c 0
 1271 30 1381 145 1381 300 c 0
 1381 455 1271 570 1116 570 c 0
 961 570 851 455 851 300 c 0
806 300 m 0
 806 478 938 610 1116 610 c 0
 1294 610 1426 478 1426 300 c 0
 1426 122 1294 -10 1116 -10 c 0
 938 -10 806 122 806 300 c 0
1245 1457 m 5
 318 0 l 1
 281 23 l 1
 1208 1480 l 1
 1245 1457 l 5
EndSplineSet
Colour: ff00
EndChar

StartChar: degree
Encoding: 176 176 147
Width: 820
VWidth: 1000
Flags: HMW
LayerCount: 4
Fore
SplineSet
145 1180 m 4
 145 1025 255 910 410 910 c 4
 565 910 675 1025 675 1180 c 4
 675 1335 565 1450 410 1450 c 4
 255 1450 145 1335 145 1180 c 4
100 1180 m 4
 100 1358 232 1490 410 1490 c 4
 588 1490 720 1358 720 1180 c 4
 720 1002 588 870 410 870 c 4
 232 870 100 1002 100 1180 c 4
EndSplineSet
Colour: ff00
EndChar

StartChar: ampersand
Encoding: 38 38 148
Width: 1355
VWidth: 1000
Flags: HMW
LayerCount: 4
Back
SplineSet
1020 600 m 4
 1020 360 880 140 600 140 c 4
 400 140 280 262 280 418 c 4
 100 418 l 4
 100 175 300 -20 600 -20 c 4
 1020 -20 1183 265 1203 550 c 5
 1020 600 l 4
EndSplineSet
Fore
SplineSet
409 875 m 1
 357 937 282 1032 282 1138 c 0
 282 1357 423 1490 609 1490 c 0
 795 1490 937 1352 937 1152 c 0
 892 1152 l 0
 892 1382 715 1450 609 1450 c 0
 514 1450 327 1398 327 1138 c 0
 327 1068 360.865486838 994.925333174 438 903 c 9
 1186 0 l 1
 1154 0 1164 0 1132 0 c 1
 409 875 l 1
209 378 m 5
 209 142 391.89 32 609 32 c 16
 819.09 32 1083 163 1083 586 c 0
 1129 573 l 1
 1129 184.95 870 -10 609 -10 c 0
 345 -10 169 135 169 378 c 0
 169 621 349.192378865 708 609 858 c 0
 738.903810568 933 892 992 892 1152 c 1
 937 1152 l 1
 937 992 790.865334795 913 609 808 c 0
 366.51288694 668 209 601 209 378 c 5
EndSplineSet
Layer: 2
SplineSet
315.7890625 895.231445312 m 5
 260.015625 970.026367188 228 1045.75 228 1148 c 0
 228 1367 400 1500 600 1500 c 0
 800 1500 972 1367 972 1148 c 0
 792 1148 l 0
 792 1268 708 1340 600 1340 c 0
 492 1340 408 1288 408 1148 c 0
 408 1068 423.116210938 1031.30761719 460.055664062 984.02734375 c 5
 315.7890625 895.231445312 l 5
792 1148 m 1
 972 1148 l 1025
EndSplineSet
Layer: 3
SplineSet
459 986 m 1
 316 895 l 1
 1041 0 l 5
 1112.33300781 0 1183.66699219 0 1255 0 c 5
 459 986 l 1
100 418 m 1
 100 661 340.192382812 776 600 926 c 0
 729.904296875 1001 792 1028 792 1148 c 1
 972 1148 l 1
 972 948 799.185546875 855 600 740 c 0
 426.794921875 640 280 561 280 418 c 1
 100 418 l 1
EndSplineSet
Substitution2: "'ss08' Alternative ampersand, dollar and cent lookups0-1" ampersand.ss08
Colour: ff00
EndChar

StartChar: asterisk
Encoding: 42 42 149
Width: 994
Flags: HMW
LayerCount: 4
Back
SplineSet
417 1070 m 21
 497 1070 l 5
 577 1070 l 13
 589 1480 l 29
 405 1480 l 29
 417 1070 l 21
EndSplineSet
Fore
SplineSet
100 1210 m 29
 114 1254 l 25
 503 1125 l 17
 497 1106 l 1
 491 1087 l 9
 100 1210 l 29
276 760 m 25
 238 787 l 25
 481 1117 l 17
 497 1106 l 1
 514 1094 l 9
 276 760 l 25
756 787 m 25
 718 760 l 25
 480 1094 l 17
 497 1106 l 1
 513 1117 l 9
 756 787 l 25
880 1254 m 25
 894 1210 l 25
 503 1087 l 17
 497 1106 l 1
 491 1125 l 9
 880 1254 l 25
474 1516 m 25
 520 1516 l 25
 517 1106 l 17
 497 1106 l 1
 477 1106 l 9
 474 1516 l 25
EndSplineSet
Colour: ff00
EndChar

StartChar: less
Encoding: 60 60 150
Width: 1158
Flags: HMW
LayerCount: 4
Fore
SplineSet
140 637 m 1
 140 683 l 1
 1018 1062 l 1
 1018 1019 l 1
 180 660 l 1
 1018 301 l 5
 1018 258 l 5
 140 637 l 1
EndSplineSet
Colour: ff00
EndChar

StartChar: greater
Encoding: 62 62 151
Width: 1158
Flags: HMW
LayerCount: 4
Fore
SplineSet
1018 637 m 5
 140 258 l 1
 140 301 l 1
 978 660 l 1
 140 1019 l 1
 140 1062 l 1
 1018 683 l 5
 1018 637 l 5
EndSplineSet
Colour: ff00
EndChar

StartChar: at
Encoding: 64 64 152
Width: 2000
VWidth: 1000
Flags: HMW
LayerCount: 4
Back
SplineSet
1237.51367188 580 m 4
 1212.63769531 403 1110.14648438 307 960.146484375 307 c 4
 810.146484375 307 734.637695312 403 759.513671875 580 c 4
 784.389648438 757 886.741210938 852 1036.74121094 852 c 4
 1186.74121094 852 1262.38964844 757 1237.51367188 580 c 4
1399.51367188 580 m 4
 1364.37890625 330 1187.79980469 148 937.799804688 148 c 4
 687.799804688 148 544.37890625 330 579.513671875 580 c 4
 614.6484375 830 809.227539062 1012 1059.22753906 1012 c 4
 1159.22753906 1012 1229.86816406 956.568359375 1278.48632812 900 c 5
 1285.23242188 948 1291.97851562 996 1291.97851562 996 c 5
 1457.97851562 996 l 5
 1457.97851562 996 1450.67089844 944 1439.14648438 862 c 5
 1399.51367188 580 l 4
EndSplineSet
Fore
SplineSet
1000 1490 m 4
 1520 1490 1900 1180 1900 660 c 0
 1855 660 l 0
 1855 1160 1490 1450 1000 1450 c 0
 510 1450 145 1070 145 580 c 0
 145 90 510.000976562 -290 1000.00097656 -290 c 0
 1185.00097656 -290 1344.18359375 -237.90234375 1480.1640625 -144.809570312 c 1
 1503.9375 -185.364257812 l 1
 1362.70214844 -277.508789062 1190.77317333 -330 1000.00097656 -330 c 0
 480 -330 100 60 100 580 c 0
 100 1100 480 1490 1000 1490 c 4
1036 962 m 0
 836 962 648 817 615 579 c 0
 611.801757812 555.931640625 610.255859375 533.74609375 610.255859375 512.489257812 c 0
 610.255859375 304.438476562 744.384765625 197 925 197 c 0
 1125 197 1314 342 1347 580 c 0
 1350.18066406 602.942382812 1351.71777344 625.01171875 1351.71777344 646.162109375 c 0
 1351.71777344 844.423828125 1216.72070312 962 1036 962 c 0
1042 1002 m 0
 1282 1002 1348 858 1375 780 c 1
 1406 986 l 1
 1451 986 l 1
 1392 580 l 0
 1357 330 1171 157 919 157 c 0
 693.94921875 157 564.796875 306.3828125 564.796875 506.577148438 c 0
 564.796875 529.87890625 566.506835938 554.05078125 570 579 c 0
 605 829 792 1002 1042 1002 c 0
1552 148 m 0
 1382.68768591 148 1337.52929688 303.923828125 1337.52929688 447.852539062 c 0
 1337.52929688 495.190429688 1341.765625 541.231445312 1347 580 c 1
 1392 580 l 1
 1387.3046875 531.946289062 1384.89453125 488.680664062 1384.89453125 449.99609375 c 0
 1384.89453125 267.5078125 1444.53589676 187 1565 187 c 0
 1735 187 1855 371 1855 660 c 1
 1900 660 l 1
 1900 360 1792 148 1552 148 c 0
EndSplineSet
Colour: ff00
EndChar

StartChar: asciicircum
Encoding: 94 94 153
Width: 988
VWidth: 1000
Flags: HMW
LayerCount: 4
Fore
SplineSet
841 656 m 1
 495 1430 l 5
 147 656 l 1
 100 656 l 1
 472 1480 l 1
 516 1480 l 1
 888 656 l 1
 841 656 l 1
EndSplineSet
Colour: ff00
EndChar

StartChar: underscore
Encoding: 95 95 154
Width: 1158
Flags: HMW
LayerCount: 4
Fore
SplineSet
0 0 m 1
 1158 0 l 1
 1158 -40 l 5
 0 -40 l 5
 0 0 l 1
EndSplineSet
Colour: ff00
EndChar

StartChar: grave
Encoding: 96 96 155
Width: 442
VWidth: 1000
Flags: HMW
AnchorPoint: "top_center" 320 1040 mark 0
AnchorPoint: "top_left_O2" 509 1224 mark 0
AnchorPoint: "top_left" 522 1480 mark 0
AnchorPoint: "dieresis_center" 320 1140 mark 0
LayerCount: 4
Fore
SplineSet
298 1224 m 1
 100 1480 l 1
 156 1480 l 1
 342 1224 l 1
 298 1224 l 1
EndSplineSet
Colour: ffff00
EndChar

StartChar: asciitilde
Encoding: 126 126 156
Width: 1158
VWidth: 1000
Flags: HMW
LayerCount: 4
Fore
SplineSet
184 517 m 1
 140 530 l 1
 161 725 247 830 390 830 c 0
 582 830 608 522 768 522 c 0
 850 522 959 576 974 795 c 1
 1018 782 l 1
 997 587 911 482 768 482 c 0
 576 482 550 790 390 790 c 0
 308 790 199 736 184 517 c 1
EndSplineSet
Substitution2: "'ss07' Bigger basic math operators lookups0-1" asciitilde.ss07
Colour: ff00
EndChar

StartChar: exclamdown
Encoding: 161 161 157
Width: 408
VWidth: 1000
Flags: HMW
LayerCount: 4
Fore
SplineSet
268 986 m 4
 268 950 240 922 204 922 c 0
 168 922 140 950 140 986 c 0
 140 1022 168 1050 204 1050 c 0
 240 1050 268 1022 268 986 c 4
  Spiro
    268 986 o
    259.424 953.436 o
    236.564 930.576 o
    204 922 o
    171.436 930.576 o
    148.576 953.436 o
    140 986 o
    148.576 1018.56 o
    171.436 1041.42 o
    204 1050 o
    236.564 1041.42 o
    259.424 1018.56 o
    0 0 z
  EndSpiro
231 -440 m 1
 177 -440 l 1
 181 588 l 1
 227 588 l 1
 231 -440 l 1
  Spiro
    231 -440 v
    177 -440 v
    181 588 v
    227 588 v
    0 0 z
  EndSpiro
EndSplineSet
Colour: ff00
EndChar

StartChar: cent
Encoding: 162 162 158
Width: 1021
VWidth: 1000
Flags: HMW
LayerCount: 4
Fore
SplineSet
750 1220 m 29
 370 -180 l 29
 327 -180 l 5
 707 1220 l 5
 750 1220 l 29
145 520 m 0
 145 184 370 30 538 30 c 0
 658 30 806 108 882 274 c 1
 921 252 l 1
 847 90 705 -10 538 -10 c 0
 291 -10 100 208 100 520 c 0
 100 832 291 1050 538 1050 c 0
 705 1050 847 950 921 788 c 1
 882 766 l 1
 806 932 658 1010 538 1010 c 0
 370 1010 145 856 145 520 c 0
EndSplineSet
Substitution2: "'ss08' Alternative ampersand, dollar and cent lookups0-1" cent.ss08
Colour: ff00
EndChar

StartChar: sterling
Encoding: 163 163 159
Width: 1300
VWidth: 1000
Flags: HMW
LayerCount: 4
Fore
SplineSet
358 720 m 1
 726 720 l 1
 726 760 l 1
 358 760 l 1
 136 760 l 1
 136 714 136 766 136 720 c 1
 358 720 l 1
272 1040 m 4
 272 1298 422.879882812 1448 656.879882812 1448 c 0
 890.879882812 1448 1040 1268 1040 1010 c 0
 1040 1006 1040 1003 1039 997 c 1
 1086 1010 l 0
 1086 1310 903 1490 657 1490 c 0
 411 1490 227 1340 227 1040 c 0
 227 768 395 654 395 474 c 0
 395 354 246 112 164 37 c 1
 223 18 l 1
 257.200195312 72 440 280 440 490 c 0
 440 650 272 800 272 1040 c 4
1119 107 m 1
 1079.38551783 76.4927418049 987 30 897 30 c 0
 740 30 690 128 514 128 c 0
 391 128 243 82 164 37 c 1
 175 -10 l 1
 273 44 410 88 514 88 c 0
 671 88 721 -10 897 -10 c 0
 1003 -10 1092 33 1132 60 c 1
 1119 107 l 1
EndSplineSet
Layer: 2
SplineSet
748 1040 m 4
 748 768 856 700 856 520 c 4
 856 400 802 215 748 104 c 5
 929 65 l 5
 964 155 1036 340 1036 540 c 4
 1036 740 928 800 928 1040 c 4
 748 1040 l 4
EndSplineSet
Colour: ff00
EndChar

StartChar: currency
Encoding: 164 164 160
Width: 1320
Flags: HMW
LayerCount: 4
Fore
SplineSet
962 926 m 17
 930 958 l 9
 1140 1168 l 25
 1172 1136 l 25
 962 926 l 17
358 386 m 17
 390 354 l 9
 180 144 l 25
 148 176 l 25
 358 386 l 17
930 354 m 17
 962 386 l 9
 1172 176 l 25
 1140 144 l 25
 930 354 l 17
390 958 m 17
 358 926 l 9
 148 1136 l 25
 180 1168 l 25
 390 958 l 17
230 656 m 0
 230 897 407 1086 660 1086 c 0
 913 1086 1090 897 1090 656 c 0
 1090 415 913 226 660 226 c 0
 407 226 230 415 230 656 c 0
275 656 m 4
 275 441 445 266 660 266 c 0
 875 266 1045 441 1045 656 c 0
 1045 871 875 1046 660 1046 c 0
 445 1046 275 871 275 656 c 4
EndSplineSet
Colour: ff00
EndChar

StartChar: yen
Encoding: 165 165 161
Width: 1302
VWidth: 1000
Flags: HMW
LayerCount: 4
Fore
SplineSet
243 663 m 1
 243 705 l 1
 1059 705 l 17
 1059 663 l 1
 243 663 l 1
243 375 m 1
 243 417 l 1
 1059 417 l 17
 1059 375 l 1
 243 375 l 1
628 0 m 1
 628 740 l 1
 674 740 l 1
 674 0 l 1
 628 0 l 1
665 719 m 1
 639 716 l 1
 100 1480 l 5
 154 1480 l 1
 651 778 l 1
 1148 1480 l 1
 1202 1480 l 1
 665 719 l 1
EndSplineSet
Colour: ffff
EndChar

StartChar: brokenbar
Encoding: 166 166 162
Width: 460
Flags: HMW
LayerCount: 4
Fore
SplineSet
207.5 570 m 1
 252.5 570 l 1
 252.5 -320 l 9
 207.5 -320 l 1
 207.5 570 l 1
252.5 750 m 1
 207.5 750 l 1
 207.5 1640 l 1
 252.5 1640 l 17
 252.5 750 l 1
EndSplineSet
Colour: ff00
EndChar

StartChar: section
Encoding: 167 167 163
Width: 1122
Flags: HMW
LayerCount: 4
Fore
SplineSet
546 820 m 4
 352 820 172 751 172 531 c 0
 172 305 357.586508324 273.485242938 546 223 c 8
 758.397429943 166.088280172 965 105 965 -131 c 0
 965 -367 815 -460 546 -460 c 0
 325 -460 127 -322 127 -94 c 1
 173 -81 l 0
 173 -314 371 -420 546 -420 c 0
 740 -420 920 -367 920 -131 c 0
 920 59 734.413491676 126.514757062 546 177 c 0
 333.602570057 233.911719828 127 265 127 531 c 0
 127 747 277 860 546 860 c 0
 546 820 l 4
546 220 m 0
 740 220 920 289 920 509 c 0
 920 735 747 756 546 817 c 0
 278 899 170 972 170 1182 c 0
 170 1372 330 1490 546 1490 c 0
 767 1490 922 1352 922 1124 c 1
 876 1111 l 0
 876 1344 721 1450 546 1450 c 0
 401 1450 215 1378 215 1182 c 0
 215 962 391.393912244 904.426576359 546 863 c 0
 816.430253586 790.538431943 965 745 965 509 c 0
 965 293 815 180 546 180 c 0
 546 220 l 0
EndSplineSet
Colour: ff00
EndChar

StartChar: dieresis
Encoding: 168 168 164
Width: 648
VWidth: 1000
Flags: HMW
LayerCount: 4
Fore
SplineSet
420 1318 m 4
 420 1354 448 1382 484 1382 c 4
 520 1382 548 1354 548 1318 c 4
 548 1282 520 1254 484 1254 c 4
 448 1254 420 1282 420 1318 c 4
100 1318 m 4
 100 1354 128 1382 164 1382 c 4
 200 1382 228 1354 228 1318 c 4
 228 1282 200 1254 164 1254 c 4
 128 1254 100 1282 100 1318 c 4
EndSplineSet
Colour: ff00
EndChar

StartChar: copyright
Encoding: 169 169 165
Width: 1700
Flags: HMW
LayerCount: 4
Fore
SplineSet
130 740 m 4
 130 330 440 20 850 20 c 4
 1260 20 1570 330 1570 740 c 4
 1570 1150 1260 1460 850 1460 c 4
 440 1460 130 1150 130 740 c 4
100 740 m 4
 100 1160 430 1490 850 1490 c 4
 1270 1490 1600 1160 1600 740 c 4
 1600 320 1270 -10 850 -10 c 4
 430 -10 100 320 100 740 c 4
519 740 m 0
 519 1012 699 1145 850 1145 c 0
 957 1145 1078 1079 1140 944 c 1
 1168 960 l 1
 1105 1092 989 1175 850 1175 c 0
 645 1175 486 995 486 740 c 0
 486 485 645 305 850 305 c 0
 989 305 1105 388 1168 520 c 1
 1140 536 l 1
 1078 401 957 335 850 335 c 0
 699 335 519 468 519 740 c 0
EndSplineSet
Colour: ff8000
EndChar

StartChar: registered
Encoding: 174 174 166
Width: 1700
Flags: HMW
LayerCount: 4
Fore
SplineSet
130 740 m 0
 130 330 440 20 850 20 c 0
 1260 20 1570 330 1570 740 c 0
 1570 1150 1260 1460 850 1460 c 0
 440 1460 130 1150 130 740 c 0
100 740 m 0
 100 1160 430 1490 850 1490 c 0
 1270 1490 1600 1160 1600 740 c 0
 1600 320 1270 -10 850 -10 c 0
 430 -10 100 320 100 740 c 0
624 311 m 1
 624 1169 l 1
 871 1169 l 1
 1004 1169 1120 1071 1120 923 c 0
 1120 775 1004 677 871 677 c 1
 657 677 l 1
 657 311 l 25
 624 311 l 1
657 1139 m 29
 657 707 l 25
 871 707 l 17
 1001 707 1087 810 1087 923 c 0
 1087 1036 1001 1139 871 1139 c 9
 657 1139 l 29
837 684 m 1
 869 690 l 1
 1128 311 l 1
 1087 311 l 1
 837 684 l 1
EndSplineSet
Colour: ff8000
EndChar

StartChar: questiondown
Encoding: 191 191 167
Width: 1023
VWidth: 1000
Flags: HMW
LayerCount: 4
Fore
SplineSet
515 -410 m 4
 667 -410 877 -294 877 -6 c 4
 877 -2 877 1 876 7 c 5
 923 -6 l 4
 923 -286 733 -450 515 -450 c 4
 297 -450 100 -310 100 -40 c 4
 100 230 311 370 515 370 c 4
 515 330 l 4
 368 330 145 228 145 -40 c 4
 145 -308 363 -410 515 -410 c 4
575 986 m 4
 575 950 547 922 511 922 c 4
 475 922 447 950 447 986 c 4
 447 1022 475 1050 511 1050 c 4
 547 1050 575 1022 575 986 c 4
538 588 m 5
 538 330 l 5
 492 330 l 5
 492 588 l 5
 538 588 l 5
EndSplineSet
Colour: ff00
EndChar

StartChar: acute
Encoding: 180 180 169
Width: 442
VWidth: 1000
Flags: HMW
AnchorPoint: "top_left" 529 1480 mark 0
AnchorPoint: "top_left_O2" 352 1224 mark 0
AnchorPoint: "dieresis_center" 122 1140 mark 0
AnchorPoint: "top_center" 122 1040 mark 0
LayerCount: 4
Fore
SplineSet
144 1224 m 1
 100 1224 l 1
 286 1480 l 1
 342 1480 l 1
 144 1224 l 1
EndSplineSet
Colour: ffff00
EndChar

StartChar: two.superior
Encoding: 178 178 170
Width: 740
Flags: HMW
LayerCount: 4
Fore
SplineSet
111 810 m 1
 111 877 113 987 367 1132 c 0
 530 1225 592 1291 592 1416 c 0
 592 1555 503 1644 370 1644 c 0
 234 1644 148 1533 148 1382 c 0
 148 1380 148 1378 149 1374 c 1
 115 1382 l 1
 115 1561 224 1674 370 1674 c 0
 516 1674 625 1582 625 1416 c 0
 625 1254 502 1173 372 1099 c 0
 253 1031 159 956 145 840 c 1
 630 840 l 1
 630 810 l 1
 143 810 l 1
 120 810 l 1
 111 810 l 1
EndSplineSet
Substitution2: "'tnum' Tabular Numbers lookups0-1" two.superior.tnum
Substitution2: "'pnum' Proportional Numbers lookups0-1" two.superior.pnum
Colour: ff8000
EndChar

StartChar: three.superior
Encoding: 179 179 171
Width: 740
Flags: HMW
LayerCount: 4
Fore
SplineSet
367 1274 m 2
 483 1274 572 1348 572 1459 c 0
 572 1575 483 1644 367 1644 c 0
 237 1644 147 1571 147 1439 c 0
 114 1446 l 1
 117 1585 213 1674 368 1674 c 0
 512 1674 605 1592 605 1462 c 0
 605 1332 513 1267 447 1259 c 1
 518 1245 641 1177 641 1036 c 0
 641 895 528 804 369 804 c 0
 211 804 103 893 100 1032 c 1
 133 1039 l 0
 133 907 236 834 369 834 c 0
 502 834 608 907 608 1039 c 0
 608 1171 478 1244 368 1244 c 2
 319 1244 l 25
 319 1274 l 25
 367 1274 l 2
EndSplineSet
Substitution2: "'tnum' Tabular Numbers lookups0-1" three.superior.tnum
Substitution2: "'pnum' Proportional Numbers lookups0-1" three.superior.pnum
Colour: ff8000
EndChar

StartChar: one.superior
Encoding: 185 185 172
Width: 740
Flags: HMW
LayerCount: 4
Fore
SplineSet
390 1430 m 1
 196 1430 l 1
 196 1461 l 1
 280 1461 l 2
 377 1461 390 1478 390 1584 c 2
 390 1668 l 1
 424 1668 l 1
 424 1413 l 1
 424 810 l 1
 390 810 l 1
 390 1430 l 1
EndSplineSet
Substitution2: "'pnum' Proportional Numbers lookups0-1" one.superior.pnum
Substitution2: "'tnum' Tabular Numbers lookups0-1" one.superior.tnum
Colour: ff8000
EndChar

StartChar: zero.superior
Encoding: 8304 8304 173
Width: 740
Flags: HMW
LayerCount: 4
Fore
SplineSet
130 1239 m 0
 130 972 231 834 370 834 c 0
 509 834 610 972 610 1239 c 0
 610 1506 509 1644 370 1644 c 0
 231 1644 130 1506 130 1239 c 0
97 1239 m 0
 97 1529 213 1674 370 1674 c 0
 527 1674 643 1529 643 1239 c 0
 643 949 527 804 370 804 c 0
 213 804 97 949 97 1239 c 0
EndSplineSet
Substitution2: "'tnum' Tabular Numbers lookups0-1" zero.superior.tnum
Substitution2: "'pnum' Proportional Numbers lookups0-1" zero.superior.pnum
Colour: ff8000
EndChar

StartChar: four.superior
Encoding: 8308 8308 174
Width: 740
Flags: HMW
LayerCount: 4
Fore
SplineSet
434 1668 m 1
 394 1668 l 1
 116 1056 l 1
 116 1032 l 1
 448 1032 l 1
 448 810 l 1
 481 810 l 1
 481 1032 l 1
 624 1032 l 1
 624 1063 l 1
 481 1063 l 1
 481 1279 l 1
 448 1279 l 1
 448 1063 l 1
 154 1063 l 1
 434 1668 l 1
EndSplineSet
Substitution2: "'pnum' Proportional Numbers lookups0-1" four.superior.pnum
Substitution2: "'tnum' Tabular Numbers lookups0-1" four.superior.tnum
Colour: ff8000
EndChar

StartChar: five.superior
Encoding: 8309 8309 175
Width: 740
Flags: HMW
LayerCount: 4
Fore
SplineSet
200 1668 m 5
 216 1668 l 1
 596 1668 l 1
 596 1638 l 1
 214 1638 l 1
 160 1274 l 1
 203 1338 264 1377 370 1377 c 0
 515 1377 636 1259 636 1090 c 0
 636 921 523 804 368 804 c 0
 213 804 107 893 104 1032 c 1
 136 1039 l 1
 136 907 238 834 368 834 c 0
 517 834 602 958 602 1090 c 0
 602 1222 511 1346 368 1346 c 0
 225 1346 183 1269 152 1217 c 1
 124 1225 l 1
 190 1668 l 1
 200 1668 l 5
EndSplineSet
Substitution2: "'pnum' Proportional Numbers lookups0-1" five.superior.pnum
Substitution2: "'tnum' Tabular Numbers lookups0-1" five.superior.tnum
Colour: ff8000
EndChar

StartChar: six.superior
Encoding: 8310 8310 176
Width: 740
Flags: HMW
LayerCount: 4
Fore
SplineSet
127 1157 m 1
 149 1301 254 1377 383 1377 c 0
 528 1377 648 1259 648 1090 c 0
 648 921 528 804 382 804 c 0
 270 804 173 873 134 981 c 0
 116 1022 92 1099 92 1221 c 0
 92 1521 238 1674 425 1674 c 0
 563 1674 620 1594 620 1594 c 1
 602 1567 l 1
 602 1567 552 1644 417 1644 c 0
 282 1644 104 1525 127 1157 c 1
144 1090 m 0
 144 958 231 834 380 834 c 0
 529 834 615 958 615 1090 c 0
 615 1222 523 1346 380 1346 c 0
 237 1346 144 1222 144 1090 c 0
EndSplineSet
Substitution2: "'pnum' Proportional Numbers lookups0-1" six.superior.pnum
Substitution2: "'tnum' Tabular Numbers lookups0-1" six.superior.tnum
Colour: ff8000
EndChar

StartChar: seven.superior
Encoding: 8311 8311 177
Width: 740
Flags: HMW
LayerCount: 4
Fore
SplineSet
116 1638 m 1
 116 1668 l 1
 624 1668 l 1
 624 1641 l 1
 624 1641 341 1292 304 810 c 1
 299 810 276 810 271 810 c 1
 305 1260 547 1590 584 1638 c 1
 116 1638 l 1
EndSplineSet
Substitution2: "'tnum' Tabular Numbers lookups0-1" seven.superior.tnum
Substitution2: "'pnum' Proportional Numbers lookups0-1" seven.superior.pnum
Colour: ff8000
EndChar

StartChar: eight.superior
Encoding: 8312 8312 178
Width: 740
Flags: HMW
LayerCount: 4
Fore
SplineSet
90 1036 m 0
 90 1177 216 1245 288 1259 c 1
 221 1267 119 1332 119 1462 c 0
 119 1592 222 1674 370 1674 c 0
 518 1674 621 1592 621 1462 c 0
 621 1332 520 1267 453 1259 c 1
 525 1245 650 1177 650 1036 c 0
 650 895 534 804 370 804 c 0
 206 804 90 895 90 1036 c 0
152 1459 m 0
 152 1348 251 1274 370 1274 c 0
 489 1274 588 1348 588 1459 c 0
 588 1575 489 1644 370 1644 c 0
 251 1644 152 1575 152 1459 c 0
370 1244 m 0
 257 1244 123 1171 123 1039 c 0
 123 907 233 834 370 834 c 0
 507 834 617 907 617 1039 c 0
 617 1171 483 1244 370 1244 c 0
EndSplineSet
Substitution2: "'tnum' Tabular Numbers lookups0-1" eight.superior.tnum
Substitution2: "'pnum' Proportional Numbers lookups0-1" eight.superior.pnum
Colour: ff8000
EndChar

StartChar: nine.superior
Encoding: 8313 8313 179
Width: 740
Flags: HMW
LayerCount: 4
Fore
SplineSet
613 1321 m 1
 591 1177 486 1101 357 1101 c 0
 212 1101 92 1219 92 1388 c 0
 92 1557 212 1674 358 1674 c 0
 470 1674 567 1605 606 1497 c 0
 624 1456 648 1379 648 1257 c 0
 648 957 502 804 315 804 c 0
 177 804 120 884 120 884 c 1
 138 911 l 1
 138 911 188 834 323 834 c 0
 458 834 636 953 613 1321 c 1
596 1388 m 0
 596 1520 509 1644 360 1644 c 0
 211 1644 125 1520 125 1388 c 0
 125 1256 217 1132 360 1132 c 0
 503 1132 596 1256 596 1388 c 0
EndSplineSet
Substitution2: "'pnum' Proportional Numbers lookups0-1" nine.superior.pnum
Substitution2: "'tnum' Tabular Numbers lookups0-1" nine.superior.tnum
Colour: ff8000
EndChar

StartChar: ordfeminine
Encoding: 170 170 180
Width: 774
Flags: HMW
LayerCount: 4
Fore
SplineSet
100 831 m 5
 100 861 l 5
 674 861 l 5
 674 831 l 5
 100 831 l 5
556 1096 m 1
 516 1024 432 990 349 990 c 0
 230 990 124 1054 124 1193 c 0
 124 1333 236 1397 355 1397 c 0
 428 1397 512 1364 553 1294 c 1
 553 1531 469 1575 354 1575 c 0
 239 1575 165 1499 165 1499 c 1
 148 1528 l 1
 148 1528 224 1605 357 1605 c 0
 475 1605 586 1559 586 1291 c 2
 586 1232 l 1
 586 1213 l 1
 586 1132 l 2
 586 1064 618 1031 650 1020 c 1
 643 990 l 1
 595 1003 565 1039 556 1096 c 1
552 1193 m 0
 552 1287 477 1366 355 1366 c 0
 233 1366 157 1304 157 1193 c 0
 157 1082 233 1020 355 1020 c 0
 477 1020 552 1099 552 1193 c 0
EndSplineSet
Substitution2: "'ss04' Simplified a and g lookups0-1" ordfeminine.ss04
Colour: ff8000
EndChar

StartChar: ordmasculine
Encoding: 186 186 181
Width: 774
Flags: HMW
LayerCount: 4
Fore
SplineSet
387 1605 m 4
 239 1605 125 1479 125 1298 c 4
 125 1117 239 990 387 990 c 4
 535 990 649 1117 649 1298 c 4
 649 1479 535 1605 387 1605 c 4
387 1020 m 4
 290 1020 158 1108 158 1298 c 4
 158 1488 290 1575 387 1575 c 4
 484 1575 616 1488 616 1298 c 4
 616 1108 484 1020 387 1020 c 4
100 831 m 5
 100 861 l 5
 674 861 l 5
 674 831 l 5
 100 831 l 5
EndSplineSet
Colour: ff8000
EndChar

StartChar: guillemotleft
Encoding: 171 171 182
Width: 990
VWidth: 1000
Flags: HMW
LayerCount: 4
Fore
SplineSet
450 196 m 5
 100 660 l 5
 450 1126 l 5
 502 1126 l 5
 148 660 l 5
 502 196 l 5
 450 196 l 5
838 196 m 1
 488 660 l 1
 838 1126 l 1
 890 1126 l 1
 536 660 l 1
 890 196 l 1
 838 196 l 1
EndSplineSet
Colour: ff00
EndChar

StartChar: logicalnot
Encoding: 172 172 183
Width: 1232
Flags: HMW
LayerCount: 4
Fore
SplineSet
990 720 m 5
 990 340 l 5
 1035 340 l 1
 1035 740 l 1
 990 720 l 5
197 700 m 1
 1017 700 l 1
 1035 740 l 9
 197 740 l 1
 197 700 l 1
EndSplineSet
Colour: ff00
EndChar

StartChar: guillemotright
Encoding: 187 187 184
Width: 990
VWidth: 1000
Flags: HMW
LayerCount: 4
Fore
SplineSet
152 196 m 5
 502 660 l 1
 152 1126 l 1
 100 1126 l 1
 454 660 l 1
 100 196 l 1
 152 196 l 5
540 196 m 1
 890 660 l 1
 540 1126 l 1
 488 1126 l 1
 842 660 l 1
 488 196 l 1
 540 196 l 1
EndSplineSet
Colour: ff00
EndChar

StartChar: plusminus
Encoding: 177 177 185
Width: 1158
Flags: HMW
LayerCount: 4
Fore
SplineSet
140 0 m 1
 1018 0 l 17
 1018 -40 l 1
 140 -40 l 1
 140 0 l 1
557 1099 m 5
 557 221 l 1
 601 221 l 9
 601 1099 l 1
 557 1099 l 5
140 640 m 1
 1018 640 l 1
 1018 680 l 9
 140 680 l 1
 140 640 l 1
EndSplineSet
Colour: ff00
EndChar

StartChar: paragraph
Encoding: 182 182 186
Width: 1093
VWidth: 1000
Flags: HMW
LayerCount: 4
Fore
SplineSet
993 1490 m 5
 557 1490 l 1
 557 1450 l 1
 993 1450 l 5
 993 1490 l 5
788 1469 m 1
 788 -440 l 1
 833 -440 l 1
 833 1469 l 1
 788 1469 l 1
535 1470 m 1
 535 -440 l 1
 580 -440 l 1
 580 1470 l 1
 569 1470 l 1
 535 1470 l 1
100 1048 m 0
 100 778 287 616 557 616 c 0
 557 1490 l 0
 287 1490 100 1318 100 1048 c 0
EndSplineSet
Colour: ff00
EndChar

StartChar: periodcentered
Encoding: 183 183 187
Width: 408
VWidth: 1000
Flags: HMW
LayerCount: 4
Fore
SplineSet
140 660 m 4
 140 696 168 724 204 724 c 4
 240 724 268 696 268 660 c 4
 268 624 240 596 204 596 c 4
 168 596 140 624 140 660 c 4
EndSplineSet
Colour: ff00
EndChar

StartChar: cedilla
Encoding: 184 184 188
Width: 488
VWidth: 1000
Flags: HMW
LayerCount: 4
Fore
SplineSet
100 -291 m 1
 137 -269 l 1
 156 -309 196 -330 234 -330 c 0
 286 -330 343 -290 343 -216 c 0
 343 -142 286 -102 234 -102 c 0
 196 -102 175 -123 156 -163 c 1
 120 -141 l 1
 146 -95 174 -62 234 -62 c 0
 324 -62 388 -136 388 -216 c 0
 388 -296 324 -370 234 -370 c 0
 174 -370 126 -337 100 -291 c 1
198 0 m 1
 240 0 l 1
 157 -136 l 1
 156 -163 l 1
 120 -141 l 1
 198 0 l 1
EndSplineSet
Colour: ffc71c
EndChar

StartChar: threequarters
Encoding: 190 190 189
Width: 1758
VWidth: 1548
Flags: HMW
LayerCount: 4
Fore
SplineSet
397.923828125 1086 m 2
 513.923828125 1086 602.923828125 1160 602.923828125 1271 c 0
 602.923828125 1387 513.923828125 1456 397.923828125 1456 c 0
 267.923828125 1456 177.923828125 1383 177.923828125 1251 c 0
 144.923828125 1258 l 1
 147.923828125 1397 243.923828125 1486 398.923828125 1486 c 0
 542.923828125 1486 635.923828125 1404 635.923828125 1274 c 0
 635.923828125 1144 543.923828125 1079 477.923828125 1071 c 1
 548.923828125 1057 671.923828125 989 671.923828125 848 c 0
 671.923828125 707 558.923828125 616 399.923828125 616 c 0
 241.923828125 616 133.923828125 705 130.923828125 844 c 1
 163.923828125 851 l 0
 163.923828125 719 266.923828125 646 399.923828125 646 c 0
 532.923828125 646 638.923828125 719 638.923828125 851 c 0
 638.923828125 983 508.923828125 1056 398.923828125 1056 c 2
 349.923828125 1056 l 25
 349.923828125 1086 l 25
 397.923828125 1086 l 2
1422 858 m 1
 1382 858 l 1
 1104 246 l 1
 1104 222 l 1
 1436 222 l 1
 1436 0 l 1
 1469 0 l 1
 1469 222 l 1
 1612 222 l 1
 1612 253 l 1
 1469 253 l 1
 1469 469 l 1
 1436 469 l 1
 1436 253 l 1
 1142 253 l 1
 1422 858 l 1
540 121 m 1
 512 137 l 1
 1218 1359 l 1
 1246 1343 l 1
 540 121 l 1
EndSplineSet
Colour: ff8000
EndChar

StartChar: onequarter
Encoding: 188 188 190
Width: 1758
VWidth: 1548
Flags: HMW
LayerCount: 4
Fore
SplineSet
1422 858 m 5
 1382 858 l 5
 1104 246 l 5
 1104 222 l 5
 1436 222 l 5
 1436 0 l 5
 1469 0 l 5
 1469 222 l 5
 1612 222 l 5
 1612 253 l 5
 1469 253 l 5
 1469 469 l 5
 1436 469 l 5
 1436 253 l 5
 1142 253 l 5
 1422 858 l 5
399 1241.92773438 m 1
 205 1241.92773438 l 1
 205 1272.92773438 l 1
 289 1272.92773438 l 2
 386 1272.92773438 399 1289.92773438 399 1395.92773438 c 2
 399 1479.92773438 l 1
 433 1479.92773438 l 1
 433 1224.92773438 l 1
 433 621.927734375 l 1
 399 621.927734375 l 1
 399 1241.92773438 l 1
540 121 m 1
 512 137 l 1
 1218 1359 l 1
 1246 1343 l 1
 540 121 l 1
EndSplineSet
Substitution2: "'ss09' Bar below digit 1-1" onequarter.ss09
Colour: ff8000
EndChar

StartChar: onehalf
Encoding: 189 189 191
Width: 1758
VWidth: 1548
Flags: HMW
LayerCount: 4
Fore
SplineSet
1099 0 m 5
 1099 67 1101 177 1355 322 c 4
 1518 415 1580 481 1580 606 c 4
 1580 745 1491 834 1358 834 c 4
 1222 834 1136 723 1136 572 c 4
 1136 570 1136 568 1137 564 c 5
 1103 572 l 5
 1103 751 1212 864 1358 864 c 4
 1504 864 1613 772 1613 606 c 4
 1613 444 1490 363 1360 289 c 4
 1241 221 1147 146 1133 30 c 5
 1618 30 l 5
 1618 0 l 5
 1131 0 l 5
 1108 0 l 5
 1099 0 l 5
399 1241.92773438 m 1
 205 1241.92773438 l 1
 205 1272.92773438 l 1
 289 1272.92773438 l 2
 386 1272.92773438 399 1289.92773438 399 1395.92773438 c 2
 399 1479.92773438 l 1
 433 1479.92773438 l 1
 433 1224.92773438 l 1
 433 621.927734375 l 1
 399 621.927734375 l 1
 399 1241.92773438 l 1
540 121 m 1
 512 137 l 1
 1218 1359 l 1
 1246 1343 l 1
 540 121 l 1
EndSplineSet
Substitution2: "'ss09' Bar below digit 1-1" onehalf.ss09
Colour: ff8000
EndChar

StartChar: uni2156
Encoding: 8534 8534 192
Width: 1758
VWidth: 1548
Flags: HMW
LayerCount: 4
Fore
SplineSet
1114 415 m 5
 1180 858 l 5
 1191 858 l 5
 1206 858 l 5
 1586 858 l 5
 1586 828 l 5
 1204 828 l 5
 1150 464 l 5
 1193 528 1254 567 1360 567 c 4
 1505 567 1626 449 1626 280 c 4
 1626 111 1513 -6 1358 -6 c 4
 1203 -6 1097 83 1094 222 c 5
 1126 229 l 5
 1126 97 1228 24 1358 24 c 4
 1507 24 1592 148 1592 280 c 4
 1592 412 1501 536 1358 536 c 4
 1215 536 1173 459 1142 407 c 5
 1114 415 l 5
139.923828125 622 m 1
 139.923828125 689 141.923828125 799 395.923828125 944 c 0
 558.923828125 1037 620.923828125 1103 620.923828125 1228 c 0
 620.923828125 1367 531.923828125 1456 398.923828125 1456 c 0
 262.923828125 1456 176.923828125 1345 176.923828125 1194 c 0
 176.923828125 1192 176.923828125 1190 177.923828125 1186 c 1
 143.923828125 1194 l 1
 143.923828125 1373 252.923828125 1486 398.923828125 1486 c 0
 544.923828125 1486 653.923828125 1394 653.923828125 1228 c 0
 653.923828125 1066 530.923828125 985 400.923828125 911 c 0
 281.923828125 843 187.923828125 768 173.923828125 652 c 1
 658.923828125 652 l 1
 658.923828125 622 l 1
 171.923828125 622 l 1
 148.923828125 622 l 1
 139.923828125 622 l 1
540 121 m 1
 512 137 l 1
 1218 1359 l 1
 1246 1343 l 1
 540 121 l 1
EndSplineSet
Colour: ff8000
EndChar

StartChar: twothirds
Encoding: 8532 8532 193
Width: 1758
VWidth: 1548
Flags: HMW
LayerCount: 4
Fore
SplineSet
1357 464 m 6
 1473 464 1562 538 1562 649 c 4
 1562 765 1473 834 1357 834 c 4
 1227 834 1137 761 1137 629 c 4
 1104 636 l 5
 1107 775 1203 864 1358 864 c 4
 1502 864 1595 782 1595 652 c 4
 1595 522 1503 457 1437 449 c 5
 1508 435 1631 367 1631 226 c 4
 1631 85 1518 -6 1359 -6 c 4
 1201 -6 1093 83 1090 222 c 5
 1123 229 l 4
 1123 97 1226 24 1359 24 c 4
 1492 24 1598 97 1598 229 c 4
 1598 361 1468 434 1358 434 c 6
 1309 434 l 29
 1309 464 l 29
 1357 464 l 6
139.923828125 622 m 1
 139.923828125 689 141.923828125 799 395.923828125 944 c 0
 558.923828125 1037 620.923828125 1103 620.923828125 1228 c 0
 620.923828125 1367 531.923828125 1456 398.923828125 1456 c 0
 262.923828125 1456 176.923828125 1345 176.923828125 1194 c 0
 176.923828125 1192 176.923828125 1190 177.923828125 1186 c 1
 143.923828125 1194 l 1
 143.923828125 1373 252.923828125 1486 398.923828125 1486 c 0
 544.923828125 1486 653.923828125 1394 653.923828125 1228 c 0
 653.923828125 1066 530.923828125 985 400.923828125 911 c 0
 281.923828125 843 187.923828125 768 173.923828125 652 c 1
 658.923828125 652 l 1
 658.923828125 622 l 1
 171.923828125 622 l 1
 148.923828125 622 l 1
 139.923828125 622 l 1
540 121 m 1
 512 137 l 1
 1218 1359 l 1
 1246 1343 l 1
 540 121 l 1
EndSplineSet
Colour: ff8000
EndChar

StartChar: uni215F
Encoding: 8543 8543 194
Width: 1758
VWidth: 1548
Flags: HMW
LayerCount: 4
Fore
SplineSet
399 1241.92773438 m 1
 205 1241.92773438 l 1
 205 1272.92773438 l 1
 289 1272.92773438 l 2
 386 1272.92773438 399 1289.92773438 399 1395.92773438 c 2
 399 1479.92773438 l 1
 433 1479.92773438 l 1
 433 1224.92773438 l 1
 433 621.927734375 l 1
 399 621.927734375 l 1
 399 1241.92773438 l 1
540 121 m 1
 512 137 l 1
 1218 1359 l 1
 1246 1343 l 1
 540 121 l 1
EndSplineSet
Substitution2: "'ss09' Bar below digit 1-1" uni215F.ss09
Colour: ff8000
EndChar

StartChar: uni2150
Encoding: 8528 8528 195
Width: 1758
VWidth: 1548
Flags: HMW
LayerCount: 4
Fore
SplineSet
1104 828 m 1
 1104 858 l 1
 1612 858 l 1
 1612 831 l 1
 1612 831 1329 482 1292 0 c 1
 1287 0 1264 0 1259 0 c 1
 1293 450 1535 780 1572 828 c 1
 1104 828 l 1
399 1241.92773438 m 1
 205 1241.92773438 l 1
 205 1272.92773438 l 1
 289 1272.92773438 l 2
 386 1272.92773438 399 1289.92773438 399 1395.92773438 c 2
 399 1479.92773438 l 1
 433 1479.92773438 l 1
 433 1224.92773438 l 1
 433 621.927734375 l 1
 399 621.927734375 l 1
 399 1241.92773438 l 1
540 121 m 1
 512 137 l 1
 1218 1359 l 1
 1246 1343 l 1
 540 121 l 1
EndSplineSet
Substitution2: "'ss09' Bar below digit 1-1" uni2150.ss09
Colour: ff8000
EndChar

StartChar: uni2151
Encoding: 8529 8529 196
Width: 1758
VWidth: 1548
Flags: HMW
LayerCount: 4
Fore
SplineSet
1613 511 m 5
 1591 367 1486 291 1357 291 c 4
 1212 291 1092 409 1092 578 c 4
 1092 747 1212 864 1358 864 c 4
 1470 864 1567 795 1606 687 c 4
 1624 646 1648 569 1648 447 c 4
 1648 147 1502 -6 1315 -6 c 4
 1177 -6 1120 74 1120 74 c 5
 1138 101 l 5
 1138 101 1188 24 1323 24 c 4
 1458 24 1636 143 1613 511 c 5
1596 578 m 4
 1596 710 1509 834 1360 834 c 4
 1211 834 1125 710 1125 578 c 4
 1125 446 1217 322 1360 322 c 4
 1503 322 1596 446 1596 578 c 4
399 1241.92773438 m 1
 205 1241.92773438 l 1
 205 1272.92773438 l 1
 289 1272.92773438 l 2
 386 1272.92773438 399 1289.92773438 399 1395.92773438 c 2
 399 1479.92773438 l 1
 433 1479.92773438 l 1
 433 1224.92773438 l 1
 433 621.927734375 l 1
 399 621.927734375 l 1
 399 1241.92773438 l 1
540 121 m 1
 512 137 l 1
 1218 1359 l 1
 1246 1343 l 1
 540 121 l 1
EndSplineSet
Substitution2: "'ss09' Bar below digit 1-1" uni2151.ss09
Colour: ff8000
EndChar

StartChar: uni2152
Encoding: 8530 8530 197
Width: 2021
VWidth: 1548
Flags: HMW
LayerCount: 4
Fore
SplineSet
1368 429 m 4
 1368 162 1469 24 1608 24 c 4
 1747 24 1848 162 1848 429 c 4
 1848 696 1747 834 1608 834 c 4
 1469 834 1368 696 1368 429 c 4
1335 429 m 4
 1335 719 1451 864 1608 864 c 4
 1765 864 1881 719 1881 429 c 4
 1881 139 1765 -6 1608 -6 c 4
 1451 -6 1335 139 1335 429 c 4
1161 620 m 1
 967 620 l 1
 967 651 l 1
 1051 651 l 2
 1148 651 1161 668 1161 774 c 2
 1161 858 l 1
 1195 858 l 1
 1195 603 l 1
 1195 0 l 1
 1161 0 l 1
 1161 620 l 1
399 1241.92773438 m 1
 205 1241.92773438 l 1
 205 1272.92773438 l 1
 289 1272.92773438 l 2
 386 1272.92773438 399 1289.92773438 399 1395.92773438 c 2
 399 1479.92773438 l 1
 433 1479.92773438 l 1
 433 1224.92773438 l 1
 433 621.927734375 l 1
 399 621.927734375 l 1
 399 1241.92773438 l 1
540 121 m 1
 512 137 l 1
 1218 1359 l 1
 1246 1343 l 1
 540 121 l 1
EndSplineSet
Substitution2: "'ss09' Bar below digit 1-1" uni2152.ss09
Substitution2: "'zero' Slashed Zero lookups0-1" uni2152.zero
Colour: ff8000
EndChar

StartChar: onethird
Encoding: 8531 8531 198
Width: 1758
VWidth: 1548
Flags: HMW
LayerCount: 4
Fore
SplineSet
1357 464 m 6
 1473 464 1562 538 1562 649 c 4
 1562 765 1473 834 1357 834 c 4
 1227 834 1137 761 1137 629 c 4
 1104 636 l 5
 1107 775 1203 864 1358 864 c 4
 1502 864 1595 782 1595 652 c 4
 1595 522 1503 457 1437 449 c 5
 1508 435 1631 367 1631 226 c 4
 1631 85 1518 -6 1359 -6 c 4
 1201 -6 1093 83 1090 222 c 5
 1123 229 l 4
 1123 97 1226 24 1359 24 c 4
 1492 24 1598 97 1598 229 c 4
 1598 361 1468 434 1358 434 c 6
 1309 434 l 29
 1309 464 l 29
 1357 464 l 6
399 1241.92773438 m 1
 205 1241.92773438 l 1
 205 1272.92773438 l 1
 289 1272.92773438 l 2
 386 1272.92773438 399 1289.92773438 399 1395.92773438 c 2
 399 1479.92773438 l 1
 433 1479.92773438 l 1
 433 1224.92773438 l 1
 433 621.927734375 l 1
 399 621.927734375 l 1
 399 1241.92773438 l 1
540 121 m 1
 512 137 l 1
 1218 1359 l 1
 1246 1343 l 1
 540 121 l 1
EndSplineSet
Substitution2: "'ss09' Bar below digit 1-1" onethird.ss09
Colour: ff8000
EndChar

StartChar: uni2159
Encoding: 8537 8537 199
Width: 1758
VWidth: 1548
Flags: HMW
LayerCount: 4
Fore
SplineSet
1103 347 m 5
 1125 491 1230 567 1359 567 c 4
 1504 567 1624 449 1624 280 c 4
 1624 111 1504 -6 1358 -6 c 4
 1246 -6 1149 63 1110 171 c 4
 1092 212 1068 289 1068 411 c 4
 1068 711 1214 864 1401 864 c 4
 1539 864 1596 784 1596 784 c 5
 1578 757 l 5
 1578 757 1528 834 1393 834 c 4
 1258 834 1080 715 1103 347 c 5
1120 280 m 4
 1120 148 1207 24 1356 24 c 4
 1505 24 1591 148 1591 280 c 4
 1591 412 1499 536 1356 536 c 4
 1213 536 1120 412 1120 280 c 4
399 1241.92773438 m 1
 205 1241.92773438 l 1
 205 1272.92773438 l 1
 289 1272.92773438 l 2
 386 1272.92773438 399 1289.92773438 399 1395.92773438 c 2
 399 1479.92773438 l 1
 433 1479.92773438 l 1
 433 1224.92773438 l 1
 433 621.927734375 l 1
 399 621.927734375 l 1
 399 1241.92773438 l 1
540 121 m 1
 512 137 l 1
 1218 1359 l 1
 1246 1343 l 1
 540 121 l 1
EndSplineSet
Substitution2: "'ss09' Bar below digit 1-1" uni2159.ss09
Colour: ff8000
EndChar

StartChar: oneeighth
Encoding: 8539 8539 200
Width: 1758
VWidth: 1548
Flags: HMW
LayerCount: 4
Fore
SplineSet
1078 226 m 4
 1078 367 1204 435 1276 449 c 5
 1209 457 1107 522 1107 652 c 4
 1107 782 1210 864 1358 864 c 4
 1506 864 1609 782 1609 652 c 4
 1609 522 1508 457 1441 449 c 5
 1513 435 1638 367 1638 226 c 4
 1638 85 1522 -6 1358 -6 c 4
 1194 -6 1078 85 1078 226 c 4
1140 649 m 4
 1140 538 1239 464 1358 464 c 4
 1477 464 1576 538 1576 649 c 4
 1576 765 1477 834 1358 834 c 4
 1239 834 1140 765 1140 649 c 4
1358 434 m 4
 1245 434 1111 361 1111 229 c 4
 1111 97 1221 24 1358 24 c 4
 1495 24 1605 97 1605 229 c 4
 1605 361 1471 434 1358 434 c 4
399 1241.92773438 m 1
 205 1241.92773438 l 1
 205 1272.92773438 l 1
 289 1272.92773438 l 2
 386 1272.92773438 399 1289.92773438 399 1395.92773438 c 2
 399 1479.92773438 l 1
 433 1479.92773438 l 1
 433 1224.92773438 l 1
 433 621.927734375 l 1
 399 621.927734375 l 1
 399 1241.92773438 l 1
540 121 m 1
 512 137 l 1
 1218 1359 l 1
 1246 1343 l 1
 540 121 l 1
EndSplineSet
Substitution2: "'ss09' Bar below digit 1-1" oneeighth.ss09
Colour: ff8000
EndChar

StartChar: uni2155
Encoding: 8533 8533 201
Width: 1758
VWidth: 1548
Flags: HMW
LayerCount: 4
Fore
SplineSet
1114 415 m 5
 1180 858 l 5
 1191 858 l 5
 1206 858 l 5
 1586 858 l 5
 1586 828 l 5
 1204 828 l 5
 1150 464 l 5
 1193 528 1254 567 1360 567 c 4
 1505 567 1626 449 1626 280 c 4
 1626 111 1513 -6 1358 -6 c 4
 1203 -6 1097 83 1094 222 c 5
 1126 229 l 5
 1126 97 1228 24 1358 24 c 4
 1507 24 1592 148 1592 280 c 4
 1592 412 1501 536 1358 536 c 4
 1215 536 1173 459 1142 407 c 5
 1114 415 l 5
399 1241.92773438 m 1
 205 1241.92773438 l 1
 205 1272.92773438 l 1
 289 1272.92773438 l 2
 386 1272.92773438 399 1289.92773438 399 1395.92773438 c 2
 399 1479.92773438 l 1
 433 1479.92773438 l 1
 433 1224.92773438 l 1
 433 621.927734375 l 1
 399 621.927734375 l 1
 399 1241.92773438 l 1
540 121 m 1
 512 137 l 1
 1218 1359 l 1
 1246 1343 l 1
 540 121 l 1
EndSplineSet
Substitution2: "'ss09' Bar below digit 1-1" uni2155.ss09
Colour: ff8000
EndChar

StartChar: uni2157
Encoding: 8535 8535 202
Width: 1758
VWidth: 1548
Flags: HMW
LayerCount: 4
Fore
SplineSet
1114 415 m 5
 1180 858 l 5
 1191 858 l 5
 1206 858 l 5
 1586 858 l 5
 1586 828 l 5
 1204 828 l 5
 1150 464 l 5
 1193 528 1254 567 1360 567 c 4
 1505 567 1626 449 1626 280 c 4
 1626 111 1513 -6 1358 -6 c 4
 1203 -6 1097 83 1094 222 c 5
 1126 229 l 5
 1126 97 1228 24 1358 24 c 4
 1507 24 1592 148 1592 280 c 4
 1592 412 1501 536 1358 536 c 4
 1215 536 1173 459 1142 407 c 5
 1114 415 l 5
397.923828125 1086 m 2
 513.923828125 1086 602.923828125 1160 602.923828125 1271 c 0
 602.923828125 1387 513.923828125 1456 397.923828125 1456 c 0
 267.923828125 1456 177.923828125 1383 177.923828125 1251 c 0
 144.923828125 1258 l 1
 147.923828125 1397 243.923828125 1486 398.923828125 1486 c 0
 542.923828125 1486 635.923828125 1404 635.923828125 1274 c 0
 635.923828125 1144 543.923828125 1079 477.923828125 1071 c 1
 548.923828125 1057 671.923828125 989 671.923828125 848 c 0
 671.923828125 707 558.923828125 616 399.923828125 616 c 0
 241.923828125 616 133.923828125 705 130.923828125 844 c 1
 163.923828125 851 l 0
 163.923828125 719 266.923828125 646 399.923828125 646 c 0
 532.923828125 646 638.923828125 719 638.923828125 851 c 0
 638.923828125 983 508.923828125 1056 398.923828125 1056 c 2
 349.923828125 1056 l 25
 349.923828125 1086 l 25
 397.923828125 1086 l 2
540 121 m 1
 512 137 l 1
 1218 1359 l 1
 1246 1343 l 1
 540 121 l 1
EndSplineSet
Colour: ff8000
EndChar

StartChar: uni2158
Encoding: 8536 8536 203
Width: 1758
VWidth: 1548
Flags: HMW
LayerCount: 4
Fore
SplineSet
1114 415 m 5
 1180 858 l 5
 1191 858 l 5
 1206 858 l 5
 1586 858 l 5
 1586 828 l 5
 1204 828 l 5
 1150 464 l 5
 1193 528 1254 567 1360 567 c 4
 1505 567 1626 449 1626 280 c 4
 1626 111 1513 -6 1358 -6 c 4
 1203 -6 1097 83 1094 222 c 5
 1126 229 l 5
 1126 97 1228 24 1358 24 c 4
 1507 24 1592 148 1592 280 c 4
 1592 412 1501 536 1358 536 c 4
 1215 536 1173 459 1142 407 c 5
 1114 415 l 5
463 1479.92773438 m 1
 423 1479.92773438 l 1
 145 867.927734375 l 1
 145 843.927734375 l 1
 477 843.927734375 l 1
 477 621.927734375 l 1
 510 621.927734375 l 1
 510 843.927734375 l 1
 653 843.927734375 l 1
 653 874.927734375 l 1
 510 874.927734375 l 1
 510 1090.92773438 l 1
 477 1090.92773438 l 1
 477 874.927734375 l 1
 183 874.927734375 l 1
 463 1479.92773438 l 1
540 121 m 1
 512 137 l 1
 1218 1359 l 1
 1246 1343 l 1
 540 121 l 1
EndSplineSet
Colour: ff8000
EndChar

StartChar: uni215A
Encoding: 8538 8538 204
Width: 1758
VWidth: 1548
Flags: HMW
LayerCount: 4
Fore
SplineSet
1103 347 m 5
 1125 491 1230 567 1359 567 c 4
 1504 567 1624 449 1624 280 c 4
 1624 111 1504 -6 1358 -6 c 4
 1246 -6 1149 63 1110 171 c 4
 1092 212 1068 289 1068 411 c 4
 1068 711 1214 864 1401 864 c 4
 1539 864 1596 784 1596 784 c 5
 1578 757 l 5
 1578 757 1528 834 1393 834 c 4
 1258 834 1080 715 1103 347 c 5
1120 280 m 4
 1120 148 1207 24 1356 24 c 4
 1505 24 1591 148 1591 280 c 4
 1591 412 1499 536 1356 536 c 4
 1213 536 1120 412 1120 280 c 4
155 1036.92773438 m 1
 221 1479.92773438 l 1
 231 1479.92773438 l 1
 247 1479.92773438 l 1
 627 1479.92773438 l 1
 627 1449.92773438 l 1
 245 1449.92773438 l 1
 191 1085.92773438 l 1
 234 1149.92773438 295 1188.92773438 401 1188.92773438 c 0
 546 1188.92773438 667 1070.92773438 667 901.927734375 c 0
 667 732.927734375 554 615.927734375 399 615.927734375 c 0
 244 615.927734375 138 704.927734375 135 843.927734375 c 1
 167 850.927734375 l 1
 167 718.927734375 269 645.927734375 399 645.927734375 c 0
 548 645.927734375 633 769.927734375 633 901.927734375 c 0
 633 1033.92773438 542 1157.92773438 399 1157.92773438 c 0
 256 1157.92773438 214 1080.92773438 183 1028.92773438 c 1
 155 1036.92773438 l 1
540 121 m 1
 512 137 l 1
 1218 1359 l 1
 1246 1343 l 1
 540 121 l 1
EndSplineSet
Colour: ff8000
EndChar

StartChar: threeeighths
Encoding: 8540 8540 205
Width: 1758
VWidth: 1548
Flags: HMW
LayerCount: 4
Fore
SplineSet
1078 226 m 4
 1078 367 1204 435 1276 449 c 5
 1209 457 1107 522 1107 652 c 4
 1107 782 1210 864 1358 864 c 4
 1506 864 1609 782 1609 652 c 4
 1609 522 1508 457 1441 449 c 5
 1513 435 1638 367 1638 226 c 4
 1638 85 1522 -6 1358 -6 c 4
 1194 -6 1078 85 1078 226 c 4
1140 649 m 4
 1140 538 1239 464 1358 464 c 4
 1477 464 1576 538 1576 649 c 4
 1576 765 1477 834 1358 834 c 4
 1239 834 1140 765 1140 649 c 4
1358 434 m 4
 1245 434 1111 361 1111 229 c 4
 1111 97 1221 24 1358 24 c 4
 1495 24 1605 97 1605 229 c 4
 1605 361 1471 434 1358 434 c 4
397.923828125 1086 m 2
 513.923828125 1086 602.923828125 1160 602.923828125 1271 c 0
 602.923828125 1387 513.923828125 1456 397.923828125 1456 c 0
 267.923828125 1456 177.923828125 1383 177.923828125 1251 c 0
 144.923828125 1258 l 1
 147.923828125 1397 243.923828125 1486 398.923828125 1486 c 0
 542.923828125 1486 635.923828125 1404 635.923828125 1274 c 0
 635.923828125 1144 543.923828125 1079 477.923828125 1071 c 1
 548.923828125 1057 671.923828125 989 671.923828125 848 c 0
 671.923828125 707 558.923828125 616 399.923828125 616 c 0
 241.923828125 616 133.923828125 705 130.923828125 844 c 1
 163.923828125 851 l 0
 163.923828125 719 266.923828125 646 399.923828125 646 c 0
 532.923828125 646 638.923828125 719 638.923828125 851 c 0
 638.923828125 983 508.923828125 1056 398.923828125 1056 c 2
 349.923828125 1056 l 25
 349.923828125 1086 l 25
 397.923828125 1086 l 2
540 121 m 1
 512 137 l 1
 1218 1359 l 1
 1246 1343 l 1
 540 121 l 1
EndSplineSet
Colour: ff8000
EndChar

StartChar: fiveeighths
Encoding: 8541 8541 206
Width: 1758
VWidth: 1548
Flags: HMW
LayerCount: 4
Fore
SplineSet
1078 226 m 4
 1078 367 1204 435 1276 449 c 5
 1209 457 1107 522 1107 652 c 4
 1107 782 1210 864 1358 864 c 4
 1506 864 1609 782 1609 652 c 4
 1609 522 1508 457 1441 449 c 5
 1513 435 1638 367 1638 226 c 4
 1638 85 1522 -6 1358 -6 c 4
 1194 -6 1078 85 1078 226 c 4
1140 649 m 4
 1140 538 1239 464 1358 464 c 4
 1477 464 1576 538 1576 649 c 4
 1576 765 1477 834 1358 834 c 4
 1239 834 1140 765 1140 649 c 4
1358 434 m 4
 1245 434 1111 361 1111 229 c 4
 1111 97 1221 24 1358 24 c 4
 1495 24 1605 97 1605 229 c 4
 1605 361 1471 434 1358 434 c 4
155 1036.92773438 m 1
 221 1479.92773438 l 1
 231 1479.92773438 l 1
 247 1479.92773438 l 1
 627 1479.92773438 l 1
 627 1449.92773438 l 1
 245 1449.92773438 l 1
 191 1085.92773438 l 1
 234 1149.92773438 295 1188.92773438 401 1188.92773438 c 0
 546 1188.92773438 667 1070.92773438 667 901.927734375 c 0
 667 732.927734375 554 615.927734375 399 615.927734375 c 0
 244 615.927734375 138 704.927734375 135 843.927734375 c 1
 167 850.927734375 l 1
 167 718.927734375 269 645.927734375 399 645.927734375 c 0
 548 645.927734375 633 769.927734375 633 901.927734375 c 0
 633 1033.92773438 542 1157.92773438 399 1157.92773438 c 0
 256 1157.92773438 214 1080.92773438 183 1028.92773438 c 1
 155 1036.92773438 l 1
540 121 m 1
 512 137 l 1
 1218 1359 l 1
 1246 1343 l 1
 540 121 l 1
EndSplineSet
Colour: ff8000
EndChar

StartChar: seveneighths
Encoding: 8542 8542 207
Width: 1758
VWidth: 1548
Flags: HMW
LayerCount: 4
Fore
SplineSet
1078 226 m 4
 1078 367 1204 435 1276 449 c 5
 1209 457 1107 522 1107 652 c 4
 1107 782 1210 864 1358 864 c 4
 1506 864 1609 782 1609 652 c 4
 1609 522 1508 457 1441 449 c 5
 1513 435 1638 367 1638 226 c 4
 1638 85 1522 -6 1358 -6 c 4
 1194 -6 1078 85 1078 226 c 4
1140 649 m 4
 1140 538 1239 464 1358 464 c 4
 1477 464 1576 538 1576 649 c 4
 1576 765 1477 834 1358 834 c 4
 1239 834 1140 765 1140 649 c 4
1358 434 m 4
 1245 434 1111 361 1111 229 c 4
 1111 97 1221 24 1358 24 c 4
 1495 24 1605 97 1605 229 c 4
 1605 361 1471 434 1358 434 c 4
146.385742188 1450 m 1
 146.385742188 1480 l 1
 654.385742188 1480 l 1
 654.385742188 1453 l 1
 654.385742188 1453 371.385742188 1104 334.385742188 622 c 1
 329.385742188 622 306.385742188 622 301.385742188 622 c 1
 335.385742188 1072 577.385742188 1402 614.385742188 1450 c 1
 146.385742188 1450 l 1
540 121 m 1
 512 137 l 1
 1218 1359 l 1
 1246 1343 l 1
 540 121 l 1
EndSplineSet
Colour: ff8000
EndChar

StartChar: uni2189
Encoding: 8585 8585 208
Width: 1758
VWidth: 1548
Flags: HMW
LayerCount: 4
Fore
SplineSet
158.923828125 1051.00097656 m 0
 158.923828125 784.000976562 259.923828125 646.000976562 398.923828125 646.000976562 c 0
 537.923828125 646.000976562 638.923828125 784.000976562 638.923828125 1051.00097656 c 0
 638.923828125 1318.00097656 537.923828125 1456.00097656 398.923828125 1456.00097656 c 0
 259.923828125 1456.00097656 158.923828125 1318.00097656 158.923828125 1051.00097656 c 0
125.923828125 1051.00097656 m 0
 125.923828125 1341.00097656 241.923828125 1486.00097656 398.923828125 1486.00097656 c 0
 555.923828125 1486.00097656 671.923828125 1341.00097656 671.923828125 1051.00097656 c 0
 671.923828125 761.000976562 555.923828125 616.000976562 398.923828125 616.000976562 c 0
 241.923828125 616.000976562 125.923828125 761.000976562 125.923828125 1051.00097656 c 0
1357 464 m 6
 1473 464 1562 538 1562 649 c 4
 1562 765 1473 834 1357 834 c 4
 1227 834 1137 761 1137 629 c 4
 1104 636 l 5
 1107 775 1203 864 1358 864 c 4
 1502 864 1595 782 1595 652 c 4
 1595 522 1503 457 1437 449 c 5
 1508 435 1631 367 1631 226 c 4
 1631 85 1518 -6 1359 -6 c 4
 1201 -6 1093 83 1090 222 c 5
 1123 229 l 4
 1123 97 1226 24 1359 24 c 4
 1492 24 1598 97 1598 229 c 4
 1598 361 1468 434 1358 434 c 6
 1309 434 l 29
 1309 464 l 29
 1357 464 l 6
540 121 m 1
 512 137 l 1
 1218 1359 l 1
 1246 1343 l 1
 540 121 l 1
EndSplineSet
Substitution2: "'zero' Slashed Zero lookups0-1" uni2189.zero
Colour: ff8000
EndChar

StartChar: AE
Encoding: 198 198 209
Width: 2184
Flags: HMW
AnchorPoint: "bottom_center" 1533 0 basechar 0
AnchorPoint: "top_center" 1533 1380 basechar 0
LayerCount: 4
Fore
SplineSet
1075 1438 m 1
 1075 1480 l 1
 1125 1480 l 1
 1125 1438 l 1
 1075 1438 l 1
554 541 m 1
 1146 541 l 1
 1146 499 l 1
 554 499 l 1
 554 541 l 1
235 0 m 1
 1075 1480 l 1
 1125 1480 l 1
 290 0 l 1
 235 0 l 1
1858 761 m 17
 1858 719 l 9
 1171 719 l 17
 1171 42 l 1
 1941 42 l 1
 1941 0 l 1
 1125 0 l 25
 1125 1480 l 1
 1941 1480 l 17
 1941 1438 l 1
 1171 1438 l 1
 1171 761 l 9
 1858 761 l 17
EndSplineSet
Colour: ffff
EndChar

StartChar: multiply
Encoding: 215 215 210
Width: 1158
Flags: HMW
LayerCount: 4
Fore
SplineSet
140 1078 m 1
 987 231 l 1
 1018 262 l 9
 171 1109 l 1
 140 1078 l 1
171 231 m 1
 1018 1078 l 1
 987 1109 l 9
 140 262 l 1
 171 231 l 1
EndSplineSet
Substitution2: "'ss07' Bigger basic math operators lookups0-1" multiply.ss07
Colour: ff00
EndChar

StartChar: Eth
Encoding: 208 208 211
Width: 1312
Flags: HMW
LayerCount: 4
Fore
SplineSet
590 716 m 1
 590 758 l 1
 0 758 l 1
 0 712 0 762 0 716 c 1
 590 716 l 1
256 1438 m 29
 626 1438 l 17
 864 1438 1166 1240 1166 740 c 0
 1166 240 864 42 626 42 c 9
 256 42 l 25
 256 1438 l 29
626 0 m 1
 960 0 1212 290 1212 740 c 0
 1212 1190 960 1480 626 1480 c 1
 210 1480 l 1
 210 0 l 1
 377 0 l 25
 626 0 l 1
EndSplineSet
Colour: ffff
EndChar

StartChar: Oslash
Encoding: 216 216 212
Width: 1434
Flags: HMW
AnchorPoint: "bottom_center" 717 0 basechar 0
AnchorPoint: "top_center" 717 1380 basechar 0
LayerCount: 4
Fore
SplineSet
1294 1526 m 5
 1326 1502 l 1
 140 -46 l 1
 108 -22 l 1
 1294 1526 l 5
146 740 m 0
 146 265 457 32 717 32 c 0
 977 32 1288 265 1288 740 c 0
 1288 1215 977 1448 717 1448 c 0
 457 1448 146 1215 146 740 c 0
100 740 m 0
 100 1179 369 1490 717 1490 c 0
 1065 1490 1334 1179 1334 740 c 0
 1334 301 1065 -10 717 -10 c 0
 369 -10 100 301 100 740 c 0
EndSplineSet
Substitution2: "sous-table 'c2sc' Capitales vers petites capitales dans Latin lookup 0" oslash.sc
Colour: ffff
EndChar

StartChar: Thorn
Encoding: 222 222 213
Width: 1074
Flags: HMW
LayerCount: 4
Fore
SplineSet
186 1121 m 25
 186 359 l 25
 555 359 l 17
 780 359 928 540 928 740 c 0
 928 940 780 1121 555 1121 c 9
 186 1121 l 25
140 0 m 1
 140 1029 l 1
 140 1480 l 1
 186 1480 l 1
 186 1163 l 1
 555 1163 l 1
 779 1163 974 995 974 740 c 0
 974 485 779 317 555 317 c 1
 186 317 l 1
 186 0 l 25
 140 0 l 1
EndSplineSet
Substitution2: "sous-table 'c2sc' Capitales vers petites capitales dans Latin lookup 0" thorn.sc
Colour: ffff
EndChar

StartChar: thorn
Encoding: 254 254 214
Width: 1072
VWidth: 1000
Flags: HMW
LayerCount: 4
Fore
SplineSet
177 520 m 1
 177 183.999023438 377 30 552 30 c 0
 727 30 927 183.999023438 927 520 c 0
 927 856 727 1010 552 1010 c 0
 377 1010 177 856 177 520 c 1
140 520 m 1
 140 1480 l 1
 185 1480 l 1
 185 1480 185 800 185 780 c 1
 216 896 352 1050 552 1050 c 0
 799 1050 972 832 972 520 c 0
 972 207.999023438 799 -10 552 -10 c 0
 352 -10 216 144 185 260 c 1
 185 -440 l 1
 140 -440 l 1
 140 520 l 1
EndSplineSet
Substitution2: "sous-table 'smcp' Bas-de-casse vers petites capitales dans Latin lookup 0" thorn.sc
Colour: ff00
EndChar

StartChar: ae
Encoding: 230 230 215
Width: 1801
Flags: HMW
AnchorPoint: "top_center" 860 1040 basechar 0
AnchorPoint: "bottom_center" 860 0 basechar 0
LayerCount: 4
Fore
SplineSet
850 540 m 1
 1684 540 l 1
 1656 500 l 1
 850 500 l 1
 850 540 l 1
1637 274 m 1
 1676 252 l 1
 1602 90 1460 -10 1263 -10 c 0
 1016 -10 825 208 825 520 c 0
 825 832 1016 1050 1263 1050 c 0
 1510 1050 1701 832 1701 520 c 0
 1701 513 1701 507 1701 500 c 1
 1656 500 l 1
 1656 507 1656 513 1656 520 c 0
 1656 856 1431 1010 1263 1010 c 0
 1095 1010 870 856 870 520 c 0
 870 184 1095 30 1263 30 c 0
 1409 30 1561 108 1637 274 c 1
475 -10 m 0
 277 -10 100 100 100 340 c 1
 100 580 287 690 485 690 c 0
 655 690 860 580 860 340 c 1
 860 100 665 -10 475 -10 c 0
825 340 m 0
 825 509 695 650 485 650 c 0
 275 650 145 539 145 340 c 0
 145 141 275 30 485 30 c 0
 695 30 825 171 825 340 c 0
870 285 m 25
 825 448 l 1
 825 630 l 18
 825 944 631 1010 483 1010 c 0
 285 1010 156 885 156 885 c 1
 131 926 l 1
 131 926 259 1050 483 1050 c 0
 699 1050 870 948 870 598 c 1
 870 285 l 25
EndSplineSet
Substitution2: "sous-table 'smcp' Bas-de-casse vers petites capitales dans Latin lookup 0" ae.sc
Substitution2: "'ss04' Simplified a and g lookups0-1" ae.ss04
Colour: ff00
EndChar

StartChar: oslash
Encoding: 248 248 216
Width: 1076
VWidth: 1000
Flags: HMW
AnchorPoint: "top_center" 538 1040 basechar 0
AnchorPoint: "bottom_center" 538 0 basechar 0
LayerCount: 4
Fore
SplineSet
947 1086 m 1
 978 1060 l 1
 129 -46 l 1
 98 -21 l 1
 947 1086 l 1
145 520 m 0
 145 184 370 30 538 30 c 0
 706 30 931 184 931 520 c 0
 931 856 706 1010 538 1010 c 0
 370 1010 145 856 145 520 c 0
100 520 m 0
 100 832 291 1050 538 1050 c 0
 785 1050 976 832 976 520 c 0
 976 208 785 -10 538 -10 c 0
 291 -10 100 208 100 520 c 0
EndSplineSet
Substitution2: "sous-table 'smcp' Bas-de-casse vers petites capitales dans Latin lookup 0" oslash.sc
Colour: ff00
EndChar

StartChar: divide
Encoding: 247 247 217
Width: 1158
Flags: HMW
LayerCount: 4
Fore
SplineSet
520 1046 m 0
 520 1082 548 1110 584 1110 c 0
 620 1110 648 1082 648 1046 c 0
 648 1010 620 982 584 982 c 0
 548 982 520 1010 520 1046 c 0
520 274 m 4
 520 310 548 338 584 338 c 0
 620 338 648 310 648 274 c 0
 648 238 620 210 584 210 c 0
 548 210 520 238 520 274 c 4
140 640 m 1
 140 680 l 1
 1018 680 l 17
 1018 640 l 1
 140 640 l 1
EndSplineSet
Substitution2: "'ss07' Bigger basic math operators lookups0-1" divide.ss07
Colour: ff00
EndChar

StartChar: germandbls
Encoding: 223 223 218
Width: 1152
VWidth: 1000
Flags: HMW
LayerCount: 4
Back
SplineSet
607 856 m 0
 907 856 1144 661 1144 418 c 0
 1144 175 907 -20 607 -20 c 4
 525 -20 449 -6 383 20 c 5
 429 187 l 5
 478 161 537 148 607 148 c 4
 807 148 954 262 954 418 c 0
 954 574 807 688 607 688 c 0
 607 856 l 0
EndSplineSet
Fore
SplineSet
648 30 m 4
 604.011234776 30 508.7734375 36.9345703125 465.658203125 58.990234375 c 1
 454.416015625 17.021484375 l 1
 497.733398438 -4.2294921875 595.712634833 -10 648 -10 c 0
 911 -10 1065 136 1065 391 c 0
 1065 646 865 792 601 792 c 0
 601 752 l 0
 777 752 1020 657 1020 391 c 0
 1020 125 824 30 648 30 c 4
244 1101 m 0
 244 1341 412 1450 592 1450 c 0
 772 1450 941 1341 941 1101 c 0
 941 861 733 792 601 792 c 0
 620 759 l 0
 802 759 986 866 986 1101 c 0
 986 1356 816 1490 592 1490 c 0
 368 1490 199 1356 199 1101 c 0
 199 846 199 0 199 0 c 9
 244 0 l 17
 244 0 244 943 244 1101 c 0
EndSplineSet
Substitution2: "sous-table 'smcp' Bas-de-casse vers petites capitales dans Latin lookup 0" germandbls.sc
Colour: ff00
EndChar

StartChar: eth
Encoding: 240 240 219
Width: 1040
VWidth: 1000
Flags: HMW
LayerCount: 4
Fore
SplineSet
620 1398 m 1
 701 1445 l 1
 681 1480 l 1
 599 1432 l 1
 359 1294 l 1
 379 1259 l 1
 620 1398 l 1
359 1451 m 1
 580 1323 895 1080 895 520 c 0
 940 520 l 0
 940 1000 728 1290 382 1490 c 1
 359 1451 l 1
145 520 m 0
 145 856 345 1010 520 1010 c 0
 695 1010 895 856 895 520 c 1
 895 184 695 30 520 30 c 0
 345 30 145 184 145 520 c 0
100 520 m 0
 100 208 273 -10 520 -10 c 0
 767 -10 940 208 940 520 c 0
 940 520 929 520 919 520 c 1
 919 836 767 1050 520 1050 c 0
 273 1050 100 832 100 520 c 0
EndSplineSet
Colour: ff00
EndChar

StartChar: macron
Encoding: 175 175 220
Width: 736
VWidth: 1000
Flags: HMW
LayerCount: 4
Fore
SplineSet
100 1440 m 5
 100 1480 l 5
 636 1480 l 5
 636 1440 l 5
 100 1440 l 5
EndSplineSet
Colour: ff00
EndChar

StartChar: uni0304
Encoding: 772 772 221
Width: 0
VWidth: 1000
Flags: HMW
AnchorPoint: "top_center" 642 1040 mark 0
LayerCount: 4
Fore
SplineSet
374 1274 m 1
 374 1314 l 1
 910 1314 l 1
 910 1274 l 1
 374 1274 l 1
EndSplineSet
Colour: ffff00
EndChar

StartChar: uni0306
Encoding: 774 774 224
Width: 0
VWidth: 1000
Flags: HMW
AnchorPoint: "top_center" 642 1040 mark 0
LayerCount: 4
Fore
SplineSet
642 1224 m 0
 510 1224 396 1340 396 1480 c 1
 441 1480 l 1
 441 1354 532 1264 642 1264 c 0
 752 1264 843 1354 843 1480 c 1
 888 1480 l 1
 888 1340 774 1224 642 1224 c 0
EndSplineSet
Colour: ffff00
EndChar

StartChar: uni0328
Encoding: 808 808 226
Width: 0
VWidth: 1000
Flags: HMW
AnchorPoint: "bottom_right" 642 0 mark 0
LayerCount: 4
Fore
SplineSet
609 -225 m 1
 667 -326 l 1
 612 -364 569 -380 505 -380 c 0
 405 -380 315 -324 315 -204 c 0
 315 -84 507 44 562 80 c 4
 642 0 l 0
 534 -78 442 -137 442 -204 c 0
 442 -240 469 -263 505 -263 c 0
 541 -263 575 -250 609 -225 c 1
EndSplineSet
Layer: 2
SplineSet
654 -225 m 1
 712 -326 l 1
 657 -364 614 -380 550 -380 c 0
 450 -380 360 -310 360 -220 c 0
 360 -130 411 -62 519 0 c 0
 687 0 l 0
 579 -78 487 -137 487 -204 c 0
 487 -240 514 -263 550 -263 c 0
 586 -263 620 -250 654 -225 c 1
EndSplineSet
Colour: ffc71c
EndChar

StartChar: uni0307
Encoding: 775 775 229
Width: 0
VWidth: 1000
Flags: HMW
AnchorPoint: "top_center" 642 1040 mark 0
LayerCount: 4
Fore
SplineSet
578 1352 m 4
 578 1388 606 1416 642 1416 c 4
 678 1416 706 1388 706 1352 c 4
 706 1316 678 1288 642 1288 c 4
 606 1288 578 1316 578 1352 c 4
EndSplineSet
Colour: ff00
EndChar

StartChar: uni030C
Encoding: 780 780 230
Width: 0
VWidth: 1000
Flags: HMW
AnchorPoint: "top_center" 642 1040 mark 0
LayerCount: 4
Fore
SplineSet
529 1480 m 5
 737 1224 l 5
 547 1224 l 5
 351 1480 l 5
 529 1480 l 5
755 1480 m 5
 933 1480 l 5
 737 1224 l 5
 547 1224 l 5
 755 1480 l 5
EndSplineSet
Colour: ffff00
EndChar

StartChar: uni0237
Encoding: 567 567 317
Width: 465
Flags: HMW
AnchorPoint: "top_center" 302 1040 basechar 0
AnchorPoint: "bottom_center" 192 -360 basechar 0
LayerCount: 4
Fore
SplineSet
16 -384 m 5
 47 -404 74 -410 88 -410 c 0
 141 -410 280 -400 280 -210 c 2
 280 0 l 1
 280 138 l 1
 280 1040 l 1
 325 1040 l 1
 325 138 l 1
 325 0 l 1
 325 -210 l 2
 325 -380 238 -450 88 -450 c 0
 60 -450 30 -443 5 -426 c 1
 16 -384 l 5
EndSplineSet
Substitution2: "sous-table 'smcp' Bas-de-casse vers petites capitales dans Latin lookup 0" uni0237.sc
Colour: ff00
EndChar

StartChar: Dcroat
Encoding: 272 272 318
Width: 1448
Flags: HMW
LayerCount: 4
Fore
SplineSet
670 656 m 1
 670 824 l 1
 0 824 l 1
 0 778 0 702 0 656 c 1
 670 656 l 1
400 1312 m 25
 682 1312 l 17
 952 1312 1158 1073 1158 740 c 0
 1158 407 952 168 682 168 c 9
 400 168 l 25
 400 1312 l 25
682 0 m 1
 1062 0 1348 290 1348 740 c 0
 1348 1190 1062 1480 682 1480 c 1
 210 1480 l 1
 210 0 l 1
 400 0 l 25
 682 0 l 1
EndSplineSet
Substitution2: "sous-table 'c2sc' Capitales vers petites capitales dans Latin lookup 0" dcroat.sc
Colour: ffff
EndChar

StartChar: oe
Encoding: 339 339 319
Width: 2012
VWidth: 1000
Flags: HMW
LayerCount: 4
Fore
SplineSet
990 600 m 1
 1796 600 l 1
 1726 440 l 5
 990 440 l 1
 990 600 l 1
1726 340 m 1
 1879 252 l 1
 1796 74 1613 -20 1414 -20 c 0
 1133 -20 916 208 916 520 c 0
 916 832 1133 1060 1414 1060 c 0
 1695 1060 1912 832 1912 520 c 0
 1912 493 1910 466 1907 440 c 1
 1726 440 l 1
 1730 466 1732 492 1732 520 c 0
 1732 740 1605 900 1414 900 c 0
 1223 900 1096 740 1096 520 c 0
 1096 300 1223 140 1414 140 c 0
 1555 140 1677 207 1726 340 c 1
280 520 m 0
 280 300 407 140 598 140 c 0
 789 140 916 300 916 520 c 0
 916 740 789 900 598 900 c 0
 407 900 280 740 280 520 c 0
100 520 m 0
 100 832 317 1060 598 1060 c 0
 879 1060 1096 832 1096 520 c 0
 1096 208 879 -20 598 -20 c 0
 317 -20 100 208 100 520 c 0
EndSplineSet
Substitution2: "sous-table 'smcp' Bas-de-casse vers petites capitales dans Latin lookup 0" oe.sc
Colour: ff00
EndChar

StartChar: OE
Encoding: 338 338 320
Width: 2380
Flags: HMW
LayerCount: 4
Fore
SplineSet
290 740 m 0
 290 390 511 148 801 148 c 0
 1091 148 1312 390 1312 740 c 0
 1312 1090 1091 1332 801 1332 c 0
 511 1332 290 1090 290 740 c 0
100 740 m 0
 100 1179 406 1500 801 1500 c 0
 1196 1500 1502 1179 1502 740 c 0
 1502 301 1196 -20 801 -20 c 0
 406 -20 100 301 100 740 c 0
2145 824 m 17
 2145 656 l 9
 1502 656 l 17
 1502 168 l 1
 2240 168 l 1
 2240 0 l 1
 1312 0 l 25
 1312 1480 l 1
 2240 1480 l 17
 2240 1312 l 1
 1502 1312 l 1
 1502 824 l 9
 2145 824 l 17
EndSplineSet
Colour: ffff
EndChar

StartChar: dcaron
Encoding: 271 271 322
Width: 1472
VWidth: 1000
Flags: HMW
LayerCount: 4
Fore
SplineSet
1184 1371 m 0
 1184 1443 1237 1500 1309 1500 c 0
 1381 1500 1436 1443 1436 1371 c 0
 1436 1299 1381 1244 1309 1244 c 0
 1237 1244 1184 1299 1184 1371 c 0
1199 1103 m 1
 1256 1116 1345 1164 1345 1284 c 0
 1345 1312 1310 1372 1310 1372 c 1
 1309 1500 l 1
 1379 1500 1472 1454 1472 1284 c 0
 1472 1104 1306 1008 1229 988 c 1
 1199 1103 l 1
876 520 m 0
 876 750 758 900 578 900 c 0
 398 900 280 750 280 520 c 0
 280 290 398 140 578 140 c 0
 758 140 876 290 876 520 c 0
1044 168 m 1
 1044 66 1064 0 1064 0 c 1
 892 0 l 1
 892 0 876 60 876 120 c 1
 791 35 703 -20 578 -20 c 0
 297 -20 100 208 100 520 c 0
 100 832 297 1060 578 1060 c 0
 703 1060 779 1005 864 920 c 1
 864 1480 l 1
 1044 1480 l 1
 1044 168 l 1
EndSplineSet
Substitution2: "sous-table 'smcp' Bas-de-casse vers petites capitales dans Latin lookup 0" dcaron.sc
Colour: ff00
EndChar

StartChar: dcroat
Encoding: 273 273 323
Width: 1254
VWidth: 1000
Flags: HMW
LayerCount: 4
Fore
SplineSet
1254 1160 m 5
 584 1160 l 5
 584 1206 584 1274 584 1320 c 5
 1254 1320 l 5
 1254 1160 l 5
876 520 m 0
 876 750 758 900 578 900 c 0
 398 900 280 750 280 520 c 0
 280 290 398 140 578 140 c 0
 758 140 876 290 876 520 c 0
1044 168 m 1
 1044 66 1064 0 1064 0 c 1
 892 0 l 1
 892 0 876 60 876 120 c 1
 791 35 703 -20 578 -20 c 0
 297 -20 100 208 100 520 c 0
 100 832 297 1060 578 1060 c 0
 703 1060 779 1005 864 920 c 1
 864 1480 l 1
 1044 1480 l 1
 1044 168 l 1
EndSplineSet
Substitution2: "sous-table 'smcp' Bas-de-casse vers petites capitales dans Latin lookup 0" dcroat.sc
Colour: ff00
EndChar

StartChar: Hbar
Encoding: 294 294 324
Width: 1398
Flags: HMW
LayerCount: 4
Fore
SplineSet
1398 1004 m 5
 0 1004 l 5
 0 1050 0 1110 0 1156 c 5
 1398 1156 l 5
 1398 1004 l 5
140 1480 m 25
 330 1480 l 25
 330 824 l 25
 1068 824 l 25
 1068 1480 l 25
 1258 1480 l 25
 1258 0 l 25
 1068 0 l 25
 1068 656 l 25
 330 656 l 25
 330 0 l 25
 140 0 l 25
 140 1480 l 25
EndSplineSet
Substitution2: "sous-table 'c2sc' Capitales vers petites capitales dans Latin lookup 0" hbar.sc
Colour: ffff
EndChar

StartChar: hbar
Encoding: 295 295 325
Width: 1276
VWidth: 1000
Flags: HMW
LayerCount: 4
Fore
SplineSet
720 1160 m 1
 50 1160 l 1
 50 1206 50 1274 50 1320 c 1
 720 1320 l 1
 720 1160 l 1
956 0 m 1
 956 572 l 2
 956 791 878 900 698 900 c 0
 518 900 440 791 440 572 c 2
 440 0 l 1
 260 0 l 1
 260 1480 l 1
 432 1480 l 1
 432 920 l 1
 517 1005 613 1060 738 1060 c 0
 1008 1060 1136 892 1136 572 c 1
 1136 0 l 1
 956 0 l 1
EndSplineSet
Substitution2: "sous-table 'smcp' Bas-de-casse vers petites capitales dans Latin lookup 0" hbar.sc
Colour: ff00
EndChar

StartChar: Lcaron
Encoding: 317 317 332
Width: 1208
Flags: HMW
LayerCount: 4
Fore
SplineSet
470 1371 m 0
 470 1443 523 1500 595 1500 c 0
 667 1500 722 1443 722 1371 c 0
 722 1299 667 1244 595 1244 c 0
 523 1244 470 1299 470 1371 c 0
485 1103 m 1
 542 1116 631 1164 631 1284 c 0
 631 1312 596 1372 596 1372 c 1
 595 1500 l 1
 665 1500 758 1454 758 1284 c 0
 758 1104 592 1008 515 988 c 1
 485 1103 l 1
330 1480 m 17
 330 168 l 1
 1068 168 l 1
 1068 0 l 1
 140 0 l 25
 140 1480 l 1
 330 1480 l 17
EndSplineSet
Substitution2: "sous-table 'c2sc' Capitales vers petites capitales dans Latin lookup 0" lcaron.sc
Colour: ffff
EndChar

StartChar: lcaron
Encoding: 318 318 333
Width: 748
Flags: HMW
LayerCount: 4
Fore
SplineSet
460 1371 m 0
 460 1443 513 1500 585 1500 c 0
 657 1500 712 1443 712 1371 c 0
 712 1299 657 1244 585 1244 c 0
 513 1244 460 1299 460 1371 c 0
475 1103 m 1
 532 1116 621 1164 621 1284 c 0
 621 1312 586 1372 586 1372 c 1
 585 1500 l 1
 655 1500 748 1454 748 1284 c 0
 748 1104 582 1008 505 988 c 1
 475 1103 l 1
462 156 m 1
 504 4 l 1
 482 -9 442 -20 410 -20 c 0
 240 -20 140 60 140 230 c 2
 140 440 l 1
 140 578 l 1
 140 1480 l 1
 320 1480 l 1
 320 578 l 1
 320 440 l 1
 320 230 l 2
 320 170 350 140 410 140 c 0
 426 140 450 149 462 156 c 1
EndSplineSet
Substitution2: "sous-table 'smcp' Bas-de-casse vers petites capitales dans Latin lookup 0" lcaron.sc
Colour: ff00
EndChar

StartChar: Lslash
Encoding: 321 321 334
Width: 1208
Flags: HMW
LayerCount: 4
Fore
SplineSet
600 1100 m 5
 600 907 l 5
 -70 520 l 5
 -70 713 l 5
 600 1100 l 5
330 1480 m 17
 330 168 l 1
 1068 168 l 1
 1068 0 l 1
 140 0 l 25
 140 1480 l 1
 330 1480 l 17
EndSplineSet
Substitution2: "sous-table 'c2sc' Capitales vers petites capitales dans Latin lookup 0" lslash.sc
Colour: ffff
EndChar

StartChar: lslash
Encoding: 322 322 335
Width: 509
Flags: HMW
LayerCount: 4
Fore
SplineSet
530 1060 m 1
 530 867 l 1
 -70 520 l 1
 -70 713 l 1
 530 1060 l 1
462 156 m 1
 504 4 l 1
 482 -9 442 -20 410 -20 c 0
 240 -20 140 60 140 230 c 2
 140 440 l 1
 140 578 l 1
 140 1480 l 1
 320 1480 l 1
 320 578 l 1
 320 440 l 1
 320 230 l 2
 320 170 350 140 410 140 c 0
 426 140 450 149 462 156 c 1
EndSplineSet
Substitution2: "sous-table 'smcp' Bas-de-casse vers petites capitales dans Latin lookup 0" lslash.sc
Colour: ff00
EndChar

StartChar: Eng
Encoding: 330 330 339
Width: 1398
Flags: HMW
LayerCount: 4
Fore
SplineSet
1258 -202 m 6
 1258 -372 1148 -460 978 -460 c 0
 946 -460 896 -449 874 -436 c 1
 916 -284 l 1
 928 -291 962 -292 978 -292 c 0
 1038 -292 1068 -262 1068 -202 c 2
 1068 0 l 1
 1258 0 l 1
 1258 -202 l 6
330 1480 m 1
 1068 320 l 25
 1068 1480 l 1
 1258 1480 l 25
 1258 0 l 25
 1068 0 l 1
 330 1160 l 1
 330 0 l 1
 140 0 l 25
 140 1480 l 1
 330 1480 l 1
EndSplineSet
Substitution2: "sous-table 'c2sc' Capitales vers petites capitales dans Latin lookup 0" eng.sc
Colour: ffff
EndChar

StartChar: eng
Encoding: 331 331 340
Width: 1156
VWidth: 1000
Flags: HMW
LayerCount: 4
Fore
SplineSet
1016 -210 m 2
 1016 -380 916 -460 746 -460 c 0
 714 -460 674 -449 652 -436 c 1
 694 -284 l 1
 706 -291 730 -300 746 -300 c 0
 806 -300 836 -270 836 -210 c 2
 836 0 l 1
 1016 0 l 1
 1016 -210 l 2
836 572 m 6
 836 791 758 900 578 900 c 0
 398 900 320 791 320 572 c 2
 320 0 l 1
 140 0 l 1
 140 1040 l 1
 308 1040 l 1
 308 920 l 1
 393 1005 493 1060 618 1060 c 0
 888 1060 1016 892 1016 572 c 1
 1016 0 l 1
 836 0 l 1
 836 572 l 6
EndSplineSet
Substitution2: "sous-table 'smcp' Bas-de-casse vers petites capitales dans Latin lookup 0" eng.sc
Colour: ff00
EndChar

StartChar: afii57929
Encoding: 700 700 341
Width: 428
VWidth: 1000
Flags: HMW
LayerCount: 4
Fore
SplineSet
70 1371 m 0
 70 1443 123 1500 195 1500 c 0
 267 1500 322 1443 322 1371 c 0
 322 1299 267 1244 195 1244 c 0
 123 1244 70 1299 70 1371 c 0
85 1103 m 1
 142 1116 231 1164 231 1284 c 0
 231 1312 196 1372 196 1372 c 1
 195 1500 l 1
 265 1500 358 1454 358 1284 c 0
 358 1104 192 1008 115 988 c 1
 85 1103 l 1
EndSplineSet
Colour: ff00
EndChar

StartChar: uni030B
Encoding: 779 779 342
Width: 0
VWidth: 1000
Flags: HMW
AnchorPoint: "top_center" 642 1040 mark 0
LayerCount: 4
Fore
SplineSet
883 1224 m 5
 705 1224 l 5
 883 1480 l 5
 1109 1480 l 5
 883 1224 l 5
479 1224 m 5
 301 1224 l 5
 479 1480 l 5
 705 1480 l 5
 479 1224 l 5
EndSplineSet
Colour: ffff00
EndChar

StartChar: tcaron
Encoding: 357 357 349
Width: 1148
VWidth: 1000
Flags: HMW
LayerCount: 4
Fore
SplineSet
860 1371 m 0
 860 1443 913 1500 985 1500 c 0
 1057 1500 1112 1443 1112 1371 c 0
 1112 1299 1057 1244 985 1244 c 0
 913 1244 860 1299 860 1371 c 0
875 1103 m 1
 932 1116 1021 1164 1021 1284 c 0
 1021 1312 986 1372 986 1372 c 1
 985 1500 l 1
 1055 1500 1148 1454 1148 1284 c 0
 1148 1104 982 1008 905 988 c 1
 875 1103 l 1
122 1028 m 17
 212 1028 272 1092 272 1182 c 9
 272 1320 l 1
 440 1320 l 1
 440 1040 l 1
 720 1040 l 1
 720 880 l 1
 440 880 l 1
 440 300 l 2
 440 198 498 140 600 140 c 0
 643 140 694 156 720 175 c 1
 765 12 l 1
 720 -6 656 -20 600 -20 c 0
 400 -20 260 101 260 300 c 2
 260 880 l 1
 50 880 l 1
 50 926 50 982 50 1028 c 1
 122 1028 l 17
EndSplineSet
Substitution2: "sous-table 'smcp' Bas-de-casse vers petites capitales dans Latin lookup 0" tcaron.sc
Colour: ff00
EndChar

StartChar: tbar
Encoding: 359 359 350
Width: 770
VWidth: 1000
Flags: HMW
LayerCount: 4
Fore
SplineSet
50 440 m 1
 50 486 50 554 50 600 c 1
 720 600 l 1
 720 440 l 1
 50 440 l 1
122 1028 m 17
 212 1028 272 1092 272 1182 c 9
 272 1320 l 1
 440 1320 l 1
 440 1040 l 1
 720 1040 l 1
 720 880 l 1
 440 880 l 1
 440 300 l 2
 440 198 498 140 600 140 c 0
 643 140 694 156 720 175 c 1
 765 12 l 1
 720 -6 656 -20 600 -20 c 0
 400 -20 260 101 260 300 c 2
 260 880 l 1
 50 880 l 1
 50 926 50 982 50 1028 c 1
 122 1028 l 17
EndSplineSet
Substitution2: "sous-table 'smcp' Bas-de-casse vers petites capitales dans Latin lookup 0" tbar.sc
Colour: ff00
EndChar

StartChar: Tbar
Encoding: 358 358 351
Width: 1398
Flags: HMW
LayerCount: 4
Fore
SplineSet
1034 656 m 5
 364 656 l 5
 364 702 364 778 364 824 c 5
 1034 824 l 5
 1034 656 l 5
794 0 m 25
 604 0 l 25
 604 1312 l 25
 140 1312 l 25
 140 1480 l 25
 1258 1480 l 25
 1258 1312 l 25
 794 1312 l 25
 794 0 l 25
EndSplineSet
Substitution2: "sous-table 'c2sc' Capitales vers petites capitales dans Latin lookup 0" tbar.sc
Colour: ffff
EndChar

StartChar: zero.subscript
Encoding: 8320 8320 353
Width: 740
Flags: HMW
LayerCount: 4
Fore
SplineSet
130 241 m 0
 130 -26 231 -164 370 -164 c 0
 509 -164 610 -26 610 241 c 0
 610 508 509 646 370 646 c 0
 231 646 130 508 130 241 c 0
97 241 m 0
 97 531 213 676 370 676 c 0
 527 676 643 531 643 241 c 0
 643 -49 527 -194 370 -194 c 0
 213 -194 97 -49 97 241 c 0
EndSplineSet
Substitution2: "'tnum' Tabular Numbers lookups0-1" zero.subscript.tnum
Substitution2: "'pnum' Proportional Numbers lookups0-1" zero.subscript.pnum
Colour: ff8000
EndChar

StartChar: four.subscript
Encoding: 8324 8324 354
Width: 740
Flags: HMW
LayerCount: 4
Fore
SplineSet
434 670 m 1
 394 670 l 1
 116 58 l 1
 116 34 l 1
 448 34 l 1
 448 -188 l 1
 481 -188 l 1
 481 34 l 1
 624 34 l 1
 624 65 l 1
 481 65 l 1
 481 281 l 1
 448 281 l 1
 448 65 l 1
 154 65 l 1
 434 670 l 1
EndSplineSet
Substitution2: "'tnum' Tabular Numbers lookups0-1" four.subscript.tnum
Substitution2: "'pnum' Proportional Numbers lookups0-1" four.subscript.pnum
Colour: ff8000
EndChar

StartChar: five.subscript
Encoding: 8325 8325 355
Width: 740
Flags: HMW
LayerCount: 4
Fore
SplineSet
200 670 m 5
 216 670 l 1
 596 670 l 1
 596 640 l 1
 214 640 l 1
 160 276 l 1
 203 340 264 379 370 379 c 0
 515 379 636 261 636 92 c 0
 636 -77 523 -194 368 -194 c 0
 213 -194 107 -105 104 34 c 1
 136 41 l 1
 136 -91 238 -164 368 -164 c 0
 517 -164 602 -40 602 92 c 0
 602 224 511 348 368 348 c 0
 225 348 183 271 152 219 c 1
 124 227 l 1
 190 670 l 1
 200 670 l 5
EndSplineSet
Substitution2: "'tnum' Tabular Numbers lookups0-1" five.subscript.tnum
Substitution2: "'pnum' Proportional Numbers lookups0-1" five.subscript.pnum
Colour: ff8000
EndChar

StartChar: six.subscript
Encoding: 8326 8326 356
Width: 740
Flags: HMW
LayerCount: 4
Fore
SplineSet
127 159 m 1
 149 303 254 379 383 379 c 0
 528 379 648 261 648 92 c 0
 648 -77 528 -194 382 -194 c 0
 270 -194 173 -125 134 -17 c 0
 116 24 92 101 92 223 c 0
 92 523 238 676 425 676 c 0
 563 676 620 596 620 596 c 1
 602 569 l 1
 602 569 552 646 417 646 c 0
 282 646 104 527 127 159 c 1
144 92 m 0
 144 -40 231 -164 380 -164 c 0
 529 -164 615 -40 615 92 c 0
 615 224 523 348 380 348 c 0
 237 348 144 224 144 92 c 0
EndSplineSet
Substitution2: "'tnum' Tabular Numbers lookups0-1" six.subscript.tnum
Substitution2: "'pnum' Proportional Numbers lookups0-1" six.subscript.pnum
Colour: ff8000
EndChar

StartChar: seven.subscript
Encoding: 8327 8327 357
Width: 740
Flags: HMW
LayerCount: 4
Fore
SplineSet
116 640 m 1
 116 670 l 1
 624 670 l 1
 624 643 l 1
 624 643 341 294 304 -188 c 1
 299 -188 276 -188 271 -188 c 1
 305 262 547 592 584 640 c 1
 116 640 l 1
EndSplineSet
Substitution2: "'tnum' Tabular Numbers lookups0-1" seven.subscript.tnum
Substitution2: "'pnum' Proportional Numbers lookups0-1" seven.subscript.pnum
Colour: ff8000
EndChar

StartChar: eight.subscript
Encoding: 8328 8328 358
Width: 740
Flags: HMW
LayerCount: 4
Fore
SplineSet
90 38 m 0
 90 179 216 247 288 261 c 1
 221 269 119 334 119 464 c 0
 119 594 222 676 370 676 c 0
 518 676 621 594 621 464 c 0
 621 334 520 269 453 261 c 1
 525 247 650 179 650 38 c 0
 650 -103 534 -194 370 -194 c 0
 206 -194 90 -103 90 38 c 0
152 461 m 0
 152 350 251 276 370 276 c 0
 489 276 588 350 588 461 c 0
 588 577 489 646 370 646 c 0
 251 646 152 577 152 461 c 0
370 246 m 0
 257 246 123 173 123 41 c 0
 123 -91 233 -164 370 -164 c 0
 507 -164 617 -91 617 41 c 0
 617 173 483 246 370 246 c 0
EndSplineSet
Substitution2: "'tnum' Tabular Numbers lookups0-1" eight.subscript.tnum
Substitution2: "'pnum' Proportional Numbers lookups0-1" eight.subscript.pnum
Colour: ff8000
EndChar

StartChar: nine.subscript
Encoding: 8329 8329 359
Width: 740
Flags: HMW
LayerCount: 4
Fore
SplineSet
613 323 m 1
 591 179 486 103 357 103 c 0
 212 103 92 221 92 390 c 0
 92 559 212 676 358 676 c 0
 470 676 567 607 606 499 c 0
 624 458 648 381 648 259 c 0
 648 -41 502 -194 315 -194 c 0
 177 -194 120 -114 120 -114 c 1
 138 -87 l 1
 138 -87 188 -164 323 -164 c 0
 458 -164 636 -45 613 323 c 1
596 390 m 0
 596 522 509 646 360 646 c 0
 211 646 125 522 125 390 c 0
 125 258 217 134 360 134 c 0
 503 134 596 258 596 390 c 0
EndSplineSet
Substitution2: "'tnum' Tabular Numbers lookups0-1" nine.subscript.tnum
Substitution2: "'pnum' Proportional Numbers lookups0-1" nine.subscript.pnum
Colour: ff8000
EndChar

StartChar: two.subscript
Encoding: 8322 8322 360
Width: 740
Flags: HMW
LayerCount: 4
Fore
SplineSet
111 -188 m 1
 111 -121 113 -11 367 134 c 0
 530 227 592 293 592 418 c 0
 592 557 503 646 370 646 c 0
 234 646 148 535 148 384 c 0
 148 382 148 380 149 376 c 1
 115 384 l 1
 115 563 224 676 370 676 c 0
 516 676 625 584 625 418 c 0
 625 256 502 175 372 101 c 0
 253 33 159 -42 145 -158 c 1
 630 -158 l 1
 630 -188 l 1
 143 -188 l 1
 120 -188 l 1
 111 -188 l 1
EndSplineSet
Substitution2: "'tnum' Tabular Numbers lookups0-1" two.subscript.tnum
Substitution2: "'pnum' Proportional Numbers lookups0-1" two.subscript.pnum
Colour: ff8000
EndChar

StartChar: three.subscript
Encoding: 8323 8323 361
Width: 740
Flags: HMW
LayerCount: 4
Fore
SplineSet
367 276 m 2
 483 276 572 350 572 461 c 0
 572 577 483 646 367 646 c 0
 237 646 147 573 147 441 c 0
 114 448 l 1
 117 587 213 676 368 676 c 0
 512 676 605 594 605 464 c 0
 605 334 513 269 447 261 c 1
 518 247 641 179 641 38 c 0
 641 -103 528 -194 369 -194 c 0
 211 -194 103 -105 100 34 c 1
 133 41 l 0
 133 -91 236 -164 369 -164 c 0
 502 -164 608 -91 608 41 c 0
 608 173 478 246 368 246 c 2
 319 246 l 25
 319 276 l 25
 367 276 l 2
EndSplineSet
Substitution2: "'tnum' Tabular Numbers lookups0-1" three.subscript.tnum
Substitution2: "'pnum' Proportional Numbers lookups0-1" three.subscript.pnum
Colour: ff8000
EndChar

StartChar: one.subscript
Encoding: 8321 8321 362
Width: 740
Flags: HMW
LayerCount: 4
Fore
SplineSet
390 432 m 1
 196 432 l 1
 196 463 l 1
 280 463 l 2
 377 463 390 480 390 586 c 2
 390 670 l 1
 424 670 l 1
 424 415 l 1
 424 -188 l 1
 390 -188 l 1
 390 432 l 1
EndSplineSet
Substitution2: "'tnum' Tabular Numbers lookups0-1" one.subscript.tnum
Substitution2: "'pnum' Proportional Numbers lookups0-1" one.subscript.pnum
Colour: ff8000
EndChar

StartChar: longs
Encoding: 383 383 363
Width: 695
VWidth: 1000
Flags: HMW
AnchorPoint: "top_center" 390 1400 basechar 0
AnchorPoint: "bottom_center" 230 0 basechar 0
LayerCount: 4
Fore
SplineSet
320 1040 m 1
 320 1180 l 2
 320 1282 378 1340 480 1340 c 0
 523 1340 574 1324 600 1305 c 1
 645 1468 l 1
 600 1486 536 1500 480 1500 c 0
 280 1500 140 1380 140 1180 c 2
 140 1040 l 1
 140 0 l 1
 320 0 l 1
 320 1040 l 1
EndSplineSet
Colour: ff00
EndChar

StartChar: uni0180
Encoding: 384 384 364
Width: 1254
VWidth: 1000
Flags: HMW
LayerCount: 4
Fore
SplineSet
670 1160 m 1
 0 1160 l 1
 0 1206 0 1274 0 1320 c 1
 670 1320 l 1
 670 1160 l 1
378 520 m 0
 378 290 496 140 676 140 c 0
 856 140 974 290 974 520 c 0
 974 750 856 900 676 900 c 0
 496 900 378 750 378 520 c 0
210 168 m 1
 210 1480 l 1
 390 1480 l 1
 390 920 l 1
 475 1005 551 1060 676 1060 c 0
 957 1060 1154 832 1154 520 c 0
 1154 208 957 -20 676 -20 c 0
 551 -20 467 35 382 120 c 5
 382 0 l 1
 210 0 l 1
 210 0 210 66 210 168 c 1
EndSplineSet
Substitution2: "sous-table 'smcp' Bas-de-casse vers petites capitales dans Latin lookup 0" uni0180.sc
Colour: ff00
EndChar

StartChar: uni0181
Encoding: 385 385 365
Width: 1473
Flags: HMW
LayerCount: 4
Fore
SplineSet
196 1110 m 1
 4 1110 l 1
 1 1126 0 1143 0 1160 c 0
 0 1338 152 1480 330 1480 c 0
 345 1480 360 1479 374 1477 c 1
 374 1306 l 1
 361 1310 346 1312 330 1312 c 0
 240 1312 190 1250 190 1160 c 0
 190 1142 191 1125 196 1110 c 1
897 1480 m 5
 1117 1480 1309 1330 1309 1110 c 0
 1309 890 1117 740 897 740 c 1
 897 908 l 17
 1022 908 1119 987 1119 1112 c 0
 1119 1237 1022 1312 897 1312 c 9
 520 1312 l 1
 520 1480 l 25
 897 1480 l 5
520 168 m 25
 897 168 l 17
 1062 168 1183 289 1183 454 c 0
 1183 619 1062 740 897 740 c 9
 520 740 l 25
 520 168 l 25
330 1480 m 1
 520 1480 l 25
 520 908 l 1
 897 908 l 1
 1152 908 1373 709 1373 454 c 0
 1373 199 1152 0 897 0 c 1
 330 0 l 1
 330 1480 l 1
EndSplineSet
Colour: ffff
EndChar

StartChar: uni0182
Encoding: 386 386 366
Width: 1283
Flags: HMW
LayerCount: 4
Fore
SplineSet
1068 1312 m 9
 330 1312 l 1
 330 1480 l 25
 1068 1480 l 1
 1068 1312 l 9
330 168 m 25
 707 168 l 17
 872 168 993 289 993 454 c 0
 993 619 872 740 707 740 c 9
 330 740 l 25
 330 168 l 25
140 1480 m 1
 330 1480 l 25
 330 908 l 1
 707 908 l 1
 962 908 1183 709 1183 454 c 0
 1183 199 962 0 707 0 c 1
 140 0 l 1
 140 1480 l 1
EndSplineSet
Substitution2: "sous-table 'c2sc' Capitales vers petites capitales dans Latin lookup 0" uni0183.sc
Colour: ffff
EndChar

StartChar: uni0183
Encoding: 387 387 367
Width: 1184
VWidth: 1000
Flags: HMW
LayerCount: 4
Fore
SplineSet
979 1320 m 13
 320 1320 l 5
 320 1480 l 29
 979 1480 l 5
 979 1320 l 13
308 520 m 0
 308 290 426 140 606 140 c 0
 786 140 904 290 904 520 c 0
 904 750 786 900 606 900 c 0
 426 900 308 750 308 520 c 0
140 168 m 1
 140 1480 l 1
 320 1480 l 5
 320 920 l 1
 405 1005 481 1060 606 1060 c 0
 887 1060 1084 832 1084 520 c 0
 1084 208 887 -20 606 -20 c 0
 481 -20 397 35 312 120 c 5
 312 0 l 1
 140 0 l 1
 140 0 140 66 140 168 c 1
EndSplineSet
Substitution2: "sous-table 'smcp' Bas-de-casse vers petites capitales dans Latin lookup 0" uni0183.sc
Colour: ff00
EndChar

StartChar: uni0184
Encoding: 388 388 368
Width: 1283
Flags: HMW
LayerCount: 4
Fore
SplineSet
330 168 m 25
 707 168 l 17
 872 168 993 289 993 454 c 0
 993 619 872 740 707 740 c 9
 330 740 l 25
 330 168 l 25
223 1480 m 1
 330 1480 l 25
 330 908 l 1
 707 908 l 1
 962 908 1183 709 1183 454 c 0
 1183 199 962 0 707 0 c 1
 140 0 l 1
 140 1160 l 1
 -50 1270 l 1
 223 1480 l 1
EndSplineSet
Substitution2: "sous-table 'c2sc' Capitales vers petites capitales dans Latin lookup 0" uni0185.sc
Colour: ffff
EndChar

StartChar: uni0185
Encoding: 389 389 369
Width: 1184
VWidth: 1000
Flags: HMW
LayerCount: 4
Fore
SplineSet
308 520 m 0
 308 290 426 140 606 140 c 0
 786 140 904 290 904 520 c 0
 904 750 786 900 606 900 c 0
 426 900 308 750 308 520 c 0
320 1480 m 17
 320 920 l 1
 405 1005 481 1060 606 1060 c 0
 887 1060 1084 832 1084 520 c 0
 1084 208 887 -20 606 -20 c 0
 481 -20 397 35 312 120 c 5
 312 0 l 1
 140 0 l 1
 140 0 140 66 140 168 c 1
 140 1160 l 1
 -50 1270 l 1
 223 1480 l 1
 320 1480 l 17
EndSplineSet
Substitution2: "sous-table 'smcp' Bas-de-casse vers petites capitales dans Latin lookup 0" uni0185.sc
Colour: ff00
EndChar

StartChar: uni0186
Encoding: 390 390 370
Width: 1514
Flags: HMW
LayerCount: 4
Fore
SplineSet
261 1028 m 1
 344 1215 512 1332 713 1332 c 0
 1003 1332 1224 1090 1224 740 c 0
 1224 390 1003 148 713 148 c 0
 512 148 344 265 261 452 c 1
 100 360 l 1
 218 128 445 -20 713 -20 c 0
 1108 -20 1414 301 1414 740 c 0
 1414 1179 1108 1500 713 1500 c 0
 445 1500 218 1352 100 1120 c 1
 261 1028 l 1
EndSplineSet
Colour: ffff
EndChar

StartChar: uni0187
Encoding: 391 391 371
Width: 1586
Flags: HMW
LayerCount: 4
Fore
SplineSet
1542 1500 m 4
 1557 1500 1572 1499 1586 1497 c 1
 1586 1326 l 1
 1573 1330 1558 1332 1542 1332 c 0
 1452 1332 1402 1270 1402 1180 c 0
 1402 1162 1403 1145 1408 1130 c 1
 1216 1130 l 1
 1213 1146 1212 1163 1212 1180 c 0
 1212 1358 1364 1500 1542 1500 c 4
1253 1028 m 1
 1170 1215 1002 1332 801 1332 c 0
 511 1332 290 1090 290 740 c 0
 290 390 511 148 801 148 c 0
 1002 148 1170 265 1253 452 c 1
 1414 360 l 1
 1296 128 1069 -20 801 -20 c 0
 406 -20 100 301 100 740 c 0
 100 1179 406 1500 801 1500 c 0
 1069 1500 1296 1352 1414 1120 c 1
 1253 1028 l 1
EndSplineSet
Substitution2: "sous-table 'c2sc' Capitales vers petites capitales dans Latin lookup 0" uni0188.sc
Colour: ffff
EndChar

StartChar: uni0188
Encoding: 392 392 372
Width: 1228
VWidth: 1000
Flags: HMW
LayerCount: 4
Fore
SplineSet
1184 1160 m 4
 1199 1160 1214 1159 1228 1157 c 1
 1228 994 l 1
 1215 998 1200 1000 1184 1000 c 0
 1094 1000 1034 930 1034 840 c 0
 1034 822 1035 805 1040 790 c 1
 858 790 l 1
 855 806 854 823 854 840 c 0
 854 1018 1006 1160 1184 1160 c 4
280 520 m 0
 280 300 407 140 598 140 c 0
 739 140 840 207 889 340 c 1
 1042 252 l 1
 959 74 797 -20 598 -20 c 0
 317 -20 100 208 100 520 c 0
 100 832 317 1060 598 1060 c 0
 797 1060 959 966 1042 788 c 1
 889 700 l 1
 840 833 739 900 598 900 c 0
 407 900 280 740 280 520 c 0
EndSplineSet
Substitution2: "sous-table 'smcp' Bas-de-casse vers petites capitales dans Latin lookup 0" uni0188.sc
Colour: ff00
EndChar

StartChar: uni018A
Encoding: 394 394 374
Width: 1568
Flags: HMW
LayerCount: 4
Fore
SplineSet
196 1110 m 1
 4 1110 l 1
 1 1126 0 1143 0 1160 c 0
 0 1338 152 1480 330 1480 c 0
 345 1480 360 1479 374 1477 c 1
 374 1306 l 1
 361 1310 346 1312 330 1312 c 0
 240 1312 190 1250 190 1160 c 0
 190 1142 191 1125 196 1110 c 1
520 1312 m 25
 520 168 l 25
 802 168 l 17
 1072 168 1278 407 1278 740 c 0
 1278 1073 1072 1312 802 1312 c 9
 520 1312 l 25
802 0 m 1
 520 0 l 25
 330 0 l 1
 330 1480 l 1
 802 1480 l 1
 1182 1480 1468 1190 1468 740 c 0
 1468 290 1182 0 802 0 c 1
EndSplineSet
Colour: ffff
EndChar

StartChar: uni018B
Encoding: 395 395 375
Width: 1283
Flags: HMW
LayerCount: 4
Fore
SplineSet
215 1312 m 9
 953 1312 l 1
 953 1480 l 25
 215 1480 l 1
 215 1312 l 9
953 168 m 25
 576 168 l 17
 411 168 290 289 290 454 c 0
 290 619 411 740 576 740 c 9
 953 740 l 25
 953 168 l 25
1143 1480 m 1
 953 1480 l 25
 953 908 l 1
 576 908 l 1
 321 908 100 709 100 454 c 0
 100 199 321 0 576 0 c 1
 1143 0 l 1
 1143 1480 l 1
EndSplineSet
Substitution2: "sous-table 'c2sc' Capitales vers petites capitales dans Latin lookup 0" uni018C.sc
Colour: ffff
EndChar

StartChar: uni018C
Encoding: 396 396 376
Width: 1184
VWidth: 1000
Flags: HMW
LayerCount: 4
Fore
SplineSet
205 1320 m 9
 864 1320 l 1
 864 1480 l 25
 205 1480 l 1
 205 1320 l 9
876 520 m 0
 876 290 758 140 578 140 c 0
 398 140 280 290 280 520 c 0
 280 750 398 900 578 900 c 0
 758 900 876 750 876 520 c 0
1044 168 m 1
 1044 1480 l 1
 864 1480 l 1
 864 920 l 1
 779 1005 703 1060 578 1060 c 0
 297 1060 100 832 100 520 c 0
 100 208 297 -20 578 -20 c 0
 703 -20 787 35 872 120 c 1
 872 60 888 0 888 0 c 1
 1064 0 l 1
 1064 0 1044 66 1044 168 c 1
EndSplineSet
Substitution2: "sous-table 'smcp' Bas-de-casse vers petites capitales dans Latin lookup 0" uni018C.sc
Colour: ff00
EndChar

StartChar: uni018D
Encoding: 397 397 377
Width: 1196
VWidth: 1000
Flags: HMW
LayerCount: 4
Fore
SplineSet
1096 520 m 0
 1096 208 879 20 598 20 c 4
 598 140 l 0
 789 140 916 300 916 520 c 0
 916 740 789 900 598 900 c 0
 407 900 280 740 280 520 c 0
 280 300 407 140 598 140 c 0
 598 -20 l 0
 317 -20 100 208 100 520 c 0
 100 832 317 1060 598 1060 c 0
 879 1060 1096 832 1096 520 c 0
519 -469 m 0
 339 -469 199 -345 199 -345 c 1
 281 -204 l 1
 281 -204 408 -310 558 -310 c 0
 808 -310 848 -217 848 -157 c 0
 848 -97 818 -20 598 -20 c 0
 598 140 l 0
 898 140 1028 -7 1028 -157 c 0
 1028 -307 899 -469 519 -469 c 0
EndSplineSet
Colour: ff00
EndChar

StartChar: uni018E
Encoding: 398 398 378
Width: 1208
Flags: HMW
LayerCount: 4
Fore
SplineSet
235 656 m 17
 235 824 l 9
 878 824 l 17
 878 1312 l 1
 140 1312 l 1
 140 1480 l 1
 1068 1480 l 25
 1068 0 l 1
 140 0 l 17
 140 168 l 1
 878 168 l 1
 878 656 l 9
 235 656 l 17
EndSplineSet
Substitution2: "sous-table 'c2sc' Capitales vers petites capitales dans Latin lookup 0" uni01DD.sc
Colour: ffff
EndChar

StartChar: uni018F
Encoding: 399 399 379
Width: 1602
Flags: HMW
LayerCount: 4
Fore
SplineSet
104 824 m 1
 102 797 100 769 100 740 c 0
 100 301 406 -20 801 -20 c 0
 1196 -20 1502 291 1502 730 c 0
 1502 1169 1196 1500 801 1500 c 0
 533 1500 282 1351 164 1119 c 1
 325 1027 l 1
 408 1214 600 1332 801 1332 c 0
 1091 1332 1312 1090 1312 740 c 0
 1312 390 1091 148 801 148 c 0
 511 148 290 390 290 740 c 0
 290 769 291 797 294 824 c 1
 104 824 l 1
1406 656 m 25
 1406 824 l 1
 294 824 l 25
 198 656 l 1
 1406 656 l 25
EndSplineSet
Colour: ffff
EndChar

StartChar: uni0190
Encoding: 400 400 380
Width: 1222
VWidth: 1000
Flags: HMW
LayerCount: 4
Fore
SplineSet
612 856 m 2
 437 856 335 957 335 1094 c 0
 335 1231 437 1332 612 1332 c 0
 787 1332 891 1207 891 1070 c 0
 1078 1120 l 1
 1052 1321 887 1500 612 1500 c 0
 337 1500 145 1321 145 1098 c 0
 145 969 209 854 317 781 c 1
 182 702 100 570 100 418 c 0
 100 175 312 -20 612 -20 c 0
 893 -20 1095 158 1122 396 c 1
 935 446 l 0
 935 290 812 148 612 148 c 0
 412 148 290 266 290 422 c 0
 290 578 412 696 612 696 c 2
 707 696 l 25
 707 856 l 25
 612 856 l 2
EndSplineSet
Colour: ffff
EndChar

StartChar: uni0191
Encoding: 401 401 381
Width: 1208
Flags: HMW
LayerCount: 4
Fore
SplineSet
-44 -146 m 5
 -31 -150 -16 -152 -0 -152 c 0
 90 -152 140 -90 140 0 c 0
 330 0 l 0
 330 -178 178 -320 0 -320 c 0
 -15 -320 -30 -319 -44 -317 c 1
 -44 -146 l 5
330 168 m 1
 330 0 l 1
 140 0 l 1
 140 1480 l 1
 1068 1480 l 17
 1068 1312 l 1
 330 1312 l 1
 330 824 l 9
 973 824 l 17
 973 656 l 9
 330 656 l 17
 330 168 l 1
EndSplineSet
Colour: ffff
EndChar

StartChar: florin
Encoding: 402 402 382
Width: 770
VWidth: 1000
Flags: HMW
LayerCount: 4
Fore
SplineSet
67 -146 m 1
 80 -150 95 -152 111 -152 c 0
 201 -152 260 -90 260 0 c 0
 440 0 l 0
 440 -178 289 -312 111 -312 c 0
 96 -312 81 -311 67 -309 c 1
 67 -146 l 1
720 1305 m 1
 694 1324 643 1340 600 1340 c 0
 498 1340 440 1282 440 1180 c 2
 440 1040 l 1
 720 1040 l 1
 720 880 l 1
 440 880 l 1
 440 0 l 1
 260 0 l 1
 260 880 l 1
 50 880 l 1
 50 1040 l 1
 260 1040 l 1
 260 1180 l 2
 260 1380 400 1500 600 1500 c 0
 656 1500 720 1486 765 1468 c 1
 720 1305 l 1
EndSplineSet
Substitution2: "sous-table 'smcp' Bas-de-casse vers petites capitales dans Latin lookup 0" florin.sc
Colour: ff00
EndChar

StartChar: uni0193
Encoding: 403 403 383
Width: 1586
Flags: HMW
LayerCount: 4
Fore
SplineSet
1542 1500 m 4
 1557 1500 1572 1499 1586 1497 c 1
 1586 1326 l 1
 1573 1330 1558 1332 1542 1332 c 0
 1452 1332 1402 1270 1402 1180 c 0
 1402 1162 1403 1145 1408 1130 c 1
 1216 1130 l 1
 1213 1146 1212 1163 1212 1180 c 0
 1212 1358 1364 1500 1542 1500 c 4
1253 1029 m 1
 1170 1216 1002 1332 801 1332 c 0
 511 1332 290 1090 290 740 c 0
 290 390 511 148 801 148 c 0
 1002 148 1170 264 1253 451 c 1
 1414 360 l 1
 1296 128 1069 -20 801 -20 c 0
 406 -20 100 301 100 740 c 0
 100 1179 406 1500 801 1500 c 0
 1069 1500 1296 1352 1414 1120 c 1
 1253 1029 l 1
801 740 m 25
 1422 740 l 25
 1422 0 l 25
 1240 0 l 17
 1240 227 l 1
 1232 253 l 1
 1232 572 l 9
 801 572 l 25
 801 740 l 25
EndSplineSet
Substitution2: "'ss03' Simplified G and I lookups0-1" uni0193.ss03
Colour: ffff
EndChar

StartChar: uni0194
Encoding: 404 404 384
Width: 1356
VWidth: 1000
Flags: HMW
LayerCount: 4
Fore
SplineSet
976 0 m 5
 996 -42 1008 -90 1008 -140 c 0
 1008 -318 856 -460 678 -460 c 0
 500 -460 348 -318 348 -140 c 0
 348 -90 360 -42 380 0 c 1
 580 402 l 1
 70 1480 l 1
 266 1480 l 1
 678 599 l 1
 1090 1480 l 1
 1286 1480 l 1
 776 402 l 1
 976 0 l 5
784 0 m 1
 678 195 l 1
 582 0 l 1
 559 -45 538 -100 538 -140 c 0
 538 -230 588 -292 678 -292 c 0
 768 -292 828 -230 828 -140 c 0
 828 -100 807 -45 784 0 c 1
EndSplineSet
Colour: ffff
EndChar

StartChar: uni0195
Encoding: 405 405 385
Width: 1812
VWidth: 1000
Flags: HMW
LayerCount: 4
Fore
SplineSet
1712 468 m 0
 1712 197 1544 -20 1274 -20 c 0
 1004 -20 836 118 836 468 c 1
 836 572 l 1
 836 791 758 900 578 900 c 0
 398 900 320 791 320 572 c 2
 320 0 l 1
 140 0 l 1
 140 1480 l 1
 312 1480 l 1
 312 920 l 1
 397 1005 493 1060 618 1060 c 0
 888 1060 1016 892 1016 572 c 1
 1016 468 l 2
 1016 249 1094 140 1274 140 c 0
 1454 140 1532 289 1532 468 c 0
 1532 738 1454 863 1372 972 c 1
 1525 1060 l 1
 1598 969 1712 818 1712 468 c 0
EndSplineSet
Substitution2: "sous-table 'smcp' Bas-de-casse vers petites capitales dans Latin lookup 0" uni0195.sc
Colour: ff00
EndChar

StartChar: uni0196
Encoding: 406 406 386
Width: 650
VWidth: 1000
Flags: HMW
LayerCount: 4
Fore
SplineSet
320 460 m 1
 320 320 l 2
 320 218 378 160 480 160 c 0
 523 160 574 176 600 195 c 1
 645 32 l 1
 600 14 536 0 480 0 c 0
 280 0 140 120 140 320 c 2
 140 460 l 1
 140 1500 l 1
 320 1500 l 1
 320 460 l 1
EndSplineSet
Colour: ffff
EndChar

StartChar: uni0197
Encoding: 407 407 387
Width: 770
Flags: HMW
LayerCount: 4
Fore
SplineSet
720 656 m 1
 50 656 l 1
 50 702 50 778 50 824 c 1
 720 824 l 1
 720 656 l 1
122 1480 m 25
 648 1480 l 25
 648 1312 l 25
 480 1312 l 25
 480 168 l 25
 648 168 l 25
 648 0 l 25
 122 0 l 25
 122 168 l 25
 290 168 l 25
 290 1312 l 25
 122 1312 l 25
 122 1480 l 25
EndSplineSet
Substitution2: "'ss03' Simplified G and I lookups0-1" uni0197.ss03
Colour: ffff
EndChar

StartChar: uni0198
Encoding: 408 408 388
Width: 1366
Flags: HMW
LayerCount: 4
Fore
SplineSet
549 794 m 1
 679 917 l 1
 1296 0 l 1
 1082 0 l 1
 549 794 l 1
140 1180 m 1
 140 1358 292 1500 470 1500 c 0
 485 1500 500 1499 514 1497 c 1
 514 1326 l 1
 501 1330 486 1332 470 1332 c 0
 380 1332 330 1270 330 1180 c 1
 330 730 l 1
 1056 1480 l 1
 1116 1480 1236 1480 1296 1480 c 1
 330 490 l 1
 330 0 l 1
 140 0 l 1
 140 1180 l 1
EndSplineSet
Substitution2: "sous-table 'c2sc' Capitales vers petites capitales dans Latin lookup 0" uni0199.sc
Colour: ffff
EndChar

StartChar: uni0199
Encoding: 409 409 389
Width: 1059
Flags: HMW
LayerCount: 4
Fore
SplineSet
417 562 m 1
 526 702 l 1
 1024 0 l 1
 816 0 l 1
 417 562 l 1
140 1177 m 1
 140 1358 292 1500 470 1500 c 0
 485 1500 500 1499 514 1497 c 1
 514 1334 l 1
 501 1338 486 1340 470 1340 c 0
 380 1340 320 1270 320 1177 c 1
 320 572 l 1
 788 1040 l 1
 848 1040 960 1040 1020 1040 c 1
 320 340 l 1
 320 0 l 1
 140 0 l 1
 140 1177 l 1
EndSplineSet
Substitution2: "sous-table 'smcp' Bas-de-casse vers petites capitales dans Latin lookup 0" uni0199.sc
Colour: ff00
EndChar

StartChar: uni019A
Encoding: 410 410 390
Width: 509
Flags: HMW
LayerCount: 4
Fore
SplineSet
570 660 m 1
 -100 660 l 1
 -100 706 -100 774 -100 820 c 1
 570 820 l 1
 570 660 l 1
462 156 m 1
 504 4 l 1
 482 -9 442 -20 410 -20 c 0
 240 -20 140 60 140 230 c 2
 140 440 l 1
 140 578 l 1
 140 1480 l 1
 320 1480 l 1
 320 578 l 1
 320 440 l 1
 320 230 l 2
 320 170 350 140 410 140 c 0
 426 140 450 149 462 156 c 1
EndSplineSet
Substitution2: "sous-table 'smcp' Bas-de-casse vers petites capitales dans Latin lookup 0" uni019A.sc
Colour: ff00
EndChar

StartChar: uni019B
Encoding: 411 411 391
Width: 1172
VWidth: 1000
Flags: HMW
LayerCount: 4
Fore
SplineSet
587 1279 m 1
 713 1352 l 1
 639 1480 l 1
 513 1407 l 1
 175 1212 l 1
 249 1084 l 5
 587 1279 l 1
629 1040 m 1
 525 1357 l 2
 488 1461 403 1502 273 1502 c 0
 241 1502 201 1493 179 1480 c 1
 221 1328 l 1
 233 1335 257 1342 273 1342 c 0
 317 1342 345 1325 357 1292 c 2
 451 1016 l 1
 70 0 l 1
 262 0 l 1
 542 773 l 1
 756 125 l 2
 793 21 878 -20 1008 -20 c 0
 1040 -20 1080 -13 1102 0 c 1
 1060 152 l 1
 1048 145 1024 140 1008 140 c 0
 964 140 936 157 924 190 c 2
 629 1040 l 1
EndSplineSet
Substitution2: "sous-table 'smcp' Bas-de-casse vers petites capitales dans Latin lookup 0" uni019B.sc
Colour: ff00
EndChar

StartChar: uni019C
Encoding: 412 412 392
Width: 1721
VWidth: 1000
Flags: HMW
LayerCount: 4
Fore
SplineSet
1581 168 m 1
 1581 66 1601 0 1601 0 c 1
 1419 0 l 1
 1419 0 1403 60 1403 120 c 1
 1330 33 1266 -20 1141 -20 c 0
 911 -20 765 128 765 468 c 1
 765 1500 l 1
 955 1500 l 1
 955 468 l 1
 955 249 1013 148 1173 148 c 0
 1333 148 1391 249 1391 468 c 2
 1391 1500 l 1
 1581 1500 l 1
 1581 168 l 1
911 468 m 1
 911 148 746 -20 516 -20 c 0
 286 -20 140 128 140 468 c 1
 140 1500 l 1
 330 1500 l 1
 330 468 l 1
 330 249 388 148 548 148 c 0
 708 148 765 249 765 468 c 1
 911 468 l 1
EndSplineSet
Colour: ffff
EndChar

StartChar: uni019D
Encoding: 413 413 393
Width: 1442
Flags: HMW
LayerCount: 4
Fore
SplineSet
0 -146 m 5
 13 -150 28 -152 44 -152 c 0
 134 -152 184 -90 184 0 c 0
 374 0 l 0
 374 -178 222 -320 44 -320 c 0
 29 -320 14 -319 0 -317 c 1
 0 -146 l 5
374 1480 m 1
 1112 320 l 25
 1112 1480 l 1
 1302 1480 l 25
 1302 0 l 25
 1112 0 l 1
 374 1160 l 1
 374 0 l 1
 184 0 l 25
 184 1480 l 1
 374 1480 l 1
EndSplineSet
Colour: ffff
EndChar

StartChar: uni019E
Encoding: 414 414 394
Width: 1156
VWidth: 1000
Flags: HMW
LayerCount: 4
Fore
SplineSet
836 -440 m 1
 836 572 l 2
 836 791 758 900 578 900 c 0
 398 900 320 791 320 572 c 2
 320 0 l 1
 140 0 l 1
 140 1040 l 1
 308 1040 l 1
 308 920 l 1
 393 1005 493 1060 618 1060 c 0
 888 1060 1016 892 1016 572 c 1
 1016 -440 l 1
 836 -440 l 1
EndSplineSet
Substitution2: "sous-table 'smcp' Bas-de-casse vers petites capitales dans Latin lookup 0" uni019E.sc
Colour: ff00
EndChar

StartChar: uni019F
Encoding: 415 415 395
Width: 1602
Flags: HMW
LayerCount: 4
Fore
SplineSet
1406 656 m 25
 198 656 l 25
 198 824 l 25
 1406 824 l 25
 1406 656 l 25
290 740 m 0
 290 390 511 148 801 148 c 0
 1091 148 1312 390 1312 740 c 0
 1312 1090 1091 1332 801 1332 c 0
 511 1332 290 1090 290 740 c 0
100 740 m 0
 100 1179 406 1500 801 1500 c 0
 1196 1500 1502 1179 1502 740 c 0
 1502 301 1196 -20 801 -20 c 0
 406 -20 100 301 100 740 c 0
EndSplineSet
Colour: ffff
EndChar

StartChar: uni031B
Encoding: 795 795 398
Width: 0
Flags: HMW
AnchorPoint: "top_right" 0 1480 mark 0
LayerCount: 4
Fore
SplineSet
169 1319 m 5
 162 1316 157 1315 149 1315 c 4
 97 1315 53 1355 53 1407 c 4
 53 1459 97 1500 149 1500 c 4
 199 1500 272 1466 272 1344 c 4
 272 1214 172 1100 0 1063 c 5
 0 1175 l 5
 127 1207 169 1270 169 1319 c 5
EndSplineSet
Colour: ffff00
EndChar

StartChar: uni01A2
Encoding: 418 418 399
Width: 1869
Flags: HMW
LayerCount: 4
Fore
SplineSet
1235 1338 m 4
 1235 1170 l 4
 1398 1170 1518 1226 1635 1321 c 1
 1539 1470 l 1
 1451 1386 1364 1338 1235 1338 c 4
1539 -410 m 1
 1729 -410 l 25
 1729 1470 l 25
 1539 1470 l 1
 1539 -410 l 1
1159 253 m 1
 1349 253 l 1
 1349 1227 l 1
 1159 1227 l 1
 1159 253 l 1
1253 452 m 1
 1170 265 1002 148 801 148 c 0
 511 148 290 390 290 740 c 0
 290 1090 511 1332 801 1332 c 0
 1002 1332 1170 1215 1253 1028 c 1
 1349 1227 l 1
 1222 1397 1025 1500 801 1500 c 0
 406 1500 100 1179 100 740 c 0
 100 301 406 -20 801 -20 c 0
 1025 -20 1222 83 1349 253 c 1
 1253 452 l 1
EndSplineSet
Substitution2: "sous-table 'c2sc' Capitales vers petites capitales dans Latin lookup 0" uni01A3.sc
Colour: ffff
EndChar

StartChar: uni01A3
Encoding: 419 419 400
Width: 1496
VWidth: 1000
Flags: HMW
LayerCount: 4
Fore
SplineSet
1335 969 m 1
 1176 1040 l 1
 1120 966 1037 922 937 922 c 0
 937 762 l 0
 1102 762 1244 841 1335 969 c 1
1176 -440 m 1
 1356 -440 l 25
 1356 1040 l 25
 1176 1040 l 1
 1176 -440 l 1
816 187 m 1
 996 187 l 1
 996 853 l 1
 816 853 l 1
 816 187 l 1
865 302 m 1
 811 202 717 140 598 140 c 0
 407 140 280 300 280 520 c 0
 280 740 407 900 598 900 c 0
 731 900 833 822 883 700 c 1
 996 853 l 1
 905 981 763 1060 598 1060 c 0
 317 1060 100 832 100 520 c 0
 100 208 317 -20 598 -20 c 0
 763 -20 906 59 996 187 c 1
 865 302 l 1
EndSplineSet
Substitution2: "sous-table 'smcp' Bas-de-casse vers petites capitales dans Latin lookup 0" uni01A3.sc
Colour: ff00
EndChar

StartChar: uni01A4
Encoding: 420 420 401
Width: 1378
Flags: HMW
LayerCount: 4
Fore
SplineSet
196 1110 m 1
 4 1110 l 1
 1 1126 0 1143 0 1160 c 0
 0 1338 152 1480 330 1480 c 0
 345 1480 360 1479 374 1477 c 1
 374 1306 l 1
 361 1310 346 1312 330 1312 c 0
 240 1312 190 1250 190 1160 c 0
 190 1142 191 1125 196 1110 c 1
520 1312 m 25
 520 740 l 25
 802 740 l 17
 967 740 1088 861 1088 1026 c 0
 1088 1191 967 1312 802 1312 c 9
 520 1312 l 25
330 0 m 1
 330 1480 l 1
 802 1480 l 1
 1057 1480 1278 1281 1278 1026 c 0
 1278 771 1057 572 802 572 c 1
 520 572 l 1
 520 0 l 25
 330 0 l 1
EndSplineSet
Substitution2: "sous-table 'c2sc' Capitales vers petites capitales dans Latin lookup 0" uni01A5.sc
Colour: ffff
EndChar

StartChar: uni01A5
Encoding: 421 421 402
Width: 1184
VWidth: 1000
Flags: HMW
LayerCount: 4
Fore
SplineSet
308 520 m 0
 308 290 426 140 606 140 c 0
 786 140 904 290 904 520 c 0
 904 750 786 900 606 900 c 0
 426 900 308 750 308 520 c 0
140 1177 m 1
 140 1358 292 1500 470 1500 c 0
 485 1500 500 1499 514 1497 c 1
 514 1334 l 1
 501 1338 486 1340 470 1340 c 0
 380 1340 320 1270 320 1177 c 1
 320 1177 320 980 320 920 c 1
 405 1005 481 1060 606 1060 c 0
 887 1060 1084 832 1084 520 c 0
 1084 208 887 -20 606 -20 c 0
 481 -20 405 35 320 120 c 1
 320 -440 l 1
 140 -440 l 1
 140 872 l 1
 140 1177 l 1
EndSplineSet
Substitution2: "sous-table 'smcp' Bas-de-casse vers petites capitales dans Latin lookup 0" uni01A5.sc
Colour: ff00
EndChar

StartChar: uni01A6
Encoding: 422 422 403
Width: 1188
Flags: HMW
LayerCount: 4
Fore
SplineSet
500 449 m 1
 630 572 l 1
 1128 -168 l 1
 914 -168 l 1
 500 449 l 1
330 1144 m 25
 330 572 l 25
 612 572 l 17
 777 572 898 693 898 858 c 0
 898 1023 777 1144 612 1144 c 9
 330 1144 l 25
140 0 m 5
 140 1480 l 1
 330 1480 l 1
 330 1312 l 1
 612 1312 l 1
 867 1312 1088 1113 1088 858 c 0
 1088 603 867 404 612 404 c 1
 330 404 l 1
 330 0 l 25
 140 0 l 5
EndSplineSet
Colour: ffff
EndChar

StartChar: uni01A7
Encoding: 423 423 404
Width: 1220
VWidth: 997
Flags: HMW
AnchorPoint: "bottom_center" 610 0 basechar 0
AnchorPoint: "top_center" 610 1380 basechar 0
LayerCount: 4
Fore
SplineSet
610 1332 m 0
 820 1332 885 1212 885 1084 c 0
 885 956 755 876 610 837 c 0
 320 759 100 656 100 396 c 0
 100 136 304 -20 610 -20 c 0
 891 -20 1093 158 1120 396 c 1
 934 446 l 0
 934 289 811 148 610 148 c 0
 390 148 290 255 290 396 c 0
 290 537 417 601 610 653 c 0
 900 731 1075 854 1075 1084 c 0
 1075 1314 901 1500 610 1500 c 0
 329 1500 147 1332 120 1094 c 1
 307 1044 l 0
 307 1201 409 1332 610 1332 c 0
EndSplineSet
Substitution2: "sous-table 'c2sc' Capitales vers petites capitales dans Latin lookup 0" uni01A8.sc
Colour: ffff
EndChar

StartChar: uni01A8
Encoding: 424 424 405
Width: 1020
VWidth: 1000
Flags: HMW
AnchorPoint: "top_center" 506 1040 basechar 0
AnchorPoint: "bottom_center" 506 0 basechar 0
AnchorPoint: "bottom_right" 344 0 basechar 0
LayerCount: 4
Fore
SplineSet
506 1060 m 0
 287 1060 159 953 120 808 c 1
 277 720 l 1
 308 836 374 900 506 900 c 0
 638 900 700 840 700 760 c 0
 700 680 652 642 506 608 c 0
 272 554 100 477 100 281 c 0
 100 85 276 -20 506 -20 c 0
 736 -20 881 108 920 253 c 1
 763 341 l 1
 732 225 656 141 506 141 c 0
 356 141 280 191 280 281 c 0
 280 371 360 404 506 438 c 0
 740 492 880 585 880 760 c 0
 880 935 725 1060 506 1060 c 0
EndSplineSet
Substitution2: "sous-table 'smcp' Bas-de-casse vers petites capitales dans Latin lookup 0" uni01A8.sc
Colour: ff00
EndChar

StartChar: uni01A9
Encoding: 425 425 406
Width: 1208
Flags: HMW
LayerCount: 4
Fore
SplineSet
783 740 m 1
 352 168 l 1
 1068 168 l 1
 1068 0 l 1
 140 0 l 17
 140 168 l 1
 571 740 l 1
 140 1312 l 1
 140 1480 l 1
 1068 1480 l 17
 1068 1312 l 1
 352 1312 l 1
 783 740 l 1
EndSplineSet
Colour: ffff
EndChar

StartChar: uni01AA
Encoding: 426 426 407
Width: 919
VWidth: 1000
Flags: HMW
LayerCount: 4
Fore
SplineSet
100 1266 m 4
 100 1408 220 1500 350 1500 c 4
 480 1500 599 1408 599 1266 c 4
 599 1124 480 1032 350 1032 c 4
 220 1032 100 1124 100 1266 c 4
291 1266 m 4
 291 1230 314 1201 350 1201 c 4
 386 1201 409 1230 409 1266 c 4
 409 1302 386 1331 350 1331 c 4
 314 1331 291 1302 291 1266 c 4
599 308 m 2
 599 206 647 148 749 148 c 0
 792 148 843 164 869 183 c 1
 914 12 l 1
 869 -6 805 -20 749 -20 c 0
 549 -20 409 109 409 308 c 2
 409 1266 l 5
 599 1266 l 5
 599 308 l 2
EndSplineSet
Colour: ffff
EndChar

StartChar: uni01AB
Encoding: 427 427 408
Width: 770
VWidth: 1000
Flags: HMW
LayerCount: 4
Fore
SplineSet
690 0 m 1
 690 -181 538 -323 360 -323 c 0
 345 -323 330 -322 316 -320 c 1
 316 -157 l 1
 329 -161 344 -163 360 -163 c 0
 450 -163 510 -93 510 0 c 1
 690 0 l 1
122 1028 m 17
 212 1028 272 1092 272 1182 c 9
 272 1320 l 1
 440 1320 l 1
 440 1040 l 1
 720 1040 l 1
 720 880 l 1
 440 880 l 1
 440 300 l 2
 440 198 498 140 600 140 c 0
 643 140 694 156 720 175 c 1
 765 12 l 1
 720 -6 656 -20 600 -20 c 0
 400 -20 260 101 260 300 c 2
 260 880 l 1
 50 880 l 1
 50 1028 l 5
 122 1028 l 17
EndSplineSet
Substitution2: "sous-table 'smcp' Bas-de-casse vers petites capitales dans Latin lookup 0" uni01AB.sc
Colour: ff00
EndChar

StartChar: uni01AC
Encoding: 428 428 409
Width: 1398
Flags: HMW
LayerCount: 4
Fore
SplineSet
196 1110 m 5
 4 1110 l 1
 1 1126 0 1143 0 1160 c 0
 0 1338 152 1480 330 1480 c 0
 330 1312 l 0
 240 1312 190 1250 190 1160 c 0
 190 1142 191 1125 196 1110 c 5
604 1312 m 25
 330 1312 l 25
 330 1480 l 25
 1258 1480 l 25
 1258 1312 l 25
 794 1312 l 25
 794 0 l 25
 604 0 l 25
 604 1312 l 25
EndSplineSet
Substitution2: "sous-table 'c2sc' Capitales vers petites capitales dans Latin lookup 0" uni01AD.sc
Colour: ffff
EndChar

StartChar: uni01AE
Encoding: 430 430 410
Width: 1398
Flags: HMW
LayerCount: 4
Fore
SplineSet
978 -146 m 1
 965 -150 950 -152 934 -152 c 0
 844 -152 794 -90 794 0 c 0
 604 0 l 0
 604 -178 756 -320 934 -320 c 0
 949 -320 964 -319 978 -317 c 1
 978 -146 l 1
604 1312 m 29
 140 1312 l 25
 140 1480 l 25
 1258 1480 l 25
 1258 1312 l 25
 794 1312 l 25
 794 0 l 25
 604 0 l 25
 604 1312 l 29
EndSplineSet
Colour: ffff
EndChar

StartChar: uni01AD
Encoding: 429 429 411
Width: 770
VWidth: 1000
Flags: HMW
LayerCount: 4
Fore
SplineSet
272 1320 m 5
 272 1501 413 1653 591 1653 c 0
 606 1653 621 1652 635 1650 c 1
 635 1487 l 1
 622 1491 607 1493 591 1493 c 0
 501 1493 440 1413 440 1320 c 1
 440 1040 l 1
 720 1040 l 1
 720 880 l 1
 440 880 l 1
 440 300 l 2
 440 198 498 140 600 140 c 0
 643 140 694 156 720 175 c 1
 765 12 l 1
 720 -6 656 -20 600 -20 c 0
 400 -20 260 101 260 300 c 2
 260 880 l 1
 50 880 l 1
 50 1028 l 1
 122 1028 l 17
 212 1028 272 1092 272 1182 c 1
 272 1320 l 5
EndSplineSet
Substitution2: "sous-table 'smcp' Bas-de-casse vers petites capitales dans Latin lookup 0" uni01AD.sc
Colour: ff00
EndChar

StartChar: uni01B1
Encoding: 433 433 414
Width: 1602
Flags: HMW
LayerCount: 4
Fore
SplineSet
1502 1480 m 5
 1502 1312 l 1
 941 1312 l 1
 941 1480 l 1
 1502 1480 l 5
100 1480 m 1
 661 1480 l 1
 661 1312 l 1
 100 1312 l 1
 100 1480 l 1
1502 740 m 0
 1502 301 1196 -20 801 -20 c 0
 801 148 l 0
 1091 148 1312 390 1312 740 c 0
 1312 1031 1159 1247 941 1312 c 1
 1263 1312 l 1
 1405 1176 1502 975 1502 740 c 0
100 740 m 0
 100 975 197 1176 339 1312 c 1
 661 1312 l 1
 443 1247 290 1031 290 740 c 0
 290 390 511 148 801 148 c 0
 801 -20 l 0
 406 -20 100 301 100 740 c 0
EndSplineSet
Colour: ffff
EndChar

StartChar: uni01B2
Encoding: 434 434 415
Width: 1398
Flags: HMW
LayerCount: 4
Fore
SplineSet
1068 1180 m 9
 1068 600 l 1
 1068 350 949 148 699 148 c 0
 449 148 330 350 330 600 c 9
 330 1480 l 25
 140 1480 l 25
 140 600 l 17
 140 240 339 -20 699 -20 c 0
 1059 -20 1258 240 1258 600 c 1
 1258 1180 l 17
 1258 1358 1106 1500 928 1500 c 0
 913 1500 898 1499 884 1497 c 1
 884 1326 l 1
 897 1330 912 1332 928 1332 c 0
 1018 1332 1068 1270 1068 1180 c 9
EndSplineSet
Colour: ffff
EndChar

StartChar: uni01B3
Encoding: 435 435 416
Width: 1486
VWidth: 1000
Flags: HMW
LayerCount: 4
Fore
SplineSet
1401 1283 m 5
 1391 1293 1379 1302 1365 1310 c 0
 1340 1325 1316 1331 1292 1331 c 0
 1243 1331 1198 1301 1168 1248 c 0
 1014 1343 l 0
 1073 1445 1171 1500 1282 1500 c 0
 1339 1500 1397 1485 1449 1455 c 0
 1462 1448 1474 1440 1486 1431 c 1
 1401 1283 l 5
601 0 m 1
 601 740 l 1
 791 740 l 1
 791 0 l 1
 601 0 l 1
755 628 m 1
 621 666 l 1
 70 1480 l 1
 284 1480 l 1
 696 858 l 1
 1014 1343 l 1
 1168 1248 l 1
 755 628 l 1
EndSplineSet
Substitution2: "sous-table 'c2sc' Capitales vers petites capitales dans Latin lookup 0" uni01B4.sc
Colour: ffff
EndChar

StartChar: uni01B4
Encoding: 436 436 417
Width: 1184
VWidth: 1000
Flags: HMW
LayerCount: 4
Fore
SplineSet
1142 877 m 5
 1130 884 1116 890 1101 894 c 0
 1087 898 1073 900 1060 900 c 0
 991 900 934 850 914 775 c 1
 747 822 l 1
 786 968 913 1060 1056 1060 c 0
 1085 1060 1113 1057 1142 1049 c 0
 1156 1045 1171 1040 1184 1034 c 1
 1142 877 l 5
552 -255 m 1
 507 -385 393 -460 235 -460 c 0
 179 -460 115 -446 70 -428 c 1
 115 -265 l 1
 141 -284 192 -300 235 -300 c 0
 312 -300 364 -267 385 -206 c 1
 458 0 l 1
 93 1040 l 1
 282 1040 l 1
 550 224 l 1
 747 822 l 1
 914 775 l 1
 642 0 l 1
 552 -255 l 1
EndSplineSet
Substitution2: "sous-table 'smcp' Bas-de-casse vers petites capitales dans Latin lookup 0" uni01B4.sc
Colour: ff00
EndChar

StartChar: uni01B5
Encoding: 437 437 418
Width: 1308
VWidth: 1000
Flags: HMW
LayerCount: 4
Fore
SplineSet
999 656 m 1
 329 656 l 1
 329 702 329 778 329 824 c 1
 999 824 l 1
 999 656 l 1
242 0 m 1
 140 152 l 1
 1038 1480 l 1
 1140 1328 l 1
 242 0 l 1
325 168 m 1
 1160 168 l 1
 1160 0 l 1
 790 0 510 0 140 0 c 1
 140 152 l 1
 325 168 l 1
954 1312 m 5
 160 1312 l 1
 160 1480 l 1
 530 1480 770 1480 1140 1480 c 1
 1140 1328 l 1
 954 1312 l 5
EndSplineSet
Substitution2: "sous-table 'c2sc' Capitales vers petites capitales dans Latin lookup 0" uni01B6.sc
Colour: ffff
EndChar

StartChar: uni01B6
Encoding: 438 438 419
Width: 1020
Flags: HMW
LayerCount: 4
Fore
SplineSet
140 1040 m 1
 140 880 l 1
 766 880 l 1
 880 896 l 1
 880 1040 l 1
 140 1040 l 1
880 160 m 5
 264 160 l 1
 140 144 l 1
 140 0 l 1
 880 0 l 1
 880 160 l 5
344 160 m 1
 880 896 l 1
 676 880 l 1
 140 144 l 1
 344 160 l 1
177 440 m 1
 847 440 l 1
 847 600 l 1
 177 600 l 1
 177 554 177 486 177 440 c 1
EndSplineSet
Substitution2: "sous-table 'smcp' Bas-de-casse vers petites capitales dans Latin lookup 0" uni01B6.sc
Colour: ff00
EndChar

StartChar: uni01B7
Encoding: 439 439 420
Width: 1222
VWidth: 1000
Flags: HMW
LayerCount: 4
Fore
SplineSet
640 740 m 1
 515 840 l 1
 863 1312 l 1
 1077 1328 l 1
 640 740 l 1
1122 422 m 4
 1122 179 910 -20 610 -20 c 4
 329 -20 127 158 100 396 c 5
 287 446 l 4
 287 290 410 148 610 148 c 4
 810 148 932 266 932 422 c 4
 932 578 810 696 610 696 c 1
 539 696 515 696 515 696 c 25
 515 840 l 25
 515 840 540 856 610 856 c 1
 893 856 1122 662 1122 422 c 4
172 1480 m 1
 1077 1480 l 1
 1077 1328 l 1
 903 1312 l 1
 172 1312 l 1
 172 1480 l 1
EndSplineSet
Colour: ffff
EndChar

StartChar: uni01B8
Encoding: 440 440 421
Width: 1222
VWidth: 1000
Flags: HMW
LayerCount: 4
Fore
SplineSet
582 740 m 1
 707 840 l 1
 359 1312 l 5
 145 1328 l 1
 582 740 l 1
100 422 m 0
 100 179 312 -20 612 -20 c 0
 893 -20 1095 158 1122 396 c 1
 935 446 l 0
 935 290 812 148 612 148 c 0
 412 148 290 266 290 422 c 0
 290 578 412 696 612 696 c 1
 683 696 707 696 707 696 c 25
 707 840 l 25
 707 840 682 856 612 856 c 1
 329 856 100 662 100 422 c 0
1050 1480 m 1
 145 1480 l 1
 145 1328 l 1
 319 1312 l 5
 1050 1312 l 1
 1050 1480 l 1
EndSplineSet
Colour: ffff
EndChar

StartChar: uni01B9
Encoding: 441 441 422
Width: 1222
VWidth: 1000
Flags: HMW
LayerCount: 4
Fore
SplineSet
582 300 m 1
 707 400 l 1
 359 872 l 5
 145 888 l 1
 582 300 l 1
100 -18 m 0
 100 -261 312 -460 612 -460 c 0
 893 -460 1095 -282 1122 -44 c 1
 935 6 l 0
 935 -150 812 -292 612 -292 c 0
 412 -292 290 -174 290 -18 c 0
 290 138 412 256 612 256 c 1
 683 256 707 256 707 256 c 25
 707 400 l 25
 707 400 682 416 612 416 c 1
 329 416 100 222 100 -18 c 0
1050 1040 m 1
 145 1040 l 1
 145 888 l 1
 319 872 l 5
 1050 872 l 1
 1050 1040 l 1
EndSplineSet
Colour: ffff
EndChar

StartChar: uni01BA
Encoding: 442 442 423
Width: 1196
VWidth: 1000
Flags: HMW
LayerCount: 4
Fore
SplineSet
598 -107 m 0
 378 -107 280 -152 280 -212 c 0
 280 -272 378 -310 598 -310 c 0
 758 -310 874 -294 987 -239 c 1
 1028 -393 l 1
 919 -444 818 -470 598 -470 c 0
 298 -470 100 -412 100 -212 c 0
 100 -12 298 53 598 53 c 0
 818 53 916 91 916 151 c 0
 916 211 818 256 598 256 c 0
 515 256 l 25
 515 400 l 1
 598 416 l 0
 898 416 1096 351 1096 151 c 0
 1096 -49 898 -107 598 -107 c 0
630 300 m 1
 515 400 l 1
 873 880 l 5
 1077 896 l 1
 630 300 l 1
172 1040 m 1
 1077 1040 l 1
 1077 896 l 1
 913 880 l 5
 172 880 l 1
 172 1040 l 1
EndSplineSet
Colour: ff00
EndChar

StartChar: uni01BB
Encoding: 443 443 424
Width: 1192
VWidth: 1000
Flags: HMW
LayerCount: 4
Fore
SplineSet
1092 492 m 1
 104 492 l 1
 104 660 l 1
 1092 660 l 1
 1092 492 l 1
301 949 m 1
 108 1000 l 0
 108 1300 316 1500 596 1500 c 0
 876 1500 1084 1320 1084 1040 c 0
 894 1040 l 0
 894 1220 776 1332 596 1332 c 0
 416 1332 298 1180 298 1000 c 0
 298 982 299 966 301 949 c 1
100 0 m 1
 100 160 111 388 596 668 c 0
 752 758 894 860 894 1040 c 1
 1084 1040 l 1
 1084 749 838 608 596 468 c 0
 293 293 290 90 290 0 c 1
 234 0 156 0 100 0 c 1
192 168 m 1
 1092 168 l 1
 1092 0 l 1
 290 0 l 5
 192 168 l 1
EndSplineSet
Colour: ffff
EndChar

StartChar: uni01BC
Encoding: 444 444 425
Width: 1288
VWidth: 1000
Flags: HMW
LayerCount: 4
Fore
SplineSet
379 668 m 1
 266 701 l 1
 353 858 443 986 676 986 c 0
 957 986 1188 774 1188 483 c 0
 1188 192 956 -20 675 -20 c 0
 394 -20 192 158 165 396 c 1
 352 446 l 0
 352 290 475 148 675 148 c 0
 854 148 998 279 998 483 c 0
 998 687 854 818 676 818 c 0
 520 818 435 763 379 668 c 1
300.041992188 1424 m 5
 479.626953125 1424 l 1
 379 751 l 1
 266 701 l 1
 200 720 l 1
 300.041992188 1424 l 5
70 1312 m 1
 70 1480 l 1
 1116 1480 l 1
 1116 1312 l 1
 70 1312 l 1
EndSplineSet
Substitution2: "sous-table 'c2sc' Capitales vers petites capitales dans Latin lookup 0" uni01BD.sc
Colour: ffff
EndChar

StartChar: uni01BD
Encoding: 445 445 426
Width: 1056
Flags: HMW
LayerCount: 4
Fore
SplineSet
549 145 m 0
 675 145 776 224 776 347 c 0
 776 470 675 549 550 549 c 0
 446 549 397 527 348 454 c 1
 244 474 l 1
 282 581 351 708 556 708 c 0
 761 708 956 556 956 347 c 0
 956 138 758 -14 550 -14 c 0
 327 -14 166 118 145 295 c 1
 322 325 l 0
 322 231 408 145 549 145 c 0
256.704101562 952 m 5
 417.984375 952 l 5
 364 587 l 1
 244 474 l 1
 181 486 l 1
 256.704101562 952 l 5
70 881 m 1
 70 1040 l 1
 896 1040 l 1
 896 881 l 1
 70 881 l 1
EndSplineSet
Substitution2: "sous-table 'smcp' Bas-de-casse vers petites capitales dans Latin lookup 0" uni01BD.sc
Colour: ff00
EndChar

StartChar: uni01BE
Encoding: 446 446 427
Width: 1160
VWidth: 1000
Flags: HMW
LayerCount: 4
Fore
SplineSet
440 880 m 9
 440 755 l 0
 440 674 507 651 660 613 c 0
 883 557 1060 473 1060 285 c 0
 1060 97 890 -20 660 -20 c 0
 430 -20 279 63 228 252 c 1
 381 340 l 1
 406 200 520 140 660 140 c 0
 836 140 880 204 880 285 c 0
 880 366 813 391 660 431 c 0
 437 489 260 567 260 755 c 0
 260 880 l 17
 50 880 l 1
 50 1028 l 1
 122 1028 l 17
 212 1028 272 1092 272 1182 c 9
 272 1320 l 1
 440 1320 l 1
 440 1040 l 1
 720 1040 l 1
 720 880 l 1
 440 880 l 9
EndSplineSet
Colour: ff00
EndChar

StartChar: uni01BF
Encoding: 447 447 428
Width: 1156
VWidth: 1000
Flags: HMW
LayerCount: 4
Fore
SplineSet
836 572 m 0
 836 791 780 900 578 900 c 0
 398 900 320 791 320 572 c 2
 320 -440 l 1
 140 -440 l 1
 140 1040 l 1
 308 1040 l 1
 308 920 l 1
 393 1005 493 1060 618 1060 c 0
 888 1060 1016 892 1016 572 c 0
 1016 252 745 -168 185 -168 c 5
 185 0 l 5
 665 0 836 353 836 572 c 0
EndSplineSet
Substitution2: "sous-table 'smcp' Bas-de-casse vers petites capitales dans Latin lookup 0" uni01BF.sc
Colour: ff00
EndChar

StartChar: uni01C0
Encoding: 448 448 429
Width: 460
Flags: HMW
LayerCount: 4
Fore
SplineSet
320 1480 m 25
 320 0 l 25
 140 0 l 1
 140 1480 l 1
 320 1480 l 25
EndSplineSet
Colour: ff00
EndChar

StartChar: uni01C1
Encoding: 449 449 430
Width: 820
Flags: HMW
LayerCount: 4
Fore
SplineSet
680 1480 m 25
 680 0 l 25
 500 0 l 1
 500 1480 l 1
 680 1480 l 25
320 1480 m 25
 320 0 l 25
 140 0 l 1
 140 1480 l 1
 320 1480 l 25
EndSplineSet
Colour: ff00
EndChar

StartChar: uni01C2
Encoding: 450 450 431
Width: 1208
Flags: HMW
LayerCount: 4
Fore
SplineSet
140 840 m 1
 140 1000 l 1
 1068 1000 l 17
 1068 840 l 1
 140 840 l 1
140 480 m 1
 140 640 l 1
 1068 640 l 17
 1068 480 l 1
 140 480 l 1
694 1480 m 25
 694 0 l 25
 514 0 l 1
 514 1480 l 1
 694 1480 l 25
EndSplineSet
Colour: ff00
EndChar

StartChar: uni01C3
Encoding: 451 451 432
Width: 532
Flags: HMW
LayerCount: 4
Fore
SplineSet
140 107 m 0
 140 179 193 236 265 236 c 0
 337 236 392 179 392 107 c 0
 392 35 337 -20 265 -20 c 0
 193 -20 140 35 140 107 c 0
159 1480 m 1
 371 1480 l 1
 355 452 l 1
 175 452 l 1
 159 1480 l 1
EndSplineSet
Colour: ff00
EndChar

StartChar: uni01DD
Encoding: 477 477 450
Width: 1196
VWidth: 1000
Flags: HMW
LayerCount: 4
Fore
SplineSet
1022 440 m 1
 216 440 l 1
 286 600 l 5
 1022 600 l 1
 1022 440 l 1
286 700 m 1
 133 788 l 1
 216 966 399 1060 598 1060 c 0
 879 1060 1096 832 1096 520 c 0
 1096 208 879 -20 598 -20 c 0
 317 -20 100 208 100 520 c 0
 100 547 102 574 105 600 c 1
 286 600 l 1
 282 574 280 548 280 520 c 0
 280 300 407 140 598 140 c 0
 789 140 916 300 916 520 c 0
 916 740 789 900 598 900 c 0
 457 900 335 833 286 700 c 1
EndSplineSet
Substitution2: "sous-table 'smcp' Bas-de-casse vers petites capitales dans Latin lookup 0" uni01DD.sc
Colour: ff00
EndChar

StartChar: uni01E4
Encoding: 484 484 456
Width: 1632
Flags: HMW
LayerCount: 4
Fore
SplineSet
1632 236 m 1
 950 236 l 1
 950 282 950 358 950 404 c 1
 1632 404 l 1
 1632 236 l 1
1253 1029 m 1
 1170 1216 1002 1332 801 1332 c 0
 511 1332 290 1090 290 740 c 0
 290 390 511 148 801 148 c 0
 1002 148 1170 264 1253 451 c 1
 1414 360 l 1
 1296 128 1069 -20 801 -20 c 0
 406 -20 100 301 100 740 c 0
 100 1179 406 1500 801 1500 c 0
 1069 1500 1296 1352 1414 1120 c 1
 1253 1029 l 1
801 740 m 25
 1422 740 l 25
 1422 0 l 25
 1240 0 l 17
 1240 227 l 1
 1232 253 l 1
 1232 572 l 9
 801 572 l 25
 801 740 l 25
EndSplineSet
Substitution2: "'ss03' Simplified G and I lookups0-1" uni01E4.ss03
Substitution2: "sous-table 'c2sc' Capitales vers petites capitales dans Latin lookup 0" uni01E5.sc
Colour: ffff
EndChar

StartChar: uni01E5
Encoding: 485 485 457
Width: 1245
VWidth: 1000
Flags: HMW
LayerCount: 4
Fore
SplineSet
571 941 m 1
 656 1026 736 1081 861 1081 c 0
 929 1081 985 1071 1035 1049 c 1
 987 870 l 1
 944 904 890 921 819 921 c 0
 763 921 739 910 702 889 c 1
 571 941 l 1
520 420 m 0
 520 300 l 0
 362 300 320 260 320 220 c 0
 320 180 412 160 520 160 c 0
 520 0 l 0
 280 0 141 80 141 210 c 0
 141 370 380 420 520 420 c 0
1035 -110 m 0
 1035 -290 881 -460 520 -460 c 0
 159 -460 50 -325 50 -164 c 0
 50 37 260 120 520 120 c 0
 520 30 l 0
 272 30 230 -89 230 -164 c 0
 230 -240 272 -300 520 -300 c 0
 768 -300 855 -220 855 -120 c 0
 855 -40 718 0 520 0 c 0
 520 160 l 0
 841 160 1035 70 1035 -110 c 0
320 680 m 0
 320 560 400 460 520 460 c 0
 640 460 720 560 720 680 c 0
 720 800 640 900 520 900 c 0
 400 900 320 800 320 680 c 0
140 680 m 0
 140 899 301 1060 520 1060 c 0
 739 1060 900 899 900 680 c 0
 900 461 739 300 520 300 c 0
 301 300 140 461 140 680 c 0
1245 -227 m 1
 575 -227 l 1
 575 -181 575 -113 575 -67 c 1
 1245 -67 l 1
 1245 -227 l 1
EndSplineSet
Substitution2: "sous-table 'smcp' Bas-de-casse vers petites capitales dans Latin lookup 0" uni01E5.sc
Substitution2: "'ss04' Simplified a and g lookups0-1" uni01E5.ss04
Colour: ff00
EndChar

StartChar: uni0292
Encoding: 658 658 471
Width: 1222
VWidth: 1000
Flags: HMW
LayerCount: 4
Fore
SplineSet
640 300 m 5
 515 400 l 1
 863 872 l 1
 1077 888 l 1
 640 300 l 5
1122 -18 m 0
 1122 -261 910 -460 610 -460 c 0
 329 -460 127 -282 100 -44 c 1
 287 6 l 0
 287 -150 410 -292 610 -292 c 0
 810 -292 932 -174 932 -18 c 0
 932 138 810 256 610 256 c 1
 539 256 515 256 515 256 c 25
 515 400 l 25
 515 400 540 416 610 416 c 1
 893 416 1122 222 1122 -18 c 0
172 1040 m 1
 1077 1040 l 1
 1077 888 l 1
 943 872 l 1
 172 872 l 1
 172 1040 l 1
EndSplineSet
Colour: ffff
EndChar

StartChar: uni01F7
Encoding: 503 503 496
Width: 1352
VWidth: 1000
Flags: HMW
LayerCount: 4
Fore
SplineSet
1062 880 m 0
 1062 1210 956 1332 696 1332 c 0
 436 1332 330 1164 330 874 c 2
 330 -440 l 1
 140 -440 l 1
 140 1480 l 1
 318 1480 l 1
 318 1310 l 1
 420 1480 611 1500 736 1500 c 0
 1066 1500 1252 1290 1252 880 c 0
 1252 470 855 2 185 2 c 5
 185 178 l 5
 755 178 1062 550 1062 880 c 0
EndSplineSet
Substitution2: "sous-table 'c2sc' Capitales vers petites capitales dans Latin lookup 0" uni01BF.sc
Colour: ffff
EndChar

StartChar: uni01F6
Encoding: 502 502 497
Width: 2104
Flags: HMW
LayerCount: 4
Fore
SplineSet
1964 1040 m 1
 1964 468 l 1
 1964 118 1786 -20 1516 -20 c 0
 1246 -20 1068 118 1068 468 c 1
 1068 1040 l 1
 1258 1040 l 1
 1258 468 l 2
 1258 249 1336 148 1516 148 c 0
 1696 148 1774 249 1774 468 c 2
 1774 1040 l 1
 1964 1040 l 1
140 1480 m 25
 330 1480 l 25
 330 824 l 25
 1068 824 l 25
 1068 1480 l 25
 1258 1480 l 1
 1258 530 l 25
 1068 530 l 25
 1068 656 l 1
 330 656 l 25
 330 0 l 25
 140 0 l 25
 140 1480 l 25
EndSplineSet
Substitution2: "sous-table 'c2sc' Capitales vers petites capitales dans Latin lookup 0" uni0195.sc
Colour: ffff
EndChar

StartChar: uni030F
Encoding: 783 783 498
Width: 0
VWidth: 1000
Flags: HMW
AnchorPoint: "top_center" 642 1040 mark 0
LayerCount: 4
Fore
SplineSet
401 1224 m 5
 579 1224 l 5
 401 1480 l 5
 175 1480 l 5
 401 1224 l 5
805 1224 m 5
 983 1224 l 5
 805 1480 l 5
 579 1480 l 5
 805 1224 l 5
EndSplineSet
Colour: ffff00
EndChar

StartChar: uni0311
Encoding: 785 785 511
Width: 0
VWidth: 1000
Flags: HMW
AnchorPoint: "top_center" 642 1040 mark 0
LayerCount: 4
Fore
SplineSet
642 1490 m 4
 492 1490 362 1364 362 1224 c 5
 522 1224 l 5
 522 1290 576 1350 642 1350 c 4
 708 1350 762 1290 762 1224 c 5
 922 1224 l 5
 922 1364 792 1490 642 1490 c 4
EndSplineSet
Colour: ffff00
EndChar

StartChar: uni0326
Encoding: 806 806 528
Width: 0
Flags: HMW
AnchorPoint: "bottom_center" 642 0 mark 0
LayerCount: 4
Fore
SplineSet
542 -225 m 0
 542 -167 584 -122 642 -122 c 0
 698 -122 743 -167 743 -225 c 0
 743 -283 700 -327 642 -327 c 0
 584 -327 542 -283 542 -225 c 0
554 -440 m 1
 600 -430 671 -391 671 -295 c 0
 671 -273 643 -225 643 -225 c 1
 642 -122 l 1
 698 -122 772 -159 772 -295 c 0
 772 -439 640 -516 578 -532 c 1
 554 -440 l 1
EndSplineSet
Colour: ffbf00
EndChar

StartChar: uni021C
Encoding: 540 540 529
Width: 1189
VWidth: 1000
Flags: HMW
LayerCount: 4
Fore
SplineSet
697 548 m 1
 835 520 909 412 909 278 c 0
 909 56 695 -272 235 -272 c 0
 235 -440 l 0
 755 -440 1099 -72 1099 278 c 0
 1099 476 986 623 819 688 c 1
 697 548 l 1
572 1332 m 0
 761 1332 864 1212 864 1054 c 0
 864 832 695 504 235 504 c 0
 235 336 l 0
 755 336 1054 704 1054 1054 c 0
 1054 1324 842 1500 572 1500 c 0
 302 1500 90 1302 90 1032 c 0
 285 978 l 1
 282 995 280 1013 280 1032 c 0
 280 1190 382 1332 572 1332 c 0
EndSplineSet
Substitution2: "sous-table 'c2sc' Capitales vers petites capitales dans Latin lookup 0" uni021D.sc
Colour: ffff
EndChar

StartChar: uni021D
Encoding: 541 541 530
Width: 939
Flags: HMW
LayerCount: 4
Fore
SplineSet
536 349 m 1
 640 329 696 253 696 159 c 0
 696 3 491 -280 153 -280 c 0
 153 -440 l 0
 560 -440 876 -116 876 140 c 0
 876 285 800 424 648 471 c 1
 536 349 l 1
448 914 m 0
 581 914 653 836 653 733 c 0
 653 588 484 320 153 320 c 0
 153 160 l 0
 555 160 833 486 833 745 c 0
 833 944 664 1075 448 1075 c 0
 232 1075 63 926 63 724 c 0
 247 684 l 1
 245 695 243 707 243 719 c 0
 243 822 315 914 448 914 c 0
EndSplineSet
Substitution2: "sous-table 'smcp' Bas-de-casse vers petites capitales dans Latin lookup 0" uni021D.sc
Colour: ff00
EndChar

StartChar: uni0220
Encoding: 544 544 531
Width: 1392
VWidth: 1000
Flags: HMW
LayerCount: 4
Fore
SplineSet
1252 880 m 0
 1252 1260 1066 1500 736 1500 c 0
 611 1500 495 1487 318 1310 c 1
 318 1480 l 1
 140 1480 l 1
 140 0 l 1
 330 0 l 1
 330 880 l 2
 330 1110 416 1332 696 1332 c 0
 976 1332 1062 1110 1062 880 c 0
 1062 -440 l 25
 1252 -440 l 25
 1252 880 l 0
EndSplineSet
Substitution2: "sous-table 'c2sc' Capitales vers petites capitales dans Latin lookup 0" uni019E.sc
Colour: ffff
EndChar

StartChar: uni0221
Encoding: 545 545 532
Width: 1344
VWidth: 1000
Flags: HMW
LayerCount: 4
Fore
SplineSet
1104 -373 m 0
 974 -373 864 -289 864 -147 c 0
 864 -5 974 69 1104 69 c 0
 1234 69 1344 -5 1344 -147 c 0
 1344 -289 1234 -373 1104 -373 c 0
1104 -213 m 0
 1140 -213 1164 -183 1164 -147 c 0
 1164 -111 1140 -81 1104 -81 c 0
 1068 -81 1044 -111 1044 -147 c 0
 1044 -183 1068 -213 1104 -213 c 0
640 -372 m 1
 640 -372 755 79 1105 79 c 1
 1105 -81 l 1
 885 -81 793 -460 793 -460 c 1
 640 -372 l 1
876 520 m 0
 876 750 758 900 578 900 c 0
 398 900 280 750 280 520 c 0
 280 290 398 140 578 140 c 0
 758 140 876 290 876 520 c 0
1044 168 m 1
 1044 66 1044 -100 1044 -100 c 1
 864 -137 l 1
 864 -137 864 60 864 120 c 1
 779 35 703 -20 578 -20 c 0
 297 -20 100 208 100 520 c 0
 100 832 297 1060 578 1060 c 0
 703 1060 779 1005 864 920 c 1
 864 1480 l 1
 1044 1480 l 1
 1044 168 l 1
EndSplineSet
Layer: 2
SplineSet
822 -116 m 4
 822 26 932 110 1062 110 c 4
 1192 110 1302 26 1302 -116 c 4
 1302 -258 1192 -342 1062 -342 c 4
 932 -342 822 -258 822 -116 c 4
1002 -116 m 4
 1002 -152 1026 -182 1062 -182 c 4
 1098 -182 1122 -152 1122 -116 c 4
 1122 -80 1098 -50 1062 -50 c 4
 1026 -50 1002 -80 1002 -116 c 4
598 -341.005859375 m 5
 598 -341.005859375 713 109.994140625 1063 109.994140625 c 5
 1063 -50.005859375 l 5
 843 -50.005859375 751 -429.005859375 751 -429.005859375 c 5
 598 -341.005859375 l 5
EndSplineSet
Substitution2: "sous-table 'smcp' Bas-de-casse vers petites capitales dans Latin lookup 0" uni0221.sc
Colour: ff00
EndChar

StartChar: uni0223
Encoding: 547 547 533
Width: 1222
VWidth: 1000
Flags: HMW
LayerCount: 4
Fore
SplineSet
733 1336 m 1
 777 1500 l 1
 960 1444 1077 1285 1077 1110 c 0
 1077 981 1013 854 905 781 c 1
 1040 702 1122 570 1122 418 c 0
 1122 175 910 -20 610 -20 c 4
 310 -20 100 175 100 418 c 0
 100 569 181 702 315 781 c 1
 207 854 143 981 143 1110 c 0
 143 1285 260 1443 443 1500 c 1
 487 1336 l 1
 388 1300 333 1207 333 1106 c 0
 333 969 435 856 610 856 c 0
 785 856 887 969 887 1106 c 0
 887 1207 832 1301 733 1336 c 1
610 696 m 0
 410 696 290 578 290 422 c 0
 290 266 410 148 610 148 c 0
 810 148 932 266 932 422 c 0
 932 578 810 696 610 696 c 0
EndSplineSet
Substitution2: "sous-table 'smcp' Bas-de-casse vers petites capitales dans Latin lookup 0" uni0223.sc
Colour: ffff
EndChar

StartChar: uni0222
Encoding: 546 546 534
Width: 1312
VWidth: 1000
Flags: HMW
LayerCount: 4
Fore
SplineSet
143 1024 m 0
 143 934 218 824 315 781 c 1
 181 702 100 569 100 418 c 0
 100 175 295 -20 655 -20 c 0
 1015 -20 1212 175 1212 418 c 0
 1212 570 1130 702 995 781 c 1
 1103 854 1167 969 1167 1098 c 0
 1167 1338 1024 1522 700 1522 c 0
 700 1354 l 0
 922 1354 977 1244 977 1094 c 0
 977 957 877 856 655 856 c 0
 433 856 333 935 333 1030 c 0
 333 1125 430 1186 610 1186 c 4
 610 1354 l 4
 391 1354 143 1264 143 1024 c 0
655 696 m 0
 895 696 1022 578 1022 422 c 0
 1022 266 895 148 655 148 c 0
 415 148 290 266 290 422 c 0
 290 578 415 696 655 696 c 0
EndSplineSet
Substitution2: "sous-table 'c2sc' Capitales vers petites capitales dans Latin lookup 0" uni0223.sc
Colour: ffff
EndChar

StartChar: uni0224
Encoding: 548 548 535
Width: 1300
VWidth: 1000
Flags: HMW
LayerCount: 4
Fore
SplineSet
786 -146 m 1
 799 -150 814 -152 830 -152 c 0
 920 -152 970 -90 970 0 c 0
 1160 0 l 0
 1160 -178 1008 -320 830 -320 c 0
 815 -320 800 -319 786 -317 c 1
 786 -146 l 1
242 0 m 1
 140 152 l 1
 1038 1480 l 1
 1140 1328 l 1
 242 0 l 1
325 168 m 1
 1160 168 l 1
 1160 0 l 1
 790 0 510 0 140 0 c 1
 140 152 l 1
 325 168 l 1
974 1312 m 5
 160 1312 l 1
 160 1480 l 1
 530 1480 770 1480 1140 1480 c 1
 1140 1328 l 1
 974 1312 l 5
EndSplineSet
Substitution2: "sous-table 'c2sc' Capitales vers petites capitales dans Latin lookup 0" uni0225.sc
Colour: ffff
EndChar

StartChar: uni0225
Encoding: 549 549 536
Width: 1020
Flags: HMW
LayerCount: 4
Fore
SplineSet
506 -157 m 1
 519 -161 534 -163 550 -163 c 0
 640 -163 700 -93 700 0 c 1
 880 0 l 1
 880 -181 728 -323 550 -323 c 0
 535 -323 520 -322 506 -320 c 1
 506 -157 l 1
140 1040 m 1
 140 880 l 1
 756 880 l 1
 880 896 l 1
 880 1040 l 1
 140 1040 l 1
880 160 m 1
 264 160 l 1
 140 144 l 1
 140 0 l 1
 880 0 l 1
 880 160 l 1
344 160 m 1
 880 896 l 1
 676 880 l 1
 140 144 l 1
 344 160 l 1
EndSplineSet
Substitution2: "sous-table 'smcp' Bas-de-casse vers petites capitales dans Latin lookup 0" uni0225.sc
Colour: ff00
EndChar

StartChar: uni0234
Encoding: 564 564 537
Width: 620
VWidth: 1000
Flags: HMW
LayerCount: 4
Fore
SplineSet
380 -373 m 0
 250 -373 140 -289 140 -147 c 0
 140 -5 250 79 380 79 c 0
 510 79 620 -5 620 -147 c 0
 620 -289 510 -373 380 -373 c 0
380 -213 m 0
 416 -213 440 -183 440 -147 c 0
 440 -111 416 -81 380 -81 c 0
 344 -81 320 -111 320 -147 c 0
 320 -183 344 -213 380 -213 c 0
-84 -372 m 1
 -84 -372 31 79 381 79 c 1
 381 -81 l 1
 161 -81 69 -460 69 -460 c 1
 -84 -372 l 1
140 1480 m 1
 320 1480 l 1
 320 168 l 1
 320 -100 l 1
 140 -107 l 1
 140 120 l 1
 140 1480 l 1
EndSplineSet
Substitution2: "sous-table 'smcp' Bas-de-casse vers petites capitales dans Latin lookup 0" uni0234.sc
Colour: ff00
EndChar

StartChar: uni0235
Encoding: 565 565 538
Width: 1316
VWidth: 1000
Flags: HMW
LayerCount: 4
Fore
SplineSet
1076 -373 m 0
 946 -373 836 -289 836 -147 c 0
 836 -5 946 79 1076 79 c 0
 1206 79 1316 -5 1316 -147 c 0
 1316 -289 1206 -373 1076 -373 c 0
1076 -213 m 4
 1112 -213 1136 -183 1136 -147 c 0
 1136 -111 1112 -81 1076 -81 c 0
 1040 -81 1016 -111 1016 -147 c 0
 1016 -183 1040 -213 1076 -213 c 4
612 -372 m 1
 612 -372 727 79 1077 79 c 1
 1077 -81 l 1
 857 -81 765 -460 765 -460 c 1
 612 -372 l 1
836 -70 m 1
 836 572 l 2
 836 791 758 900 578 900 c 0
 398 900 320 791 320 572 c 2
 320 0 l 1
 140 0 l 1
 140 1040 l 1
 308 1040 l 1
 308 920 l 1
 393 1005 493 1060 618 1060 c 0
 888 1060 1016 892 1016 572 c 1
 1016 -70 l 1
 836 -70 l 1
EndSplineSet
Substitution2: "sous-table 'smcp' Bas-de-casse vers petites capitales dans Latin lookup 0" uni0235.sc
Colour: ff00
EndChar

StartChar: uni0236
Encoding: 566 566 539
Width: 740
VWidth: 1000
Flags: HMW
LayerCount: 4
Fore
SplineSet
500 -20 m 0
 370 -20 260 64 260 206 c 0
 260 348 370 432 500 432 c 0
 630 432 740 348 740 206 c 0
 740 64 630 -20 500 -20 c 0
500 140 m 0
 536 140 560 170 560 206 c 0
 560 242 536 272 500 272 c 0
 464 272 440 242 440 206 c 0
 440 170 464 140 500 140 c 0
36 -19 m 1
 36 -19 151 432 501 432 c 1
 501 272 l 1
 281 272 189 -107 189 -107 c 1
 36 -19 l 1
260 300 m 25
 260 880 l 1
 50 880 l 1
 50 1028 l 5
 122 1028 l 17
 212 1028 272 1092 272 1182 c 9
 272 1320 l 1
 440 1320 l 1
 440 1040 l 1
 720 1040 l 1
 720 880 l 1
 440 880 l 1
 440 300 l 25
 260 300 l 25
EndSplineSet
Substitution2: "sous-table 'smcp' Bas-de-casse vers petites capitales dans Latin lookup 0" uni0236.sc
Colour: ff00
EndChar

StartChar: uni0238
Encoding: 568 568 540
Width: 1908
VWidth: 1000
Flags: HMW
LayerCount: 4
Fore
SplineSet
876 520 m 0
 876 750 758 900 578 900 c 0
 398 900 280 750 280 520 c 0
 280 290 398 140 578 140 c 0
 758 140 876 290 876 520 c 0
864 1480 m 1
 1044 1480 l 1
 1044 920 l 1
 1129 1005 1205 1060 1330 1060 c 0
 1611 1060 1808 832 1808 520 c 0
 1808 208 1611 -20 1330 -20 c 0
 1205 -20 1121 35 1036 120 c 5
 1036 0 l 1
 872 0 l 1
 872 120 l 1
 787 35 703 -20 578 -20 c 0
 297 -20 100 208 100 520 c 0
 100 832 297 1060 578 1060 c 0
 703 1060 779 1005 864 920 c 1
 864 1480 l 1
1032 520 m 0
 1032 290 1150 140 1330 140 c 0
 1510 140 1628 290 1628 520 c 0
 1628 750 1510 900 1330 900 c 0
 1150 900 1032 750 1032 520 c 0
EndSplineSet
Colour: ff00
EndChar

StartChar: uni0239
Encoding: 569 569 541
Width: 1908
VWidth: 1000
Flags: HMW
LayerCount: 4
Fore
SplineSet
876 520 m 0
 876 290 758 140 578 140 c 0
 398 140 280 290 280 520 c 0
 280 750 398 900 578 900 c 0
 758 900 876 750 876 520 c 0
864 -440 m 1
 1044 -440 l 1
 1044 120 l 1
 1129 35 1205 -20 1330 -20 c 0
 1611 -20 1808 208 1808 520 c 0
 1808 832 1611 1060 1330 1060 c 0
 1205 1060 1121 1005 1036 920 c 5
 1036 1040 l 1
 872 1040 l 1
 872 920 l 1
 787 1005 703 1060 578 1060 c 0
 297 1060 100 832 100 520 c 0
 100 208 297 -20 578 -20 c 0
 703 -20 779 35 864 120 c 1
 864 -440 l 1
1032 520 m 0
 1032 750 1150 900 1330 900 c 0
 1510 900 1628 750 1628 520 c 0
 1628 290 1510 140 1330 140 c 0
 1150 140 1032 290 1032 520 c 0
EndSplineSet
Colour: ff00
EndChar

StartChar: uni0338
Encoding: 824 824 542
Width: 0
Flags: HMW
LayerCount: 4
Fore
SplineSet
1057 1596 m 1
 1185 1500 l 1
 -72 -116 l 1
 -200 -20 l 1
 1057 1596 l 1
EndSplineSet
Colour: ffff
EndChar

StartChar: uni0337
Encoding: 823 823 543
Width: 0
VWidth: 1000
Flags: HMW
LayerCount: 4
Fore
SplineSet
1048 1156 m 1
 1176 1060 l 1
 260 -116 l 1
 132 -20 l 1
 1048 1156 l 1
EndSplineSet
Colour: ff00
EndChar

StartChar: uni023A
Encoding: 570 570 544
Width: 1416
VWidth: 1000
Flags: HMW
LayerCount: 4
Fore
SplineSet
1273 1596 m 1
 1401 1500 l 1
 144 -116 l 1
 16 -20 l 1
 1273 1596 l 1
334 604 m 1
 1060 604 l 1
 1060 436 l 1
 334 436 l 1
 334 604 l 1
708 1230 m 1
 296 0 l 1
 100 0 l 1
 610 1480 l 1
 806 1480 l 1
 1316 0 l 1
 1120 0 l 1
 708 1230 l 1
EndSplineSet
Colour: ffff
EndChar

StartChar: uni023B
Encoding: 571 571 545
Width: 1514
Flags: HMW
LayerCount: 4
Fore
SplineSet
1365 1596 m 1
 1493 1500 l 1
 236 -116 l 1
 108 -20 l 1
 1365 1596 l 1
1253 1028 m 1
 1170 1215 1002 1332 801 1332 c 0
 511 1332 290 1090 290 740 c 0
 290 390 511 148 801 148 c 0
 1002 148 1170 265 1253 452 c 1
 1414 360 l 1
 1296 128 1069 -20 801 -20 c 0
 406 -20 100 301 100 740 c 0
 100 1179 406 1500 801 1500 c 0
 1069 1500 1296 1352 1414 1120 c 1
 1253 1028 l 1
EndSplineSet
Substitution2: "sous-table 'c2sc' Capitales vers petites capitales dans Latin lookup 0" uni023C.sc
Colour: ffff
EndChar

StartChar: uni023C
Encoding: 572 572 546
Width: 1142
VWidth: 1000
Flags: HMW
LayerCount: 4
Fore
SplineSet
992 1156 m 5
 1120 1060 l 5
 204 -116 l 5
 76 -20 l 5
 992 1156 l 5
280 520 m 0
 280 300 407 140 598 140 c 0
 739 140 840 207 889 340 c 1
 1042 252 l 1
 959 74 797 -20 598 -20 c 0
 317 -20 100 208 100 520 c 0
 100 832 317 1060 598 1060 c 0
 797 1060 959 966 1042 788 c 1
 889 700 l 1
 840 833 739 900 598 900 c 0
 407 900 280 740 280 520 c 0
EndSplineSet
Substitution2: "sous-table 'smcp' Bas-de-casse vers petites capitales dans Latin lookup 0" uni023C.sc
Colour: ff00
EndChar

StartChar: uni023D
Encoding: 573 573 547
Width: 1278
Flags: HMW
LayerCount: 4
Fore
SplineSet
670 656 m 1
 0 656 l 1
 0 702 0 778 0 824 c 1
 670 824 l 1
 670 656 l 1
400 1480 m 17
 400 168 l 1
 1138 168 l 1
 1138 0 l 1
 210 0 l 25
 210 1480 l 1
 400 1480 l 17
EndSplineSet
Substitution2: "sous-table 'c2sc' Capitales vers petites capitales dans Latin lookup 0" uni019A.sc
Colour: ffff
EndChar

StartChar: uni023E
Encoding: 574 574 548
Width: 1398
Flags: HMW
LayerCount: 4
Fore
SplineSet
1264 1596 m 1
 1392 1500 l 1
 135 -116 l 1
 7 -20 l 1
 1264 1596 l 1
794 0 m 25
 604 0 l 25
 604 1312 l 25
 140 1312 l 25
 140 1480 l 25
 1258 1480 l 25
 1258 1312 l 25
 794 1312 l 25
 794 0 l 25
EndSplineSet
Colour: ffff
EndChar

StartChar: uni023F
Encoding: 575 575 549
Width: 1020
VWidth: 1000
Flags: HMW
LayerCount: 4
Fore
SplineSet
604 0 m 1
 604 -93 650 -163 740 -163 c 0
 756 -163 771 -161 784 -157 c 1
 784 -320 l 1
 770 -322 755 -323 740 -323 c 0
 562 -323 424 -181 424 0 c 1
 604 0 l 1
514 1060 m 0
 733 1060 861 953 900 808 c 1
 743 720 l 1
 712 836 646 900 514 900 c 0
 382 900 320 840 320 760 c 0
 320 680 368 642 514 608 c 0
 748 554 920 477 920 281 c 0
 920 85 744 -20 514 -20 c 0
 284 -20 139 108 100 253 c 1
 257 341 l 1
 288 225 364 141 514 141 c 0
 664 141 740 191 740 281 c 0
 740 371 660 404 514 438 c 0
 280 492 140 585 140 760 c 0
 140 935 295 1060 514 1060 c 0
EndSplineSet
Colour: ff00
EndChar

StartChar: uni0240
Encoding: 576 576 550
Width: 1042
Flags: HMW
LayerCount: 4
Fore
SplineSet
910 -42 m 1
 1032 -165 l 1
 971 -242 887 -283 797 -283 c 0
 743 -283 687 -268 633 -237 c 0
 460 -137 519 -1 419 57 c 0
 398 69 374 76 350 76 c 0
 306 76 259 53 222 0 c 1
 100 123 l 1
 161 200 245 241 335 241 c 0
 389 241 445 226 499 195 c 0
 672 95 613 -41 713 -99 c 0
 734 -111 758 -118 782 -118 c 0
 826 -118 873 -95 910 -42 c 1
140 1040 m 1
 880 1040 l 1
 880 896 l 1
 786 880 l 1
 140 880 l 1
 140 1040 l 1
304 139 m 1
 100 123 l 1
 676 880 l 1
 880 896 l 1
 304 139 l 1
EndSplineSet
Colour: ff00
EndChar

StartChar: uni0241
Encoding: 577 577 551
Width: 1192
VWidth: 1000
Flags: HMW
LayerCount: 4
Fore
SplineSet
504 0 m 1
 684 0 l 1
 684 580 l 1
 504 580 l 1
 504 0 l 1
594 420 m 0
 875 420 1092 648 1092 960 c 0
 1092 1272 894 1500 594 1500 c 0
 324 1500 131 1306 100 1032 c 1
 276 978 l 1
 282 1189 396 1340 594 1340 c 0
 796 1340 912 1180 912 960 c 0
 912 740 785 580 594 580 c 0
 594 420 l 0
EndSplineSet
Substitution2: "sous-table 'c2sc' Capitales vers petites capitales dans Latin lookup 0" uni0242.sc
Colour: ffff
EndChar

StartChar: uni0242
Encoding: 578 578 552
Width: 985
Flags: HMW
LayerCount: 4
Fore
SplineSet
401 0 m 1
 581 0 l 1
 581 427 l 1
 401 427 l 1
 401 0 l 1
491 274 m 0
 714 274 885 443 885 674 c 0
 885 905 728 1074 491 1074 c 0
 277 1074 125 928 100 721 c 1
 267 686 l 1
 271 823 352 921 491 921 c 0
 633 921 714 817 714 674 c 0
 714 531 625 427 491 427 c 0
 491 274 l 0
EndSplineSet
Substitution2: "sous-table 'smcp' Bas-de-casse vers petites capitales dans Latin lookup 0" uni0242.sc
Colour: ff00
EndChar

StartChar: uni0243
Encoding: 579 579 553
Width: 1353
Flags: HMW
LayerCount: 4
Fore
SplineSet
670 366 m 5
 0 366 l 5
 0 412 0 488 0 534 c 5
 670 534 l 5
 670 366 l 5
777 1480 m 1
 997 1480 1189 1330 1189 1110 c 0
 1189 890 997 740 777 740 c 1
 777 908 l 17
 902 908 999 987 999 1112 c 0
 999 1237 902 1312 777 1312 c 9
 400 1312 l 1
 400 1480 l 25
 777 1480 l 1
400 168 m 25
 777 168 l 17
 942 168 1063 289 1063 454 c 0
 1063 619 942 740 777 740 c 9
 400 740 l 25
 400 168 l 25
210 1480 m 1
 400 1480 l 25
 400 908 l 1
 777 908 l 1
 1032 908 1253 709 1253 454 c 0
 1253 199 1032 0 777 0 c 1
 210 0 l 1
 210 1480 l 1
EndSplineSet
Substitution2: "sous-table 'c2sc' Capitales vers petites capitales dans Latin lookup 0" uni0180.sc
Colour: ffff
EndChar

StartChar: uni0244
Encoding: 580 580 554
Width: 1538
Flags: HMW
LayerCount: 4
Fore
SplineSet
1538 824 m 25
 1538 656 l 25
 0 656 l 25
 0 824 l 25
 1538 824 l 25
400 1480 m 25
 400 600 l 17
 400 350 519 148 769 148 c 0
 1019 148 1138 350 1138 600 c 9
 1138 1480 l 25
 1328 1480 l 25
 1328 600 l 17
 1328 240 1129 -20 769 -20 c 0
 409 -20 210 240 210 600 c 9
 210 1480 l 25
 400 1480 l 25
EndSplineSet
Colour: ffff
EndChar

StartChar: uni0245
Encoding: 581 581 555
Width: 1356
VWidth: 1000
Flags: HMW
LayerCount: 4
Fore
SplineSet
678 1230 m 1
 1090 0 l 1
 1286 0 l 1
 776 1480 l 1
 580 1480 l 1
 70 0 l 1
 266 0 l 1
 678 1230 l 1
EndSplineSet
Colour: ffff
EndChar

StartChar: uni0246
Encoding: 582 582 556
Width: 1208
Flags: HMW
LayerCount: 4
Fore
SplineSet
896 1660 m 1
 1069 1660 l 1
 312 -180 l 1
 139 -180 l 1
 896 1660 l 1
973 824 m 17
 973 656 l 9
 330 656 l 17
 330 168 l 1
 1068 168 l 1
 1068 0 l 1
 140 0 l 25
 140 1480 l 1
 1068 1480 l 17
 1068 1312 l 1
 330 1312 l 1
 330 824 l 9
 973 824 l 17
EndSplineSet
Substitution2: "sous-table 'c2sc' Capitales vers petites capitales dans Latin lookup 0" uni0247.sc
Colour: ffff
EndChar

StartChar: uni0247
Encoding: 583 583 557
Width: 1196
VWidth: 1000
Flags: HMW
LayerCount: 4
Fore
SplineSet
862 1220 m 29
 482 -180 l 29
 334 -180 l 5
 714 1220 l 5
 862 1220 l 29
174 600 m 1
 980 600 l 1
 980 440 l 1
 174 440 l 1
 174 600 l 1
910 340 m 1
 1063 252 l 1
 980 74 797 -20 598 -20 c 0
 317 -20 100 208 100 520 c 0
 100 832 317 1060 598 1060 c 0
 879 1060 1096 832 1096 520 c 0
 1096 493 1094 466 1091 440 c 1
 910 440 l 1
 914 466 916 492 916 520 c 0
 916 740 789 900 598 900 c 0
 407 900 280 740 280 520 c 0
 280 300 407 140 598 140 c 0
 739 140 861 207 910 340 c 1
EndSplineSet
Substitution2: "sous-table 'smcp' Bas-de-casse vers petites capitales dans Latin lookup 0" uni0247.sc
Colour: ff00
EndChar

StartChar: uni0248
Encoding: 584 584 558
Width: 1237
Flags: HMW
LayerCount: 4
Fore
SplineSet
293 491 m 1
 291 474 290 458 290 440 c 0
 291 260 384 148 564 148 c 0
 744 148 838 260 838 440 c 9
 838 1480 l 1
 1028 1480 l 1
 1028 440 l 17
 1028 170 834 -20 564 -20 c 0
 294 -20 101 170 100 440 c 0
 293 491 l 1
1237 656 m 1
 567 656 l 1
 567 702 567 778 567 824 c 1
 1237 824 l 1
 1237 656 l 1
EndSplineSet
Substitution2: "sous-table 'c2sc' Capitales vers petites capitales dans Latin lookup 0" uni0249.sc
Colour: ffff
EndChar

StartChar: uni0249
Encoding: 585 585 559
Width: 670
Flags: HMW
LayerCount: 4
Fore
SplineSet
0 440 m 1
 0 486 0 554 0 600 c 1
 670 600 l 1
 670 440 l 1
 0 440 l 1
207 1372 m 0
 207 1444 263 1500 335 1500 c 0
 407 1500 463 1444 463 1372 c 0
 463 1300 407 1244 335 1244 c 0
 263 1244 207 1300 207 1372 c 0
103 -284 m 1
 115 -291 139 -300 155 -300 c 0
 215 -300 245 -270 245 -210 c 2
 245 0 l 1
 245 138 l 1
 245 1040 l 1
 425 1040 l 1
 425 138 l 1
 425 0 l 1
 425 -210 l 2
 425 -380 325 -460 155 -460 c 0
 123 -460 83 -449 61 -436 c 1
 103 -284 l 1
EndSplineSet
LCarets2: 1 0
Substitution2: "sous-table 'smcp' Bas-de-casse vers petites capitales dans Latin lookup 0" uni0249.sc
Ligature2: "'liga' Soft Dotted i j" j uni0307
Colour: ff00
EndChar

StartChar: uni024A
Encoding: 586 586 560
Width: 1686
Flags: HMW
LayerCount: 4
Fore
SplineSet
1686 -286 m 1
 1686 -457 l 1
 1672 -459 1657 -460 1642 -460 c 0
 1464 -460 1312 -318 1312 -140 c 0
 1502 -140 l 0
 1502 -230 1552 -292 1642 -292 c 0
 1658 -292 1673 -290 1686 -286 c 1
1502 1480 m 25
 1502 -140 l 25
 1312 -140 l 1
 1312 338 l 1
 1352 406 l 1
 1352 1086 l 1
 1312 1162 l 1
 1312 1480 l 1
 1502 1480 l 25
290 740 m 0
 290 390 511 148 801 148 c 0
 1091 148 1312 390 1312 740 c 0
 1312 1090 1091 1332 801 1332 c 0
 511 1332 290 1090 290 740 c 0
100 740 m 0
 100 1179 406 1500 801 1500 c 0
 1196 1500 1472 1179 1472 740 c 4
 1472 301 1196 -20 801 -20 c 0
 406 -20 100 301 100 740 c 0
EndSplineSet
Substitution2: "sous-table 'c2sc' Capitales vers petites capitales dans Latin lookup 0" uni024B.sc
Colour: ffff
EndChar

